<svg width="48" height="48" viewBox="0 0 48 48" fill="none" xmlns="http://www.w3.org/2000/svg">
<g clip-path="url(#clip0_14406_30)">
<path d="M29.8765 47.9481C29.8839 47.8772 29.8878 47.8052 29.8878 47.7324V30.4464H35.7967C36.7442 30.4464 37.597 29.8225 37.7355 28.8853C37.9645 27.3349 37.8672 25.9251 37.719 24.9226C37.583 24.0023 36.7628 23.3965 35.8326 23.3965H29.8878C29.8878 18.0693 30.7743 17.2942 35.7711 17.1972C36.7299 17.1786 37.5906 16.5456 37.7297 15.5968C37.9636 14.0019 37.8704 12.6084 37.7236 11.6281C37.588 10.7226 36.7761 10.1324 35.8605 10.1404C27.029 10.2174 21.999 11.2616 21.999 23.3965H17.4237C16.5345 23.3965 15.7451 23.9538 15.6105 24.8327C15.4657 25.7797 15.3781 27.1524 15.6199 28.8219C15.7597 29.7864 16.6272 30.4464 17.6019 30.4464H21.999V48C15.1608 47.9551 10.2661 47.6852 7.07904 47.4263C3.57152 47.1413 0.865205 44.4349 0.580228 40.9275C0.296659 37.4373 0 31.8992 0 24.0033C0 16.1074 0.296659 10.5692 0.580228 7.07904C0.865205 3.57151 3.57152 0.865205 7.07905 0.580228C10.5692 0.296648 16.1074 0 24.0033 0C31.8991 0 37.4373 0.296659 40.9275 0.580228C44.4349 0.865205 47.1413 3.57152 47.4263 7.07904C47.7098 10.5692 48.0065 16.1074 48.0065 24.0033C48.0065 31.8992 47.7098 37.4373 47.4263 40.9275C47.1413 44.435 44.4349 47.1413 40.9275 47.4263C38.3774 47.6334 34.734 47.8477 29.8765 47.9481Z" fill="#F6F2EA"/>
</g>
<defs>
<clipPath id="clip0_14406_30">
<rect width="48" height="48" fill="white"/>
</clipPath>
</defs>
</svg>
