<svg width="48" height="48" viewBox="0 0 48 48" fill="none" xmlns="http://www.w3.org/2000/svg">
<g clip-path="url(#clip0_14406_27)">
<path fill-rule="evenodd" clip-rule="evenodd" d="M10.2857 0C4.60507 0 0 4.60506 0 10.2857V37.7142C0 43.3947 4.60507 48 10.2857 48H37.7143C43.3948 48 47.9997 43.3947 47.9997 37.7142V10.2857C47.9997 4.60506 43.3948 0 37.7143 0H10.2857ZM40.675 10.3006C40.675 11.9369 39.3485 13.2633 37.7123 13.2633C36.076 13.2633 34.7496 11.9369 34.7496 10.3006C34.7496 8.66431 36.076 7.33787 37.7123 7.33787C39.3485 7.33787 40.675 8.66431 40.675 10.3006ZM24.0004 15.7829C19.4624 15.7829 15.7836 19.4617 15.7836 23.9997C15.7836 28.5377 19.4624 32.2166 24.0004 32.2166C28.5385 32.2166 32.2173 28.5377 32.2173 23.9997C32.2173 19.4617 28.5385 15.7829 24.0004 15.7829ZM11.8333 23.9997C11.8333 17.28 17.2807 11.8326 24.0004 11.8326C30.7202 11.8326 36.1676 17.28 36.1676 23.9997C36.1676 30.7195 30.7202 36.1669 24.0004 36.1669C17.2807 36.1669 11.8333 30.7195 11.8333 23.9997Z" fill="#F6F2EA"/>
</g>
<defs>
<clipPath id="clip0_14406_27">
<rect width="48" height="48" fill="white"/>
</clipPath>
</defs>
</svg>
