<svg width="48" height="48" viewBox="0 0 48 48" fill="none" xmlns="http://www.w3.org/2000/svg">
<g clip-path="url(#clip0_14406_33)">
<path fill-rule="evenodd" clip-rule="evenodd" d="M8.72727 0C6.41266 0 4.19284 0.919478 2.55616 2.55616C0.919478 4.19284 0 6.41266 0 8.72727V39.2727C0 41.5873 0.919478 43.8072 2.55616 45.4438C4.19284 47.0805 6.41266 48 8.72727 48H39.2727C41.5873 48 43.8072 47.0805 45.4438 45.4438C47.0805 43.8072 48 41.5873 48 39.2727V8.72727C48 6.41266 47.0805 4.19284 45.4438 2.55616C43.8072 0.919478 41.5873 0 39.2727 0H8.72727ZM11.3564 15.0764C12.343 15.0764 13.2892 14.6844 13.9868 13.9868C14.6844 13.2892 15.0764 12.343 15.0764 11.3564C15.0764 10.3698 14.6844 9.42356 13.9868 8.72593C13.2892 8.02829 12.343 7.63636 11.3564 7.63636C10.3698 7.63636 9.42356 8.02829 8.72593 8.72593C8.02829 9.42356 7.63636 10.3698 7.63636 11.3564C7.63636 12.343 8.02829 13.2892 8.72593 13.9868C9.42356 14.6844 10.3698 15.0764 11.3564 15.0764ZM15.0742 40.3636V18.0502H7.63636V40.3636H15.0764H15.0742ZM24.744 18.0502H18.0502V40.3636H24.744V26.9018C25.6058 25.5011 27.0938 24 29.2058 24C32.1818 24 32.9258 26.976 32.9258 28.464V40.3636H40.3636V28.464C40.3636 24.4756 38.6247 18.0502 32.1818 18.0502C28.0844 18.0502 25.8109 19.5447 24.7418 20.9455V18.0502H24.744Z" fill="#F6F2EA"/>
</g>
<defs>
<clipPath id="clip0_14406_33">
<rect width="48" height="48" fill="white"/>
</clipPath>
</defs>
</svg>
