<svg width="48" height="48" viewBox="0 0 48 48" fill="none" xmlns="http://www.w3.org/2000/svg">
<g clip-path="url(#clip0_14406_35)">
<path fill-rule="evenodd" clip-rule="evenodd" d="M8.72727 0C6.41266 0 4.19284 0.919478 2.55616 2.55616C0.919478 4.19284 0 6.41266 0 8.72727V39.2727C0 41.5873 0.919478 43.8072 2.55616 45.4438C4.19284 47.0805 6.41266 48 8.72727 48H39.2727C41.5873 48 43.8072 47.0805 45.4438 45.4438C47.0805 43.8072 48 41.5873 48 39.2727V8.72727C48 6.41266 47.0805 4.19284 45.4438 2.55616C43.8072 0.919478 41.5873 0 39.2727 0H8.72727ZM24.7418 7.63636H29.9498C29.9498 11.1273 32.8996 15.0764 37.3898 15.0764V20.2822C34.2982 20.0684 31.656 19.5622 29.9498 18.0502V31.4378C29.9498 35.1578 27.0087 40.3636 20.2822 40.3636C12.0655 40.3636 10.6124 32.9236 10.6124 30.6938C10.6124 28.464 11.9215 21.024 21.024 21.024V26.232C18.6436 25.728 15.8182 27.7178 15.8182 30.6938C15.8182 34.4138 18.0502 35.1578 20.2822 35.1578C22.512 35.1578 24.744 32.9258 24.744 30.6938V7.63636H24.7418Z" fill="#F6F2EA"/>
</g>
<defs>
<clipPath id="clip0_14406_35">
<rect width="48" height="48" fill="white"/>
</clipPath>
</defs>
</svg>
