<svg width="120" height="36" viewBox="0 0 120 36" fill="none" xmlns="http://www.w3.org/2000/svg">
<g clip-path="url(#clip0_14407_48)">
<path d="M115.556 35.9271H4.44444C1.95556 35.9271 0 33.9551 0 31.4453V4.55455C0 2.04474 1.95556 0.0727539 4.44444 0.0727539H115.556C118.044 0.0727539 120 2.04474 120 4.55455V31.4453C120 33.9551 118.044 35.9271 115.556 35.9271Z" fill="black"/>
<path d="M115.556 0.789841C117.6 0.789841 119.289 2.49292 119.289 4.55455V31.4453C119.289 33.5069 117.6 35.21 115.556 35.21H4.44444C2.4 35.21 0.711111 33.5069 0.711111 31.4453V4.55455C0.711111 2.49292 2.4 0.789841 4.44444 0.789841H115.556ZM115.556 0.0727539H4.44444C1.95556 0.0727539 0 2.13438 0 4.55455V31.4453C0 33.9551 1.95556 35.9271 4.44444 35.9271H115.556C118.044 35.9271 120 33.9551 120 31.4453V4.55455C120 2.13438 118.044 0.0727539 115.556 0.0727539Z" fill="#A6A6A6"/>
<path d="M42.1333 9.2158C42.1333 9.93288 41.9556 10.5603 41.5111 11.0085C40.9778 11.5463 40.3556 11.8152 39.5556 11.8152C38.7556 11.8152 38.1333 11.5463 37.6 11.0085C37.0667 10.4707 36.8 9.84325 36.8 9.03652C36.8 8.2298 37.0667 7.60235 37.6 7.06454C38.1333 6.52672 38.7556 6.25781 39.5556 6.25781C39.9111 6.25781 40.2667 6.34745 40.6222 6.52672C40.9778 6.70599 41.2444 6.88526 41.4222 7.15417L40.9778 7.60235C40.6222 7.15417 40.1778 6.9749 39.5556 6.9749C39.0222 6.9749 38.4889 7.15417 38.1333 7.60235C37.6889 7.96089 37.5111 8.49871 37.5111 9.12616C37.5111 9.75361 37.6889 10.2914 38.1333 10.65C38.5778 11.0085 39.0222 11.2774 39.5556 11.2774C40.1778 11.2774 40.6222 11.0981 41.0667 10.65C41.3333 10.3811 41.5111 10.0225 41.5111 9.57434H39.5556V8.85725H42.1333V9.2158ZM46.2222 6.9749H43.8222V8.67798H46.0444V9.30543H43.8222V11.0085H46.2222V11.7256H43.1111V6.34745H46.2222V6.9749ZM49.1556 11.7256H48.4444V6.9749H46.9333V6.34745H50.6667V6.9749H49.1556V11.7256ZM53.2444 11.7256V6.34745H53.9556V11.7256H53.2444ZM56.9778 11.7256H56.2667V6.9749H54.7556V6.34745H58.4V6.9749H56.8889V11.7256H56.9778ZM65.4222 11.0085C64.8889 11.5463 64.2667 11.8152 63.4667 11.8152C62.6667 11.8152 62.0444 11.5463 61.5111 11.0085C60.9778 10.4707 60.7111 9.84325 60.7111 9.03652C60.7111 8.2298 60.9778 7.60235 61.5111 7.06454C62.0444 6.52672 62.6667 6.25781 63.4667 6.25781C64.2667 6.25781 64.8889 6.52672 65.4222 7.06454C65.9556 7.60235 66.2222 8.2298 66.2222 9.03652C66.2222 9.84325 65.9556 10.4707 65.4222 11.0085ZM62.0444 10.5603C62.4 10.9189 62.9333 11.1878 63.4667 11.1878C64 11.1878 64.5333 11.0085 64.8889 10.5603C65.2444 10.2018 65.5111 9.66397 65.5111 9.03652C65.5111 8.40907 65.3333 7.87126 64.8889 7.51271C64.5333 7.15417 64 6.88526 63.4667 6.88526C62.9333 6.88526 62.4 7.06454 62.0444 7.51271C61.6889 7.87126 61.4222 8.40907 61.4222 9.03652C61.4222 9.66397 61.6 10.2018 62.0444 10.5603ZM67.2 11.7256V6.34745H68L70.5778 10.5603V6.34745H71.2889V11.7256H70.5778L67.8222 7.33344V11.7256H67.2Z" fill="white" stroke="white" stroke-width="1.18519" stroke-miterlimit="10"/>
<path d="M60.5333 19.6135C58.4 19.6135 56.7111 21.227 56.7111 23.4679C56.7111 25.6191 58.4 27.3222 60.5333 27.3222C62.6667 27.3222 64.3556 25.7088 64.3556 23.4679C64.3556 21.1373 62.6667 19.6135 60.5333 19.6135ZM60.5333 25.7088C59.3778 25.7088 58.4 24.7228 58.4 23.3782C58.4 22.0337 59.3778 21.0477 60.5333 21.0477C61.6889 21.0477 62.6667 21.9441 62.6667 23.3782C62.6667 24.7228 61.6889 25.7088 60.5333 25.7088ZM52.2667 19.6135C50.1333 19.6135 48.4444 21.227 48.4444 23.4679C48.4444 25.6191 50.1333 27.3222 52.2667 27.3222C54.4 27.3222 56.0889 25.7088 56.0889 23.4679C56.0889 21.1373 54.4 19.6135 52.2667 19.6135ZM52.2667 25.7088C51.1111 25.7088 50.1333 24.7228 50.1333 23.3782C50.1333 22.0337 51.1111 21.0477 52.2667 21.0477C53.4222 21.0477 54.4 21.9441 54.4 23.3782C54.4 24.7228 53.4222 25.7088 52.2667 25.7088ZM42.4 20.7788V22.3922H46.2222C46.1333 23.2886 45.7778 24.0057 45.3333 24.4539C44.8 24.9917 43.9111 25.6191 42.4 25.6191C40 25.6191 38.2222 23.7368 38.2222 21.3166C38.2222 18.8964 40.0889 17.0141 42.4 17.0141C43.6444 17.0141 44.6222 17.5519 45.3333 18.1793L46.4889 17.0141C45.5111 16.1177 44.2667 15.4006 42.4889 15.4006C39.2889 15.4006 36.5333 18.0897 36.5333 21.3166C36.5333 24.5435 39.2889 27.2326 42.4889 27.2326C44.2667 27.2326 45.5111 26.6948 46.5778 25.5295C47.6444 24.4539 48 22.93 48 21.7648C48 21.4062 48 21.0477 47.9111 20.7788H42.4ZM82.7555 22.0337C82.4 21.1373 81.5111 19.6135 79.5555 19.6135C77.6 19.6135 76 21.1373 76 23.4679C76 25.6191 77.6 27.3222 79.7333 27.3222C81.4222 27.3222 82.4889 26.2466 82.8444 25.6191L81.6 24.7228C81.1556 25.3502 80.6222 25.7984 79.7333 25.7984C78.8444 25.7984 78.3111 25.4398 77.8667 24.6331L82.9333 22.4819L82.7555 22.0337ZM77.6 23.2886C77.6 21.8544 78.7555 21.0477 79.5555 21.0477C80.1778 21.0477 80.8 21.4062 80.9778 21.8544L77.6 23.2886ZM73.4222 26.9637H75.1111V15.7592H73.4222V26.9637ZM70.7555 20.4202C70.3111 19.9721 69.6 19.5239 68.7111 19.5239C66.8444 19.5239 65.0667 21.227 65.0667 23.3782C65.0667 25.5295 66.7556 27.1429 68.7111 27.1429C69.6 27.1429 70.3111 26.6948 70.6667 26.2466H70.7555V26.7844C70.7555 28.2186 69.9556 29.0253 68.7111 29.0253C67.7333 29.0253 67.0222 28.3082 66.8444 27.6807L65.4222 28.3082C65.8667 29.2942 66.9333 30.5491 68.8 30.5491C70.7556 30.5491 72.3556 29.3838 72.3556 26.6051V19.7928H70.7555V20.4202ZM68.8 25.7088C67.6444 25.7088 66.6667 24.7228 66.6667 23.3782C66.6667 22.0337 67.6444 21.0477 68.8 21.0477C69.9556 21.0477 70.8444 22.0337 70.8444 23.3782C70.8444 24.7228 69.9556 25.7088 68.8 25.7088ZM90.4889 15.7592H86.4889V26.9637H88.1778V22.7508H90.4889C92.3556 22.7508 94.1333 21.4062 94.1333 19.255C94.1333 17.1037 92.3556 15.7592 90.4889 15.7592ZM90.5778 21.1373H88.1778V17.283H90.5778C91.8222 17.283 92.5333 18.3586 92.5333 19.1653C92.4444 20.1513 91.7333 21.1373 90.5778 21.1373ZM100.8 19.5239C99.5556 19.5239 98.3111 20.0617 97.8667 21.227L99.3778 21.8544C99.7333 21.227 100.267 21.0477 100.889 21.0477C101.778 21.0477 102.578 21.5855 102.667 22.4819V22.5715C102.4 22.3922 101.689 22.1233 100.978 22.1233C99.3778 22.1233 97.7778 23.0197 97.7778 24.6331C97.7778 26.1569 99.1111 27.1429 100.533 27.1429C101.689 27.1429 102.222 26.6051 102.667 26.0673H102.756V26.9637H104.356V22.6611C104.178 20.6892 102.667 19.5239 100.8 19.5239ZM100.622 25.7088C100.089 25.7088 99.2889 25.4398 99.2889 24.7228C99.2889 23.8264 100.267 23.5575 101.067 23.5575C101.778 23.5575 102.133 23.7368 102.578 23.916C102.4 24.9917 101.511 25.7088 100.622 25.7088ZM109.956 19.7928L108.089 24.6331H108L106.044 19.7928H104.267L107.2 26.6051L105.511 30.3698H107.2L111.733 19.7928H109.956ZM95.0222 26.9637H96.7111V15.7592H95.0222V26.9637Z" fill="white"/>
<path d="M9.24444 6.79541C8.97777 7.06432 8.88889 7.5125 8.88889 8.05031V27.8598C8.88889 28.3977 9.06666 28.8458 9.33333 29.1147L9.42222 29.2044L20.4444 18.0895V17.9103L9.24444 6.79541Z" fill="url(#paint0_linear_14407_48)"/>
<path d="M24 21.8544L20.3555 18.1793V17.9104L24 14.2354L24.0889 14.325L28.4444 16.8348C29.6889 17.5519 29.6889 18.7171 28.4444 19.4342L24 21.8544Z" fill="url(#paint1_linear_14407_48)"/>
<path d="M24.0889 21.7647L20.3556 18L9.24445 29.2045C9.68889 29.6527 10.3111 29.6527 11.1111 29.2941L24.0889 21.7647Z" fill="url(#paint2_linear_14407_48)"/>
<path d="M24.0889 14.2352L11.1111 6.79539C10.3111 6.34721 9.68889 6.43684 9.24445 6.88502L20.3556 17.9999L24.0889 14.2352Z" fill="url(#paint3_linear_14407_48)"/>
<path opacity="0.2" d="M24 21.675L11.1111 29.0252C10.4 29.4734 9.77778 29.3837 9.33334 29.0252L9.24445 29.1148L9.33334 29.2045C9.77778 29.563 10.4 29.6526 11.1111 29.2045L24 21.675Z" fill="black"/>
<path opacity="0.12" d="M9.24444 29.0252C8.97777 28.7563 8.88889 28.3081 8.88889 27.7703V27.8599C8.88889 28.3978 9.06666 28.8459 9.33333 29.1148V29.0252H9.24444ZM28.4444 19.1653L24 21.6751L24.0889 21.7647L28.4444 19.2549C29.0667 18.8964 29.3333 18.4482 29.3333 18C29.3333 18.4482 28.9778 18.8067 28.4444 19.1653Z" fill="black"/>
<path opacity="0.25" d="M11.1111 6.88513L28.4444 16.8347C28.9778 17.1933 29.3333 17.5518 29.3333 18C29.3333 17.5518 29.0667 17.1036 28.4444 16.7451L11.1111 6.79549C9.86666 6.0784 8.88889 6.61622 8.88889 8.05039V8.14003C8.88889 6.79549 9.86666 6.16804 11.1111 6.88513Z" fill="white"/>
</g>
<defs>
<linearGradient id="paint0_linear_14407_48" x1="19.3778" y1="7.88" x2="4.33472" y2="22.7968" gradientUnits="userSpaceOnUse">
<stop stop-color="#00A0FF"/>
<stop offset="0.007" stop-color="#00A1FF"/>
<stop offset="0.26" stop-color="#00BEFF"/>
<stop offset="0.512" stop-color="#00D2FF"/>
<stop offset="0.76" stop-color="#00DFFF"/>
<stop offset="1" stop-color="#00E3FF"/>
</linearGradient>
<linearGradient id="paint1_linear_14407_48" x1="30.0747" y1="18.001" x2="8.56621" y2="18.001" gradientUnits="userSpaceOnUse">
<stop stop-color="#FFE000"/>
<stop offset="0.409" stop-color="#FFBD00"/>
<stop offset="0.775" stop-color="#FFA500"/>
<stop offset="1" stop-color="#FF9C00"/>
</linearGradient>
<linearGradient id="paint2_linear_14407_48" x1="22.0684" y1="20.058" x2="1.66983" y2="40.2867" gradientUnits="userSpaceOnUse">
<stop stop-color="#FF3A44"/>
<stop offset="1" stop-color="#C31162"/>
</linearGradient>
<linearGradient id="paint3_linear_14407_48" x1="6.48622" y1="0.230458" x2="15.5956" y2="9.26392" gradientUnits="userSpaceOnUse">
<stop stop-color="#32A071"/>
<stop offset="0.069" stop-color="#2DA771"/>
<stop offset="0.476" stop-color="#15CF74"/>
<stop offset="0.801" stop-color="#06E775"/>
<stop offset="1" stop-color="#00F076"/>
</linearGradient>
<clipPath id="clip0_14407_48">
<rect width="120" height="36" fill="white"/>
</clipPath>
</defs>
</svg>
