<svg width="683" height="176" viewBox="0 0 683 176" fill="none" xmlns="http://www.w3.org/2000/svg">
<g clip-path="url(#clip0_14346_4805)">
<path d="M111.48 68.3197V73.5997L76.01 48.9497L40.34 73.3097V68.3197V3.21973H0V172.31H40.34V117.39L75.81 91.7497L111.48 117.21V172.31H151.82V3.21973H111.48V68.3197Z" fill="#30995B"/>
<path d="M226.06 50.5596C190.07 50.5596 165.31 76.4096 165.31 113.73C165.31 151.05 190.55 175.45 227.75 175.45C249.61 175.45 267.61 168.32 279.93 156L255.53 133.29C248.04 140.05 238.5 143.68 229.68 143.68C216.64 143.68 207.46 137.64 204.32 124.72H284.64C285.12 122.18 285.36 116.87 285.36 113.01C285.24 75.9296 261.2 50.5696 226.06 50.5696V50.5596ZM204.44 100.8C207.34 89.0796 214.46 82.6796 226.18 82.6796C237.17 82.6796 244.54 88.9596 247.56 100.8H204.44Z" fill="#30995B"/>
<path d="M336.65 53.8203H298.85V172.3H336.65V53.8203Z" fill="#30995B"/>
<path d="M317.94 0C306.12 0 297.08 9.15 297.08 20.97C297.08 32.79 306.12 41.72 317.94 41.72C329.76 41.72 338.8 32.68 338.8 20.97C338.8 9.26 329.65 0 317.94 0Z" fill="#30995B"/>
<path d="M501.147 50.5591C484.847 50.5591 471.557 56.7191 463.587 70.3691C456.337 57.6891 443.057 50.5591 427.477 50.5591C411.897 50.5591 399.697 56.2391 392.207 68.6791V53.8191H355.977V172.299H393.777V108.529C393.777 93.1891 402.477 86.0591 412.977 86.0591C424.697 86.0591 431.697 93.9091 431.697 107.919V172.289H469.497V108.519C469.497 93.1791 478.317 86.0491 488.697 86.0491C500.537 86.0491 507.537 93.8991 507.537 107.909V172.279H545.337V94.4991C545.337 67.2091 528.187 50.5391 501.137 50.5391L501.147 50.5591Z" fill="#30995B"/>
<path d="M647.984 53.8186V66.6186C640.854 57.3186 629.984 50.5586 614.044 50.5586C582.284 50.5586 558.844 78.0986 558.844 112.879C558.844 147.659 582.274 175.439 613.914 175.439C629.974 175.439 640.844 168.799 647.974 159.499V172.299H684.564V53.8186H647.974H647.984ZM622.984 140.169C607.884 140.169 597.744 128.459 597.744 112.999C597.744 97.5386 607.894 85.8186 622.984 85.8186C638.074 85.8186 648.344 97.2886 648.344 112.999C648.344 128.709 637.834 140.169 622.984 140.169Z" fill="#30995B"/>
</g>
<defs>
<clipPath id="clip0_14346_4805">
<rect width="682.58" height="175.45" fill="white"/>
</clipPath>
</defs>
</svg>
