<svg width="413" height="106" viewBox="0 0 413 106" fill="none" xmlns="http://www.w3.org/2000/svg">
<g clip-path="url(#clip0_14346_4873)">
<path d="M67.4518 41.2762V44.4661L45.9904 29.5736L24.408 44.2909V41.2762V1.94531H0V104.103H24.408V70.9223L45.8694 55.4317L67.4518 70.8136V104.103H91.8598V1.94531H67.4518V41.2762Z" fill="#F7F2EA"/>
<path d="M136.78 30.5459C115.004 30.5459 100.022 46.1635 100.022 68.7107C100.022 91.258 115.294 106 137.802 106C151.029 106 161.92 101.692 169.374 94.2486L154.611 80.5281C150.079 84.6122 144.307 86.8053 138.97 86.8053C131.08 86.8053 125.526 83.1562 123.626 75.3505H172.224C172.514 73.8159 172.66 70.6078 172.66 68.2757C172.587 45.8735 158.041 30.5519 136.78 30.5519V30.5459ZM123.698 60.8989C125.453 53.8182 129.761 49.9515 136.852 49.9515C143.502 49.9515 147.961 53.7457 149.788 60.8989H123.698Z" fill="#F7F2EA"/>
<path d="M203.692 32.5156H180.821V104.097H203.692V32.5156Z" fill="#F7F2EA"/>
<path d="M192.372 0C185.22 0 179.75 5.52807 179.75 12.6692C179.75 19.8104 185.22 25.2056 192.372 25.2056C199.523 25.2056 204.993 19.744 204.993 12.6692C204.993 5.59453 199.457 0 192.372 0Z" fill="#F7F2EA"/>
<path d="M303.222 30.5463C293.359 30.5463 285.318 34.2679 280.496 42.5147C276.109 34.8539 268.074 30.5463 258.647 30.5463C249.221 30.5463 241.839 33.9779 237.307 41.4937V32.5158H215.386V104.097H238.257V65.5695C238.257 56.3016 243.521 51.994 249.874 51.994C256.965 51.994 261.201 56.7366 261.201 65.2009V104.091H284.072V65.5634C284.072 56.2956 289.408 51.9879 295.689 51.9879C302.853 51.9879 307.088 56.7306 307.088 65.1949V104.085H329.959V57.0931C329.959 40.6055 319.583 30.5342 303.216 30.5342L303.222 30.5463Z" fill="#F7F2EA"/>
<path d="M392.068 32.5155V40.2487C387.754 34.63 381.177 30.5459 371.532 30.5459C352.315 30.5459 338.133 47.1845 338.133 68.1972C338.133 89.2099 352.309 105.993 371.453 105.993C381.171 105.993 387.747 101.982 392.062 96.3632V104.096H414.201V32.5155H392.062H392.068ZM376.941 84.6847C367.805 84.6847 361.67 77.61 361.67 68.2697C361.67 58.9294 367.811 51.8486 376.941 51.8486C386.071 51.8486 392.285 58.7783 392.285 68.2697C392.285 77.7611 385.926 84.6847 376.941 84.6847Z" fill="#F7F2EA"/>
</g>
<defs>
<clipPath id="clip0_14346_4873">
<rect width="413" height="106" fill="white"/>
</clipPath>
</defs>
</svg>
