<svg width="121" height="36" viewBox="0 0 121 36" fill="none" xmlns="http://www.w3.org/2000/svg">
<g clip-path="url(#clip0_14407_37)">
<path d="M120.079 31.6984C120.079 32.1498 119.99 32.5967 119.818 33.0137C119.645 33.4307 119.392 33.8095 119.073 34.1285C118.754 34.4475 118.375 34.7005 117.959 34.8729C117.542 35.0453 117.095 35.1338 116.644 35.1333H4.23672C3.32565 35.1343 2.45151 34.7729 1.80653 34.1288C1.16155 33.4847 0.798551 32.6104 0.797363 31.6984V4.3061C0.79855 3.39365 1.16141 2.51898 1.80626 1.87412C2.45111 1.22926 3.32524 0.866936 4.23672 0.866699H116.643C117.095 0.866699 117.541 0.955668 117.958 1.12853C118.375 1.30138 118.754 1.55474 119.073 1.87413C119.392 2.19352 119.645 2.57268 119.817 2.98996C119.99 3.40725 120.078 3.85447 120.078 4.3061L120.079 31.6984Z" fill="white"/>
<path d="M116.644 35.9325H4.23671C3.11438 35.9323 2.03798 35.4863 1.2437 34.6926C0.449416 33.8988 0.00213549 32.822 0 31.6985L0 4.30709C0.00166033 3.18302 0.448645 2.1055 1.2429 1.31091C2.03715 0.516325 3.11382 0.0695523 4.23671 0.0686035L116.643 0.0686035C117.766 0.0700257 118.843 0.51695 119.637 1.31144C120.431 2.10592 120.878 3.18316 120.88 4.30709V31.6985C120.882 34.0339 118.978 35.9325 116.644 35.9325Z" fill="#A6A6A6"/>
<path d="M120.079 31.6984C120.079 32.1498 119.99 32.5967 119.818 33.0137C119.645 33.4307 119.392 33.8095 119.073 34.1285C118.754 34.4475 118.375 34.7005 117.959 34.8729C117.542 35.0453 117.095 35.1338 116.644 35.1333H4.23672C3.32565 35.1343 2.45151 34.7729 1.80653 34.1288C1.16155 33.4847 0.798551 32.6104 0.797363 31.6984V4.3061C0.79855 3.39365 1.16141 2.51898 1.80626 1.87412C2.45111 1.22926 3.32524 0.866936 4.23672 0.866699H116.643C117.095 0.866699 117.541 0.955668 117.958 1.12853C118.375 1.30138 118.754 1.55474 119.073 1.87413C119.392 2.19352 119.645 2.57268 119.817 2.98996C119.99 3.40725 120.078 3.85447 120.078 4.3061L120.079 31.6984Z" fill="black"/>
<path d="M26.9917 17.8118C26.9657 14.9212 29.3559 13.515 29.4652 13.4495C28.1115 11.4738 26.0133 11.2038 25.276 11.1823C23.5138 10.9967 21.8044 12.2379 20.9067 12.2379C19.9911 12.2379 18.6087 11.2002 17.1189 11.2307C15.2016 11.2603 13.408 12.3715 12.4243 14.097C10.3942 17.6154 11.9083 22.7857 13.8533 25.6296C14.8262 27.0233 15.9631 28.5775 17.4512 28.5228C18.9071 28.4636 19.4509 27.5945 21.2077 27.5945C22.9485 27.5945 23.4591 28.5228 24.9768 28.4878C26.5392 28.4636 27.5229 27.0887 28.4618 25.6834C29.5862 24.0879 30.0377 22.5148 30.0556 22.4341C30.0198 22.4216 27.0221 21.2754 26.9917 17.8118ZM24.1248 9.31148C24.9078 8.33123 25.4436 6.99762 25.2948 5.64429C24.1615 5.69451 22.7442 6.42903 21.928 7.38775C21.2059 8.23258 20.5609 9.61731 20.7275 10.9195C22.0006 11.0146 23.3077 10.2765 24.1248 9.31148Z" fill="white"/>
<path d="M116.644 0.0686035H56.4354L80.0182 35.9325H116.644C117.767 35.9316 118.843 35.485 119.638 34.6908C120.432 33.8966 120.879 32.8196 120.881 31.6958V4.30709C120.879 3.18309 120.432 2.10571 119.638 1.31117C118.844 0.516638 117.767 0.0697891 116.644 0.0686035Z" fill="url(#paint0_linear_14407_37)"/>
<path d="M48.0785 28.3228H46.0439L44.9294 24.8171H41.0555L39.9939 28.3228H38.013L41.852 16.3876H44.2225L48.0785 28.3228ZM44.5934 23.3462L43.5855 20.2297C43.4789 19.9113 43.2782 19.1616 42.9844 17.9813H42.9485C42.8303 18.4889 42.6412 19.2387 42.3823 20.2297L41.3915 23.3462H44.5934ZM57.9316 23.9139C57.9316 25.3776 57.5347 26.5345 56.74 27.3838C56.0287 28.1399 55.1444 28.5174 54.09 28.5174C52.9513 28.5174 52.1324 28.1112 51.6352 27.2968V31.8124H49.7251V22.5453C49.7251 21.6261 49.7009 20.6835 49.6544 19.7167H51.3342L51.4408 21.0808H51.4766C52.1136 20.053 53.0803 19.5391 54.3775 19.5391C55.3917 19.5391 56.2383 19.94 56.9156 20.7427C57.592 21.5472 57.9316 22.6036 57.9316 23.9139ZM55.9857 23.9839C55.9857 23.1462 55.7975 22.4557 55.4195 21.9113C55.0065 21.3454 54.4519 21.062 53.7567 21.062C53.2854 21.062 52.8572 21.2198 52.4746 21.531C52.0912 21.8449 51.8403 22.2548 51.723 22.7624C51.6706 22.9522 51.6408 23.1476 51.6343 23.3444V24.7803C51.6343 25.4054 51.826 25.9336 52.2095 26.3659C52.5929 26.7964 53.091 27.0125 53.7038 27.0125C54.4232 27.0125 54.9832 26.7336 55.3836 26.1803C55.785 25.6251 55.9857 24.8933 55.9857 23.9839ZM67.8196 23.9139C67.8196 25.3776 67.4227 26.5345 66.6281 27.3838C65.9158 28.1399 65.0325 28.5174 63.9771 28.5174C62.8384 28.5174 62.0196 28.1112 61.5223 27.2968V31.8124H59.6123V22.5453C59.6123 21.6261 59.5881 20.6835 59.5415 19.7167H61.2213L61.3279 21.0808H61.3638C61.9999 20.053 62.9665 19.5391 64.2647 19.5391C65.2779 19.5391 66.1246 19.94 66.8037 20.7427C67.4792 21.5472 67.8196 22.6036 67.8196 23.9139ZM65.8728 23.9839C65.8728 23.1462 65.6838 22.4557 65.3057 21.9113C64.8927 21.3454 64.3399 21.062 63.6447 21.062C63.1735 21.062 62.7452 21.2198 62.3609 21.531C61.9775 21.8449 61.7275 22.2548 61.6101 22.7624C61.5519 22.9992 61.5205 23.192 61.5205 23.3444V24.7803C61.5205 25.4054 61.7132 25.9336 62.0948 26.3659C62.4783 26.7955 62.9764 27.0125 63.591 27.0125C64.3113 27.0125 64.8712 26.7336 65.2708 26.1803C65.6721 25.6251 65.8728 24.8933 65.8728 23.9839ZM78.875 24.9749C78.875 25.991 78.5202 26.817 77.8152 27.4547C77.0393 28.1506 75.9562 28.4995 74.5675 28.4995C73.2846 28.4995 72.2561 28.252 71.4803 27.756L71.9219 26.1623C72.7596 26.6592 73.6797 26.9067 74.6813 26.9067C75.4016 26.9067 75.9615 26.7435 76.3611 26.4197C76.7616 26.0951 76.9641 25.661 76.9641 25.1193C76.9641 24.6341 76.7965 24.2278 76.4677 23.8969C76.1371 23.5669 75.5906 23.2592 74.8229 22.9767C72.7354 22.1974 71.6908 21.0575 71.6908 19.558C71.6908 18.5786 72.0599 17.7768 72.7963 17.1499C73.5328 16.5239 74.5093 16.2109 75.7241 16.2109C76.8091 16.2109 77.713 16.4002 78.4306 16.7777L77.9513 18.3365C77.2758 17.9705 76.5134 17.7876 75.6605 17.7876C74.9868 17.7876 74.4582 17.9535 74.0802 18.2835C73.7621 18.5786 73.6009 18.9382 73.6009 19.3651C73.6009 19.836 73.7845 20.227 74.15 20.5337C74.4672 20.8162 75.0459 21.1238 75.8827 21.4539C76.9094 21.8682 77.6638 22.3507 78.1466 22.905C78.6331 23.4592 78.875 24.1507 78.875 24.9749ZM85.2063 21.1517H83.101V25.33C83.101 26.3928 83.4719 26.9228 84.2155 26.9228C84.5568 26.9228 84.8399 26.8941 85.0639 26.8341L85.1168 28.286C84.7405 28.4269 84.245 28.4977 83.6313 28.4977C82.877 28.4977 82.2875 28.2672 81.8619 27.8062C81.4382 27.3453 81.225 26.5731 81.225 25.4861V21.1481H79.9707V19.7131H81.225V18.1374L83.101 17.5706V19.7131H85.2063V21.1517ZM94.6867 23.9489C94.6867 25.2718 94.3087 26.3578 93.5543 27.2071C92.765 28.0816 91.7151 28.5174 90.4061 28.5174C89.1429 28.5174 88.1386 28.0986 87.3896 27.2619C86.6407 26.4233 86.2662 25.3668 86.2662 24.0924C86.2662 22.7588 86.6532 21.6664 87.4246 20.8171C88.1977 19.9669 89.2388 19.5418 90.5477 19.5418C91.8091 19.5418 92.8224 19.9615 93.5893 20.7992C94.3221 21.6117 94.6867 22.661 94.6867 23.9489ZM92.7068 23.9929C92.7068 23.2045 92.5366 22.5283 92.1952 21.9624C91.7948 21.279 91.2214 20.9373 90.4787 20.9373C89.7136 20.9373 89.1268 21.279 88.7272 21.9624C88.385 22.5283 88.2148 23.2162 88.2148 24.0287C88.2148 24.818 88.385 25.496 88.7272 26.0601C89.1402 26.7435 89.7163 27.0852 90.4626 27.0852C91.1927 27.0852 91.7652 26.7363 92.1791 26.043C92.5303 25.4637 92.7068 24.783 92.7068 23.9929ZM100.898 21.3983C100.699 21.3624 100.498 21.3447 100.296 21.3454C99.624 21.3454 99.1044 21.5983 98.7389 22.1077C98.4218 22.5561 98.2623 23.1229 98.2623 23.8072V28.3228H96.3522V22.427C96.3539 21.5235 96.3354 20.6202 96.2967 19.7176H97.9604L98.0302 21.3642H98.0831C98.2856 20.7983 98.6027 20.3418 99.0381 20.0001C99.4367 19.7015 99.9209 19.5398 100.419 19.5391C100.595 19.5391 100.755 19.5517 100.896 19.5741L100.898 21.3983ZM109.44 23.6126C109.445 23.9033 109.422 24.1937 109.371 24.4798H103.64C103.662 25.33 103.94 25.9812 104.472 26.4296C104.955 26.8296 105.579 27.0305 106.346 27.0305C107.194 27.0305 107.968 26.8959 108.665 26.6242L108.964 27.9506C108.15 28.3058 107.19 28.4825 106.082 28.4825C104.749 28.4825 103.702 28.0896 102.941 27.3058C102.181 26.5211 101.8 25.4664 101.8 24.1453C101.8 22.8485 102.154 21.7678 102.863 20.9059C103.605 19.9858 104.607 19.5257 105.868 19.5257C107.107 19.5257 108.046 19.9858 108.682 20.9059C109.187 21.6351 109.44 22.5391 109.44 23.6126ZM107.619 23.1166C107.632 22.5489 107.507 22.0602 107.248 21.6467C106.918 21.114 106.409 20.8485 105.727 20.8485C105.102 20.8485 104.594 21.1077 104.207 21.6279C103.889 22.0413 103.699 22.5382 103.641 23.1148L107.619 23.1166Z" fill="white"/>
<path d="M40.5045 12.1679C39.9732 12.1679 39.5137 12.1419 39.1311 12.0979V6.32761C39.6661 6.24487 40.2068 6.20409 40.7482 6.20564C42.9387 6.20564 43.9475 7.28455 43.9475 9.04326C43.9475 11.0719 42.7559 12.1679 40.5045 12.1679ZM40.8252 6.94554C40.5296 6.94554 40.2779 6.96347 40.0691 7.00652V11.393C40.182 11.4109 40.3988 11.419 40.7034 11.419C42.1386 11.419 42.9557 10.6011 42.9557 9.06927C42.9557 7.70337 42.2166 6.94554 40.8252 6.94554ZM47.0912 12.2118C45.8566 12.2118 45.0566 11.289 45.0566 10.0361C45.0566 8.73026 45.8736 7.79933 47.161 7.79933C48.3777 7.79933 49.1956 8.67824 49.1956 9.96701C49.1956 11.289 48.3526 12.2118 47.0912 12.2118ZM47.127 8.48632C46.4488 8.48632 46.0143 9.12128 46.0143 10.0092C46.0143 10.88 46.4578 11.515 47.118 11.515C47.7783 11.515 48.2218 10.836 48.2218 9.99122C48.2218 9.13025 47.7873 8.48632 47.127 8.48632ZM56.2356 7.88633L54.9142 12.1158H54.0532L53.5058 10.2791C53.3697 9.82983 53.2564 9.37395 53.1663 8.91321H53.1483C53.0794 9.37419 52.9486 9.83607 52.8097 10.2791L52.2274 12.1158H51.3574L50.1139 7.88633H51.0788L51.5572 9.89705C51.6701 10.376 51.7651 10.828 51.8439 11.2549H51.8618C51.9308 10.8988 52.0437 10.454 52.2094 9.90602L52.8097 7.88722H53.5748L54.1491 9.86297C54.2879 10.3419 54.4008 10.8118 54.4886 11.2558H54.5137C54.5746 10.8208 54.6705 10.3589 54.8004 9.86297L55.3137 7.88722L56.2356 7.88633ZM61.1003 12.1158H60.1614V9.68719C60.1614 8.93922 59.8748 8.56434 59.3094 8.56434C58.7531 8.56434 58.3705 9.04326 58.3705 9.6002V12.1158H57.4316V9.09527C57.4316 8.72129 57.4227 8.3204 57.3967 7.88543H58.2227L58.2666 8.53833H58.2926C58.5452 8.08632 59.0577 7.79933 59.632 7.79933C60.5189 7.79933 61.1012 8.47825 61.1012 9.58316L61.1003 12.1158ZM63.6895 12.1158H62.7497V5.94556H63.6895V12.1158ZM67.1127 12.2118C65.8791 12.2118 65.0781 11.289 65.0781 10.0361C65.0781 8.73026 65.8952 7.79933 67.1817 7.79933C68.3992 7.79933 69.2163 8.67824 69.2163 9.96701C69.2172 11.289 68.3733 12.2118 67.1127 12.2118ZM67.1477 8.48632C66.4695 8.48632 66.035 9.12128 66.035 10.0092C66.035 10.88 66.4793 11.515 67.1378 11.515C67.799 11.515 68.2416 10.836 68.2416 9.99122C68.2425 9.13025 67.8088 8.48632 67.1477 8.48632ZM72.9182 12.1158L72.8501 11.6289H72.825C72.5383 12.0208 72.1199 12.2118 71.5895 12.2118C70.8325 12.2118 70.295 11.6809 70.295 10.967C70.295 9.92306 71.1989 9.38316 72.7641 9.38316V9.30514C72.7641 8.74819 72.4693 8.46928 71.887 8.46928C71.4704 8.46928 71.1049 8.57421 70.7832 8.78317L70.5924 8.16525C70.983 7.9213 71.4704 7.79933 72.0429 7.79933C73.1466 7.79933 73.7039 8.38228 73.7039 9.54908V11.1069C73.7039 11.5338 73.7227 11.8647 73.7648 12.1167L72.9182 12.1158ZM72.7892 10.0092C71.7463 10.0092 71.2231 10.2621 71.2231 10.8621C71.2231 11.306 71.4928 11.523 71.8673 11.523C72.3448 11.523 72.7892 11.158 72.7892 10.6621V10.0092ZM78.2631 12.1158L78.2192 11.4369H78.1932C77.9236 11.9499 77.4702 12.2118 76.8368 12.2118C75.8182 12.2118 75.0638 11.315 75.0638 10.0531C75.0638 8.73026 75.846 7.79844 76.9139 7.79844C77.4792 7.79844 77.8797 7.98946 78.1054 8.37331H78.1242V5.94556H79.064V10.976C79.064 11.3849 79.0739 11.7679 79.099 12.1158H78.2631ZM78.1242 9.6271C78.1242 9.03519 77.7327 8.53026 77.1352 8.53026C76.439 8.53026 76.0135 9.14819 76.0135 10.0181C76.0135 10.871 76.4552 11.4549 77.1163 11.4549C77.7067 11.4549 78.1242 10.941 78.1242 10.332V9.6271ZM85.0227 12.2118C83.789 12.2118 82.989 11.289 82.989 10.0361C82.989 8.73026 83.806 7.79933 85.0925 7.79933C86.3101 7.79933 87.1271 8.67824 87.1271 9.96701C87.128 11.289 86.285 12.2118 85.0227 12.2118ZM85.0576 8.48632C84.3803 8.48632 83.9458 9.12128 83.9458 10.0092C83.9458 10.88 84.3893 11.515 85.0486 11.515C85.7098 11.515 86.1524 10.836 86.1524 9.99122C86.1542 9.13025 85.7197 8.48632 85.0576 8.48632ZM92.1764 12.1158H91.2366V9.68719C91.2366 8.93922 90.9499 8.56434 90.3846 8.56434C89.8283 8.56434 89.4466 9.04326 89.4466 9.6002V12.1158H88.5068V9.09527C88.5068 8.72129 88.4979 8.3204 88.4719 7.88543H89.2979L89.3418 8.53833H89.3678C89.6195 8.08632 90.1329 7.79844 90.7062 7.79844C91.5932 7.79844 92.1764 8.47735 92.1764 9.58226V12.1158ZM98.4934 8.59125H97.4604V10.645C97.4604 11.1679 97.6414 11.4289 98.0069 11.4289C98.1727 11.4289 98.3115 11.4109 98.4235 11.3849L98.4495 12.0988C98.2676 12.1688 98.024 12.2037 97.7211 12.2037C96.9811 12.2037 96.5385 11.7948 96.5385 10.7239V8.59125H95.9222V7.88633H96.5385V7.11145L97.4604 6.83254V7.88543H98.4934V8.59125ZM103.464 12.1158H102.526V9.70513C102.526 8.94819 102.24 8.56524 101.674 8.56524C101.187 8.56524 100.734 8.89617 100.734 9.56612V12.1158H99.796V5.94556H100.734V8.48632H100.753C101.049 8.02534 101.477 7.79844 102.023 7.79844C102.917 7.79844 103.464 8.49439 103.464 9.6002V12.1158ZM108.556 10.2271H105.739C105.756 11.028 106.286 11.48 107.07 11.48C107.486 11.48 107.87 11.41 108.209 11.28L108.355 11.9329C107.955 12.1069 107.485 12.1939 106.937 12.1939C105.616 12.1939 104.834 11.358 104.834 10.0621C104.834 8.76523 105.635 7.79037 106.832 7.79037C107.911 7.79037 108.588 8.59125 108.588 9.80109C108.594 9.94387 108.584 10.0869 108.556 10.2271ZM107.695 9.55715C107.695 8.90425 107.366 8.44327 106.766 8.44327C106.227 8.44327 105.8 8.91321 105.739 9.55715H107.695Z" fill="white"/>
</g>
<defs>
<linearGradient id="paint0_linear_14407_37" x1="88.6572" y1="36.0277" x2="88.6572" y2="-93.3148" gradientUnits="userSpaceOnUse">
<stop stop-color="#1A1A1A" stop-opacity="0.1"/>
<stop offset="0.123" stop-color="#212121" stop-opacity="0.151"/>
<stop offset="0.308" stop-color="#353535" stop-opacity="0.227"/>
<stop offset="0.532" stop-color="#575757" stop-opacity="0.318"/>
<stop offset="0.783" stop-color="#858585" stop-opacity="0.421"/>
<stop offset="1" stop-color="#B3B3B3" stop-opacity="0.51"/>
</linearGradient>
<clipPath id="clip0_14407_37">
<rect width="121" height="36" fill="white"/>
</clipPath>
</defs>
</svg>
