<svg width="549" height="618" viewBox="0 0 549 618" fill="none" xmlns="http://www.w3.org/2000/svg">
<g clip-path="url(#clip0_14355_201)">
<path d="M548.558 196.071L275.161 0.441406L1.76367 196.071V617.53H548.558V196.071Z" fill="#F3E6D6"/>
<path d="M548.56 617.97H1.76537C1.51539 617.97 1.32422 617.779 1.32422 617.529V196.071C1.32422 195.924 1.39774 195.791 1.51538 195.718L274.913 0.0879297C275.06 -0.014987 275.265 -0.014987 275.427 0.0879297L548.81 195.718C548.927 195.806 549.001 195.938 549.001 196.071V617.515C549.001 617.765 548.81 617.956 548.56 617.956V617.97ZM2.20652 617.088H548.118V196.306L275.163 0.984775L2.20652 196.306V617.088Z" fill="#4D3D38"/>
<path d="M275.662 0.441406L279.074 285.138H1.60352L1.76527 196.071L275.162 0.441406" fill="#B6D2E3"/>
<path d="M279.515 285.58H1.16211L1.32387 195.851L1.51503 195.719L274.912 0.088652C275.059 -0.0289671 275.265 -0.0142647 275.412 0.088652C275.486 0.0445448 275.559 0.000437669 275.662 0.0151401C275.897 0.0151401 276.103 0.206271 276.103 0.456212L279.515 285.594V285.58ZM2.04442 284.697H278.618L275.221 0.94139L2.20617 196.307L2.04442 284.697Z" fill="#4D3D38"/>
<path d="M275.618 0.441406L279.03 274.611H1.60352L1.76527 196.071L275.162 0.441406" fill="#DCE8ED"/>
<path d="M279.03 275.052H1.60326C1.48562 275.052 1.36798 275.008 1.29446 274.92C1.20622 274.831 1.16211 274.728 1.16211 274.611L1.32387 196.071C1.32387 195.924 1.39739 195.791 1.51503 195.718L274.912 0.0879205C275.059 -0.0149962 275.25 -0.0149962 275.397 0.0732181C275.456 0.029111 275.53 -0.000293796 275.618 0.0144086C275.853 0.0144086 276.059 0.20554 276.059 0.45548L279.471 274.626C279.471 274.743 279.427 274.861 279.338 274.934C279.25 275.022 279.147 275.067 279.03 275.067V275.052ZM2.04441 274.17H278.574L275.192 0.970064L2.20617 196.306L2.04441 274.17Z" fill="#4D3D38"/>
<path d="M150.903 208.642C155.697 221.521 159.976 223.712 164.814 225.064C170.476 226.652 161.756 231.592 165.108 239.326C165.652 240.575 155.491 241.781 155.491 241.781C156.829 245.383 160.212 246.427 163.667 246.353C165.976 246.294 165.358 251.234 164.167 255.954C162.756 261.614 154.844 262.114 149.771 263.099C148.3 263.379 146.933 266.981 146.83 268.48C146.624 271.612 146.462 274.993 146.448 275.199L139.066 279.331L107.435 276.993C116.817 258.644 113.082 257.953 99.4648 246.691L100.582 210.626L144.786 205.437L147.624 208.803" fill="#FFB695"/>
<path d="M139.199 279.772H139.066L106.774 277.375L107.083 276.787C115.523 260.276 113.273 258.438 102.406 249.617C101.421 248.808 100.348 247.956 99.2301 247.015L99.0684 246.882L100.201 210.229L145.022 204.966L148.007 208.524C148.169 208.715 148.139 208.994 147.948 209.141C147.757 209.303 147.478 209.274 147.33 209.082L144.654 205.892L101.054 211.009L99.9654 246.471C101.024 247.353 102.039 248.161 102.98 248.926C113.906 257.791 116.597 259.982 108.186 276.581L139.022 278.86L146.081 274.92C146.125 274.067 146.272 271.156 146.448 268.436C146.551 266.892 147.919 262.996 149.742 262.643C150.419 262.511 151.124 262.393 151.874 262.276C156.668 261.467 162.624 260.467 163.785 255.836C164.932 251.249 165.153 248.058 164.374 247.088C164.212 246.882 164.006 246.794 163.727 246.794C159.315 246.912 156.345 245.221 155.124 241.942L154.933 241.413L155.492 241.354C159.492 240.884 164.05 240.016 164.712 239.399C162.991 235.341 164.447 232.033 165.521 229.607C166.124 228.225 166.609 227.137 166.285 226.446C166.094 226.034 165.594 225.726 164.741 225.49C159.859 224.123 155.418 221.918 150.536 208.788C150.448 208.553 150.566 208.303 150.801 208.215C151.036 208.127 151.286 208.244 151.374 208.48C156.109 221.212 160.344 223.329 164.991 224.638C166.094 224.946 166.785 225.417 167.094 226.064C167.594 227.108 167.035 228.372 166.344 229.96C165.285 232.386 163.962 235.4 165.594 239.149C165.682 239.355 165.668 239.575 165.55 239.781C164.888 240.928 159.183 241.781 156.198 242.163C157.698 245.368 161.08 246 163.727 245.927C164.285 245.927 164.756 246.132 165.08 246.544C166.079 247.794 165.932 250.999 164.668 256.057C163.374 261.247 157.095 262.305 152.036 263.158C151.301 263.275 150.58 263.408 149.919 263.525C148.801 263.746 147.433 266.922 147.345 268.495C147.169 271.303 147.022 274.302 146.978 275.052V275.464L139.243 279.772H139.199Z" fill="#4D3D38"/>
<path d="M153.638 222.389C151.447 224.256 149.094 226.299 146.33 227.343C143.036 228.578 139.786 229.137 137.683 228.74C137.566 228.725 138.816 224.432 141.963 221.889C142.683 221.301 143.507 220.815 144.433 220.477C146.786 219.639 149.83 219.874 153.653 222.374L153.638 222.389Z" fill="#ECEBE6"/>
<path d="M153.638 222.388C151.447 224.256 149.094 226.299 146.33 227.343C145.565 226.785 144.948 226.049 144.536 225.182C143.904 223.829 143.845 222.33 144.286 220.904C144.33 220.771 144.374 220.624 144.418 220.492C146.771 219.654 149.815 219.889 153.638 222.388Z" fill="#4D3D38"/>
<path d="M137.757 229.666C137.757 229.666 137.713 229.666 137.698 229.666C137.463 229.637 137.286 229.416 137.316 229.166C137.875 225.211 140.08 222.006 143.242 220.595C146.286 219.242 149.771 219.727 153.065 221.947C153.271 222.08 153.315 222.359 153.183 222.565C153.05 222.771 152.771 222.815 152.565 222.682C149.521 220.639 146.345 220.183 143.595 221.403C140.713 222.682 138.698 225.638 138.183 229.284C138.154 229.504 137.963 229.666 137.742 229.666H137.757Z" fill="#4D3D38"/>
<path d="M140.977 202.202C159.712 197.085 163.065 211.494 153.712 215.537C153.712 215.537 152.256 213.111 150.624 211.611C143.918 205.363 131.213 213.332 131.213 213.332C131.213 213.332 133.669 235.12 128.625 239.355C123.581 243.589 118.435 241.751 118.435 241.751C118.435 241.751 120.684 252.116 112.361 260.423C92.0536 258.291 95.1858 236.944 95.1858 236.944L140.977 202.216V202.202Z" fill="#FC8C4C"/>
<path d="M112.363 260.849C112.363 260.849 112.333 260.849 112.318 260.849C106.407 260.232 101.863 257.938 98.8191 254.027C93.3341 246.97 94.687 237.281 94.7458 236.87C94.7605 236.752 94.8193 236.649 94.9223 236.576L140.714 201.849C140.714 201.849 140.817 201.79 140.861 201.775C151.86 198.776 157.404 202.393 158.801 206.406C160.11 210.141 158.037 214.14 153.89 215.948C153.684 216.036 153.449 215.948 153.331 215.772C153.331 215.742 151.875 213.39 150.331 211.934C144.434 206.45 133.435 212.537 131.685 213.552C131.964 216.242 133.817 235.561 128.906 239.678C124.759 243.162 120.597 242.706 118.98 242.339C119.303 244.838 119.818 253.572 112.671 260.717C112.583 260.805 112.48 260.849 112.363 260.849ZM95.5987 237.178C95.4516 238.516 94.6576 247.25 99.525 253.498C102.378 257.159 106.628 259.32 112.201 259.952C120.083 251.925 118.024 241.927 118.009 241.839C117.98 241.677 118.024 241.516 118.156 241.413C118.274 241.31 118.45 241.266 118.597 241.324C118.803 241.398 123.568 243.015 128.347 239.001C133.156 234.958 130.817 213.581 130.788 213.361C130.773 213.199 130.847 213.022 130.994 212.934C131.523 212.596 144.067 204.877 150.934 211.273C152.243 212.493 153.419 214.243 153.89 214.963C157.375 213.287 159.095 209.861 157.978 206.686C156.698 203.039 151.537 199.79 141.184 202.598L95.6134 237.164L95.5987 237.178Z" fill="#4D3D38"/>
<path d="M144.683 200.937C144.683 200.525 133.978 179.516 133.978 179.516L76.2754 211.317L94.8479 237.487C112.038 230.195 128.581 217.33 144.683 200.937Z" fill="#F7F2EA"/>
<path d="M94.8481 237.929C94.7158 237.929 94.5687 237.87 94.4952 237.738L75.9227 211.568C75.8492 211.465 75.8198 211.332 75.8492 211.215C75.8786 211.097 75.9521 210.994 76.0697 210.921L133.773 179.12C133.875 179.061 134.008 179.046 134.111 179.09C134.228 179.12 134.317 179.208 134.375 179.311C145.14 200.409 145.14 200.791 145.14 200.938C145.14 201.055 145.095 201.158 145.007 201.247C127.493 219.066 111.141 231.048 95.0246 237.885C94.9658 237.914 94.907 237.914 94.8481 237.914V237.929ZM76.9226 211.465L94.9952 236.929C110.847 230.137 126.935 218.316 144.169 200.82C143.39 199.056 137.728 187.853 133.787 180.119L76.9226 211.45V211.465Z" fill="#4D3D38"/>
<path d="M86.3636 225.299C56.6887 217.713 57.9093 202.775 71.0997 190.352C83.5991 178.59 106.407 163.285 118.083 159.197C140.567 151.332 137.537 185.735 137.537 185.735" fill="#F7F2EA"/>
<path d="M86.3636 225.74C86.3636 225.74 86.2901 225.74 86.2607 225.74C72.1144 222.123 64.0119 216.654 62.1737 209.509C60.6297 203.54 63.6148 196.806 70.8056 190.043C83.6285 177.972 106.539 162.785 117.95 158.8C123.347 156.904 127.773 157.271 131.111 159.859C139.581 166.446 138.052 185 137.993 185.779C137.979 186.029 137.758 186.22 137.508 186.176C137.258 186.161 137.081 185.941 137.111 185.691C137.126 185.5 138.67 166.842 130.567 160.535C127.479 158.139 123.332 157.83 118.23 159.609C106.907 163.564 84.1579 178.663 71.3938 190.66C66.5559 195.218 61.1738 202.143 63.0119 209.259C64.7471 215.978 72.8496 221.374 86.4666 224.858C86.7018 224.917 86.8489 225.167 86.7901 225.402C86.746 225.608 86.5548 225.74 86.3636 225.74Z" fill="#4D3D38"/>
<path d="M477.534 594.226L410.552 598.225L395.332 384.467L473.504 355.019L477.534 594.226Z" fill="#85A3D4"/>
<path d="M410.552 598.666C410.317 598.666 410.126 598.49 410.111 598.254L394.906 384.496C394.906 384.305 395.009 384.114 395.186 384.055L473.358 354.606C473.49 354.548 473.637 354.577 473.755 354.651C473.873 354.724 473.946 354.871 473.946 355.003L477.975 594.197C477.975 594.432 477.799 594.623 477.564 594.638L410.567 598.651H410.538L410.552 598.666ZM395.803 384.761L410.964 597.755L477.093 593.8L473.079 355.65L395.803 384.761Z" fill="#4D3D38"/>
<path d="M481.739 335.361L484.004 401.728C484.004 401.728 451.77 413.225 432.257 413.225C412.743 413.225 421.919 340.904 421.919 340.904L481.739 335.361Z" fill="#FFD16D"/>
<path d="M432.256 413.666C429.918 413.666 427.874 412.681 426.154 410.725C421.227 405.138 418.948 391.656 419.375 370.676C419.698 355.106 421.463 340.977 421.492 340.845C421.522 340.639 421.683 340.477 421.889 340.463L481.71 334.92C481.827 334.92 481.945 334.949 482.048 335.023C482.136 335.096 482.195 335.214 482.195 335.346L484.459 401.713C484.459 401.904 484.342 402.08 484.165 402.139C483.842 402.257 451.638 413.666 432.271 413.666H432.256ZM422.316 341.315C421.742 346.094 415.845 397.714 426.815 410.152C428.359 411.902 430.183 412.784 432.256 412.784C450.476 412.784 480.224 402.58 483.548 401.419L481.313 335.846L422.316 341.315Z" fill="#4D3D38"/>
<path d="M434.506 194.63C418.934 223.564 397.935 218.33 397.935 218.33C375.862 209.729 361.231 219.903 356.599 213.434C320.248 226.446 313.41 240.34 305.469 261.011C291.499 294.753 282.353 341.551 268.589 361.267C261.971 370.735 306.072 371.279 306.072 371.279H461.902C469.857 371.279 491.533 366.589 505.958 363.252C514.267 361.326 519.884 353.607 519.164 345.123C515.546 303.016 494.635 223.873 488.342 216.83C476.195 203.231 453.049 200.731 434.521 194.63H434.506Z" fill="#FFD16D"/>
<path d="M461.887 371.72H306.058C304.631 371.705 271.28 371.22 267.78 364.428C267.236 363.369 267.383 362.222 268.221 361.031C276.368 349.372 282.882 328.172 289.794 305.721C294.514 290.401 299.381 274.567 305.058 260.864C313.175 239.722 319.998 226.078 356.437 213.037C356.628 212.978 356.834 213.037 356.937 213.199C358.849 215.86 362.657 215.478 368.407 214.89C375.716 214.14 385.715 213.125 398.082 217.933C398.082 217.933 403.302 219.168 410.287 216.904C416.758 214.816 426.154 209.215 434.11 194.424C434.212 194.233 434.433 194.145 434.639 194.218C439.389 195.777 444.535 197.144 449.535 198.452C464.284 202.334 479.534 206.348 488.651 216.551C491.753 220.036 498.4 240.604 505.165 267.73C512.591 297.502 517.987 326.422 519.59 345.094C520.326 353.739 514.517 361.737 506.047 363.693C490.209 367.353 469.681 371.72 461.887 371.72ZM356.437 213.963C320.616 226.843 313.881 240.31 305.881 261.173C300.22 274.846 295.352 290.666 290.647 305.956C283.721 328.48 277.177 349.74 268.957 361.517C268.31 362.428 268.192 363.251 268.589 364.001C269.515 365.795 273.706 368.265 288.456 369.779C297.382 370.706 305.999 370.809 306.087 370.823H461.902C470.019 370.823 492.93 365.81 505.856 362.81C513.885 360.958 519.414 353.357 518.708 345.153C515.164 303.971 494.327 224.196 488.004 217.124C479.063 207.112 463.946 203.143 449.315 199.29C444.432 198.011 439.389 196.688 434.727 195.159C426.654 209.994 417.125 215.625 410.523 217.742C403.288 220.065 398.053 218.801 397.832 218.742C385.612 213.978 375.73 214.993 368.525 215.728C362.849 216.301 358.717 216.728 356.452 213.949L356.437 213.963Z" fill="#4D3D38"/>
<path d="M381.289 351.152C381.878 351.181 382.216 351.828 381.922 352.342L371.466 369.647C368.393 375.969 337.13 379.292 299.308 377.116C261.046 374.911 230.092 367.898 228.415 361.193L220.504 343.933C220.063 342.962 220.813 341.874 221.871 341.948L310.47 347.461L381.304 351.152H381.289Z" fill="#B3CFE0"/>
<path d="M321.983 378.234C314.836 378.234 307.219 378.013 299.278 377.557C260.398 375.322 229.738 368.339 227.988 361.296L220.106 344.109C219.826 343.507 219.885 342.83 220.268 342.301C220.635 341.757 221.253 341.478 221.9 341.507L310.498 347.02L381.332 350.711C381.759 350.74 382.141 350.975 382.347 351.358C382.553 351.74 382.538 352.196 382.318 352.563L371.862 369.883C369.23 375.087 349.158 378.234 322.012 378.234H321.983ZM221.782 342.389C221.459 342.389 221.179 342.536 220.988 342.801C220.797 343.08 220.768 343.433 220.9 343.742L228.811 361.002C230.458 367.53 262.074 374.529 299.337 376.675C336.555 378.822 368.068 375.646 371.068 369.456L371.215 369.206L381.538 352.107C381.627 351.96 381.568 351.828 381.538 351.769C381.509 351.71 381.435 351.593 381.259 351.593L310.424 347.903L221.826 342.389C221.826 342.389 221.782 342.389 221.767 342.389H221.782Z" fill="#4D3D38"/>
<path d="M382.95 350.034C382.582 356.386 358.48 360.4 325.467 360.356C317.527 360.356 309.071 360.106 300.322 359.591C274.014 358.077 250.721 354.563 235.957 350.343C225.355 347.315 219.149 343.918 219.326 340.625C219.782 332.744 256.78 328.466 301.954 331.054C347.143 333.656 383.405 342.139 382.95 350.02V350.034Z" fill="#4D3D38"/>
<path d="M326.071 360.797H325.468C317.307 360.797 308.837 360.532 300.293 360.032C274.78 358.562 251.281 355.18 235.826 350.77C227.959 348.52 218.636 344.933 218.886 340.596C219.356 332.348 255.854 327.966 301.984 330.613C323.865 331.877 344.35 334.538 359.672 338.126C370.657 340.699 383.686 344.859 383.392 350.049C383.112 355.019 367.907 360.782 326.071 360.782V360.797ZM277.147 330.789C246.664 330.789 220.15 334.112 219.768 340.654C219.606 343.58 225.385 346.874 236.076 349.932C251.458 354.342 274.883 357.695 300.352 359.165C308.881 359.65 317.336 359.915 325.483 359.929H326.012C358.981 359.929 382.186 355.871 382.524 350.02C382.73 346.506 374.333 342.492 359.481 339.008C344.203 335.435 323.777 332.774 301.94 331.51C293.676 331.039 285.265 330.804 277.147 330.804V330.789Z" fill="#4D3D38"/>
<path d="M215.312 188.647L238.649 229.166C240.325 232.063 239.208 235.783 236.208 237.267C233.208 238.767 229.576 237.429 228.267 234.342L209.915 191.337C205.195 191.528 199.695 187.559 196.534 181.207C192.651 173.444 193.71 165.049 198.886 162.476C204.063 159.904 211.4 164.094 215.268 171.857C218.444 178.208 218.312 184.986 215.327 188.647H215.312Z" fill="#F7F2EA"/>
<path d="M233.606 238.34C232.885 238.34 232.15 238.208 231.444 237.958C229.812 237.355 228.532 236.149 227.841 234.547L209.607 191.807H209.563C204.607 191.807 199.24 187.676 196.108 181.412C194.196 177.575 193.387 173.473 193.843 169.856C194.314 166.166 196.019 163.417 198.652 162.093C201.284 160.77 204.519 161.064 207.754 162.917C210.93 164.725 213.724 167.842 215.636 171.679C218.768 177.957 218.827 184.75 215.827 188.705L239.017 228.975C239.885 230.489 240.09 232.238 239.59 233.9C239.091 235.561 237.958 236.914 236.399 237.693C235.517 238.134 234.561 238.355 233.606 238.355V238.34ZM209.901 190.91C210.077 190.91 210.239 191.013 210.313 191.175L228.665 234.179C229.253 235.561 230.356 236.605 231.753 237.12C233.164 237.634 234.664 237.546 236.002 236.884C237.341 236.223 238.311 235.061 238.752 233.62C239.179 232.194 239.017 230.68 238.267 229.386L214.93 188.866C214.842 188.705 214.857 188.514 214.974 188.367C217.915 184.764 217.871 178.06 214.871 172.047C213.033 168.371 210.357 165.387 207.342 163.667C204.372 161.976 201.445 161.682 199.078 162.873C196.71 164.049 195.166 166.563 194.755 169.959C194.314 173.414 195.093 177.34 196.931 181.015C199.931 187.029 205.269 191.101 209.901 190.91Z" fill="#4D3D38"/>
<path d="M160.3 270.892L186.813 265.937C186.813 265.937 204.327 245.192 207.062 232.607C208.533 225.799 213.503 210.229 223.12 215.243C223.12 215.243 224.944 212.494 228.355 210.156C231.517 207.995 235.869 209.45 237.016 213.096L241.796 228.225C242.634 230.857 241.443 233.724 238.987 234.974C233.237 237.914 231.061 239.546 225.105 252.293C222.194 258.542 212.43 278.831 207.65 289.519C205.724 293.842 201.871 296.988 197.239 297.988C183.843 300.899 157.771 306.177 156.947 303.384L160.3 270.862V270.892Z" fill="#FFB695"/>
<path d="M160.198 304.618C156.83 304.618 156.625 303.912 156.522 303.53L156.492 303.442L159.889 270.509L186.564 265.525C187.991 263.804 204.048 244.353 206.607 232.503C207.357 229.019 210.313 217.389 216.548 214.478C218.562 213.537 220.709 213.596 222.959 214.669C223.547 213.86 225.283 211.699 228.077 209.788C229.724 208.67 231.723 208.391 233.591 209.038C235.429 209.67 236.826 211.096 237.414 212.964L242.193 228.092C243.09 230.945 241.826 234.003 239.164 235.37C233.473 238.281 231.4 239.81 225.488 252.484C224.636 254.321 223.18 257.379 221.43 261.055C217.195 269.965 211.401 282.168 208.034 289.71C206.048 294.15 202.049 297.414 197.314 298.429C174.653 303.354 164.639 304.604 160.183 304.604L160.198 304.618ZM157.389 303.339C157.698 303.751 161.065 305.427 197.137 297.59C201.593 296.62 205.372 293.547 207.239 289.372C210.622 281.815 216.415 269.612 220.651 260.702C222.386 257.027 223.842 253.983 224.694 252.131C230.709 239.237 233.017 237.561 238.767 234.605C241.046 233.444 242.135 230.827 241.355 228.386L236.576 213.258C236.076 211.67 234.885 210.449 233.312 209.905C231.709 209.347 229.988 209.582 228.577 210.552C225.283 212.802 223.489 215.492 223.459 215.507L223.239 215.845L222.886 215.669C220.768 214.566 218.768 214.448 216.915 215.316C212.254 217.507 208.989 225.74 207.475 232.738C204.754 245.294 187.858 265.407 187.138 266.26L187.035 266.377L160.698 271.288L157.389 303.354V303.339Z" fill="#4D3D38"/>
<path d="M434.506 194.63C412.978 232.474 363.966 247.22 355.452 213.758L372.201 205.245C372.568 199.364 369.48 192.322 368.76 191.425C368.598 191.234 363.922 193.674 359.922 195.6C340.894 204.76 339.408 177.208 336.556 175.487C332.174 172.856 326.968 172.326 330.968 167.166C338.776 157.08 335.57 149.17 336.953 136.511C349.408 120.883 383.524 129.631 400.64 142.084L400.508 152.449C400.508 152.449 414.581 183.471 415.801 185.706C418.845 191.293 434.506 194.615 434.506 194.615V194.63Z" fill="#ED9062"/>
<path d="M379.568 232.841C378.098 232.841 376.642 232.753 375.23 232.562C364.907 231.165 357.731 224.534 355.011 213.861C354.967 213.655 355.055 213.449 355.231 213.361L371.745 204.966C371.995 199.585 369.392 193.321 368.525 191.91C367.834 192.175 365.76 193.204 363.907 194.115C362.672 194.733 361.334 195.394 360.084 195.997C355.717 198.1 351.864 198.452 348.658 197.056C342.556 194.409 339.968 186.117 338.247 180.633C337.541 178.354 336.865 176.208 336.306 175.87C335.38 175.311 334.409 174.855 333.483 174.414C331.365 173.4 329.527 172.532 329.145 170.915C328.88 169.797 329.336 168.518 330.6 166.901C336.027 159.888 336.041 154.022 336.071 146.597C336.071 143.451 336.085 140.202 336.497 136.467C336.497 136.379 336.541 136.305 336.585 136.247C349.114 120.515 383.583 129.145 400.876 141.745C400.994 141.834 401.053 141.966 401.053 142.113L400.92 152.375C401.758 154.228 414.993 183.382 416.169 185.514C419.096 190.851 434.418 194.174 434.58 194.203C434.713 194.233 434.83 194.321 434.889 194.453C434.948 194.586 434.933 194.733 434.874 194.85C422.287 216.977 398.788 232.856 379.554 232.856L379.568 232.841ZM355.952 213.978C358.672 224.211 365.363 230.327 375.348 231.68C394.759 234.297 420.346 218.183 433.816 194.924C430.875 194.248 418.213 191.057 415.405 185.926C414.184 183.706 400.67 153.904 400.097 152.64C400.067 152.581 400.053 152.522 400.053 152.449L400.185 142.319C383.127 130.013 349.599 121.559 337.365 136.688C336.982 140.319 336.968 143.51 336.953 146.597C336.924 153.89 336.909 160.182 331.292 167.43C330.218 168.812 329.806 169.871 329.998 170.694C330.292 171.9 331.939 172.694 333.865 173.605C334.821 174.061 335.791 174.532 336.762 175.105C337.571 175.59 338.115 177.237 339.1 180.368C340.762 185.705 343.291 193.762 349.011 196.247C351.982 197.541 355.584 197.188 359.702 195.203C360.966 194.6 362.29 193.939 363.525 193.321C368.745 190.734 368.775 190.748 369.084 191.145C369.863 192.116 372.995 199.232 372.613 205.26C372.613 205.421 372.51 205.554 372.378 205.627L355.952 213.978Z" fill="#4D3D38"/>
<path d="M445.255 385.614H1.76367V617.53H445.255V385.614Z" fill="#DCE8ED"/>
<path d="M445.271 617.97H1.76537C1.51539 617.97 1.32422 617.779 1.32422 617.529V385.614C1.32422 385.364 1.51539 385.173 1.76537 385.173H445.256C445.506 385.173 445.698 385.364 445.698 385.614V617.529C445.698 617.779 445.506 617.97 445.256 617.97H445.271ZM2.22123 617.088H444.83V386.055H2.20652V617.088H2.22123Z" fill="#4D3D38"/>
<path d="M429.772 470.108H220.65L223.033 532.696H429.139L429.772 470.108Z" fill="#B6D2E3"/>
<path d="M429.564 533.138H222.605L220.193 469.668H430.212L429.564 533.138ZM223.458 532.256H428.697L429.315 470.55H221.105L223.458 532.256Z" fill="#4D3D38"/>
<path d="M324.351 512.54C330.32 512.54 335.159 507.702 335.159 501.734C335.159 495.766 330.32 490.928 324.351 490.928C318.382 490.928 313.543 495.766 313.543 501.734C313.543 507.702 318.382 512.54 324.351 512.54Z" fill="#85A3D4"/>
<path d="M324.351 512.981C318.145 512.981 313.102 507.938 313.102 501.734C313.102 495.529 318.145 490.486 324.351 490.486C330.557 490.486 335.6 495.529 335.6 501.734C335.6 507.938 330.557 512.981 324.351 512.981ZM324.351 491.354C318.631 491.354 313.984 496 313.984 501.719C313.984 507.438 318.631 512.084 324.351 512.084C330.071 512.084 334.718 507.438 334.718 501.719C334.718 496 330.071 491.354 324.351 491.354Z" fill="#4D3D38"/>
<path d="M461.886 371.279H1.76367V385.614H461.886V371.279Z" fill="#B6D2E3"/>
<path d="M462.329 386.055H1.32422V370.838H462.329V386.055ZM2.20652 385.173H461.447V371.705H2.20652V385.173Z" fill="#4D3D38"/>
<path d="M57.129 317.469C54.2762 322.673 51.6881 327.525 50.1441 332.671C46.6737 344.257 66.6432 349.358 77.0544 355.519C85.0981 360.267 83.407 364.928 83.407 364.928L80.4218 317.483H57.1437L57.129 317.469Z" fill="#FFB695"/>
<path d="M83.3933 365.369C83.3933 365.369 83.3492 365.369 83.3345 365.369C83.1286 365.339 82.9668 365.163 82.9521 364.957L82.761 361.958C82.1581 360.326 80.5993 358.135 76.8054 355.9C74.3202 354.43 71.3204 353.033 68.1441 351.563C58.2035 346.947 46.9394 341.713 49.7039 332.553C51.2185 327.525 53.6743 322.849 56.733 317.277C56.8065 317.13 56.9535 317.042 57.1153 317.042H80.3934C80.6287 317.042 80.8199 317.218 80.8346 317.454L83.6286 361.811C84.2756 363.693 83.8344 364.986 83.805 365.089C83.7462 365.266 83.5697 365.383 83.3933 365.383V365.369ZM57.38 317.924C54.4095 323.364 52.0126 327.922 50.5568 332.803C48.0275 341.242 58.4534 346.079 68.5264 350.769C71.7174 352.254 74.7467 353.651 77.2613 355.151C79.9964 356.768 81.6434 358.385 82.6286 359.826L79.9817 317.924H57.38Z" fill="#4D3D38"/>
<path d="M200.018 617.559C200.018 617.559 216.856 617.53 218.282 617.53L181.607 437.749H70.0104L33.3359 617.53C34.777 617.53 51.732 617.309 51.732 617.309L60.5992 574.687H117.052L108.317 617.53C109.758 617.53 126.743 617.53 126.743 617.53L135.566 574.687H191.019L200.003 617.559H200.018ZM128.684 517.715H72.4515L77.863 491.722H133.992L128.684 517.715ZM141.992 452.496L137.154 476.24H81.0834L86.0243 452.496H141.992ZM63.8196 559.191L69.2311 533.197H125.522L120.214 559.191H63.8196ZM138.801 559.191L160.991 452.496H165.623L187.813 559.191H138.801Z" fill="#FFD16D"/>
<path d="M200.019 618C199.813 618 199.637 617.853 199.593 617.647L190.681 575.128H135.949L127.199 617.618C127.155 617.823 126.979 617.971 126.773 617.971H108.347C108.215 617.971 108.083 617.912 108.009 617.809C107.921 617.706 107.892 617.574 107.921 617.441L116.553 575.128H60.997L52.2034 617.397C52.1592 617.603 51.9828 617.75 51.7769 617.75C51.6004 617.75 34.8072 617.971 33.3808 617.971C33.2485 617.971 33.1161 617.912 33.0426 617.809C32.9544 617.706 32.925 617.574 32.9544 617.441L69.6289 437.66C69.673 437.455 69.8495 437.308 70.0553 437.308H181.638C181.843 437.308 182.035 437.455 182.064 437.66L218.739 617.441C218.768 617.574 218.739 617.706 218.65 617.809C218.562 617.912 218.444 617.971 218.312 617.971C216.871 617.971 200.048 618 200.048 618H200.019ZM135.581 574.246H191.034C191.24 574.246 191.416 574.393 191.461 574.598L200.372 617.118C202.622 617.118 214.812 617.088 217.739 617.088L181.241 438.19H70.3789L33.8808 617.088C36.8365 617.059 49.13 616.897 51.3799 616.868L60.1735 574.598C60.2176 574.393 60.3941 574.246 60.6 574.246H117.053C117.185 574.246 117.318 574.304 117.391 574.407C117.479 574.51 117.509 574.643 117.479 574.775L108.847 617.088H126.376L135.125 574.598C135.17 574.393 135.346 574.246 135.552 574.246H135.581ZM187.814 559.631H138.802C138.669 559.631 138.537 559.573 138.463 559.47C138.375 559.367 138.346 559.234 138.375 559.102L160.565 452.407C160.609 452.201 160.786 452.054 160.992 452.054H165.624C165.83 452.054 166.006 452.201 166.05 452.407L188.24 559.102C188.27 559.234 188.24 559.367 188.152 559.47C188.064 559.573 187.946 559.631 187.814 559.631ZM139.346 558.749H187.27L165.256 452.936H161.345L139.331 558.749H139.346ZM120.229 559.631H63.8351C63.7027 559.631 63.5704 559.573 63.4969 559.47C63.4086 559.367 63.3792 559.234 63.4086 559.102L68.8201 533.108C68.8642 532.903 69.0407 532.755 69.2466 532.755H125.538C125.67 532.755 125.802 532.814 125.876 532.917C125.964 533.02 125.994 533.152 125.964 533.285L120.656 559.279C120.611 559.484 120.435 559.631 120.229 559.631ZM64.3792 558.749H119.876L124.994 533.638H69.5995L64.3792 558.749ZM128.699 518.156H72.467C72.3346 518.156 72.2023 518.097 72.1288 517.994C72.0405 517.891 72.0111 517.759 72.0405 517.627L77.452 491.633C77.4961 491.427 77.6726 491.28 77.8784 491.28H134.008C134.14 491.28 134.272 491.339 134.346 491.442C134.434 491.545 134.464 491.677 134.434 491.809L129.126 517.803C129.082 518.009 128.905 518.156 128.699 518.156ZM73.0111 517.274H128.346L133.464 492.162H78.2314L73.0111 517.274ZM137.169 476.681H81.0989C80.9665 476.681 80.8342 476.622 80.7606 476.519C80.6724 476.416 80.643 476.284 80.6724 476.151L85.6133 452.407C85.6574 452.201 85.8339 452.054 86.0398 452.054H142.007C142.14 452.054 142.272 452.113 142.346 452.216C142.434 452.319 142.463 452.451 142.434 452.583L137.596 476.328C137.552 476.534 137.375 476.681 137.169 476.681ZM81.643 475.798H136.816L141.478 452.936H86.4074L81.6577 475.798H81.643Z" fill="#4D3D38"/>
<path d="M47.8071 436.572L54.498 434.573C52.351 434.234 43.8956 432.794 43.0721 434.793C41.3957 438.924 33.9549 443.365 31.8668 453.392C29.8669 463.022 16.7059 468.241 15.3971 465.109L15.0589 421.605C14.5442 414.768 20.8233 409.402 27.4994 410.975L49.7335 416.239L47.8071 436.572Z" fill="#F7F2EA"/>
<path d="M17.3958 466.462C16.1606 466.462 15.3224 466.051 14.9989 465.272C14.9842 465.213 14.9695 465.169 14.9695 465.11L14.6312 421.605C14.3813 418.239 15.7194 415.019 18.3075 412.799C20.8956 410.579 24.2925 409.77 27.6158 410.549L49.8499 415.813C50.0705 415.857 50.2029 416.063 50.1882 416.283L48.5706 433.397C50.144 433.5 52.0557 433.75 54.3203 434.102L54.585 434.147C54.7909 434.176 54.9379 434.352 54.9526 434.558C54.9673 434.764 54.835 434.955 54.6438 435.014L47.953 437.014C47.8059 437.058 47.6589 437.014 47.5412 436.925C47.4236 436.837 47.3648 436.69 47.3795 436.543L47.6001 434.235C44.3355 434.102 43.6297 434.646 43.4973 434.985C42.8797 436.499 41.5563 438.028 40.0269 439.778C37.1889 443.042 33.6596 447.085 32.3215 453.495C30.7039 461.258 22.1455 466.051 18.0134 466.433C17.8075 466.448 17.6017 466.462 17.4105 466.462H17.3958ZM15.8518 465.007C16.1018 465.463 16.837 465.654 17.9105 465.551C21.822 465.183 29.9245 460.64 31.4392 453.304C32.8214 446.673 36.4389 442.527 39.3505 439.189C40.8357 437.484 42.1151 436.014 42.6739 434.632C43.0709 433.647 44.6737 433.206 47.6736 433.338L49.2617 416.577L27.41 411.417C24.366 410.696 21.2632 411.446 18.881 413.475C16.4988 415.504 15.2783 418.459 15.5135 421.576L15.8518 465.007ZM48.4677 434.264L48.3059 435.955L52.4822 434.705C50.8793 434.47 49.5411 434.338 48.453 434.264H48.4677Z" fill="#4D3D38"/>
<path d="M74.4817 364.943C72.3642 386.879 67.291 403.757 67.291 403.757L36.1309 412.667C40.1012 424.326 41.4394 449.775 41.4394 449.775L103.465 428.972L126.655 358.753L74.4817 364.943Z" fill="#85A3D4"/>
<path d="M41.4393 450.231C41.3511 450.231 41.2628 450.202 41.1893 450.158C41.0717 450.084 40.9981 449.952 40.9981 449.819C40.9981 449.569 39.6306 424.296 35.719 412.828C35.6749 412.711 35.6896 412.593 35.7484 412.475C35.8072 412.372 35.8955 412.284 36.0131 412.255L66.9379 403.404C67.5408 401.302 72.0847 385.173 74.0405 364.898C74.0552 364.693 74.2169 364.531 74.4228 364.501L126.596 358.312C126.744 358.297 126.891 358.356 126.994 358.474C127.082 358.591 127.111 358.753 127.067 358.885L103.877 429.104C103.833 429.236 103.73 429.339 103.598 429.383L41.5716 450.187C41.5716 450.187 41.4834 450.216 41.4246 450.216L41.4393 450.231ZM36.7042 412.975C40.2188 423.737 41.6305 445.379 41.851 449.187L103.127 428.633L126.038 359.282L74.9081 365.34C72.7906 386.908 67.7908 403.727 67.732 403.889C67.6879 404.036 67.5702 404.139 67.4379 404.183L36.719 412.975H36.7042Z" fill="#4D3D38"/>
<path d="M123.317 444.938L121.493 452.642C120.993 454.76 122.023 456.95 123.964 457.921C127.89 459.876 134.551 463.096 139.727 465.228C143.271 466.683 144.462 471.197 141.992 474.123C140.404 475.99 137.948 476.46 132.272 476.46H100.524C93.6711 476.46 88.789 469.785 90.8624 463.258L97.7885 441.498L123.302 444.953L123.317 444.938Z" fill="#F7F2EA"/>
<path d="M132.273 476.887H100.524C97.1127 476.887 93.9953 475.313 91.9807 472.549C89.9661 469.8 89.4073 466.36 90.4366 463.11L97.3627 441.351C97.4215 441.145 97.6274 441.013 97.848 441.042L123.361 444.497C123.479 444.512 123.597 444.585 123.67 444.688C123.744 444.791 123.758 444.924 123.729 445.041L121.906 452.745C121.45 454.686 122.376 456.641 124.155 457.524C127.773 459.317 134.625 462.64 139.89 464.816C141.713 465.566 143.081 467.168 143.551 469.08C144.022 470.976 143.566 472.917 142.316 474.402C140.522 476.519 137.655 476.887 132.258 476.887H132.273ZM98.098 441.968L91.2895 463.375C90.3484 466.36 90.8631 469.506 92.7012 472.035C94.554 474.564 97.3921 476.004 100.524 476.004H132.273C138.052 476.004 140.243 475.49 141.654 473.828C142.713 472.564 143.096 470.917 142.713 469.285C142.301 467.609 141.154 466.271 139.566 465.625C134.273 463.449 127.405 460.111 123.773 458.317C121.626 457.259 120.509 454.877 121.067 452.539L122.788 445.306L98.1127 441.968H98.098Z" fill="#4D3D38"/>
<path d="M108.082 367.207L82.6426 455.98H130.243L154.418 366.104L108.082 367.207Z" fill="#85A3D4"/>
<path d="M130.244 456.421H82.6433C82.511 456.421 82.3786 456.362 82.2904 456.244C82.2022 456.127 82.1875 455.995 82.2169 455.862L107.657 367.089C107.716 366.898 107.877 366.78 108.068 366.766L154.389 365.663C154.522 365.678 154.654 365.722 154.742 365.825C154.831 365.928 154.86 366.075 154.816 366.207L130.641 456.083C130.582 456.274 130.42 456.406 130.214 456.406L130.244 456.421ZM83.2315 455.539H129.906L153.831 366.56L108.421 367.648L83.2315 455.553V455.539Z" fill="#4D3D38"/>
<path d="M81.3345 327.775C71.9674 327.495 59.8651 324.819 57.1152 317.468C68.2911 295.679 78.5112 278.301 101.333 274.317C128.906 269.509 144.963 292.445 144.963 292.445L143.287 343.153L81.3345 327.775Z" fill="#FC8C4C"/>
<path d="M143.286 343.594C143.286 343.594 143.212 343.594 143.183 343.594L81.2746 328.23C71.1869 327.922 59.4523 324.981 56.7024 317.645C56.6583 317.527 56.673 317.395 56.7171 317.292C68.0842 295.135 78.5983 277.86 101.244 273.905C128.757 269.097 145.154 291.974 145.315 292.209C145.374 292.283 145.404 292.386 145.389 292.474L143.712 343.183C143.712 343.315 143.639 343.433 143.536 343.521C143.462 343.58 143.36 343.609 143.271 343.609L143.286 343.594ZM57.5994 317.498C60.3346 324.305 71.6281 327.039 81.3482 327.333C81.3776 327.333 81.407 327.333 81.4364 327.333L142.86 342.58L144.521 292.577C143.227 290.827 127.36 270.215 101.406 274.758C79.1718 278.639 69.2017 294.915 57.5994 317.498Z" fill="#4D3D38"/>
<path d="M163.977 306.824L155.301 369.927C139.169 374.543 87.0102 373.411 70.364 368.457C69.3494 355.96 90.1865 299.091 90.1865 299.091" fill="#FC8C4C"/>
<path d="M119.685 373.249C100.539 373.249 79.7901 371.72 70.2465 368.897C70.07 368.838 69.9524 368.691 69.9377 368.515C68.923 356.062 88.9367 301.296 89.7896 298.973C89.8778 298.737 90.1278 298.62 90.3631 298.708C90.5984 298.796 90.716 299.046 90.6278 299.267C90.4219 299.825 70.1583 355.297 70.82 368.133C87.9073 373.043 139.125 373.925 154.933 369.588L163.565 306.765C163.594 306.53 163.83 306.353 164.065 306.383C164.3 306.412 164.477 306.633 164.447 306.883L155.771 369.985C155.742 370.162 155.624 370.294 155.463 370.353C148.595 372.308 134.655 373.249 119.714 373.249H119.685Z" fill="#4D3D38"/>
<path d="M98.1426 274.817C128.891 268.995 141.567 274.111 176.153 267.495C184.682 285.579 182.888 315.69 182.888 315.69C164.639 320.674 139.052 320.909 145.611 320.865" fill="#FC8C4C"/>
<path d="M145.095 321.306C144.904 321.306 144.757 321.306 144.624 321.306C144.154 321.277 144.124 321.189 144.124 320.88C144.124 320.571 144.198 320.483 144.61 320.424C144.786 320.409 145.022 320.395 145.345 320.38C160.05 319.63 173.226 317.851 182.475 315.352C182.637 312.102 183.681 284.815 175.917 267.995C158.227 271.347 146.257 271.641 134.669 271.921C123.581 272.185 113.097 272.435 98.2446 275.258C98.0093 275.288 97.774 275.141 97.7299 274.905C97.6858 274.67 97.8476 274.435 98.0828 274.391C113.009 271.568 123.523 271.318 134.64 271.039C146.257 270.759 158.285 270.465 176.079 267.069C176.285 267.04 176.476 267.128 176.564 267.319C185.049 285.3 183.358 315.425 183.328 315.734C183.328 315.925 183.181 316.087 183.005 316.131C173.77 318.66 160.594 320.468 145.86 321.247C145.639 321.394 145.316 321.321 145.11 321.321L145.095 321.306Z" fill="#4D3D38"/>
<path d="M344.716 598.931H284.852C282.47 598.931 280.176 601.033 279.705 603.635L280.543 617.529H349.025L348.187 603.635C348.643 601.033 347.084 598.931 344.716 598.931Z" fill="#F7C36C"/>
<path d="M349.025 617.971H280.543C280.308 617.971 280.117 617.794 280.102 617.559L279.264 603.665C279.764 600.769 282.264 598.505 284.837 598.505H344.701C345.907 598.505 346.966 598.99 347.716 599.872C348.539 600.857 348.878 602.269 348.613 603.724L349.451 617.515C349.451 617.633 349.422 617.75 349.333 617.839C349.245 617.927 349.128 617.971 349.01 617.971H349.025ZM280.955 617.089H348.554L347.745 603.665C347.966 602.357 347.701 601.225 347.039 600.431C346.466 599.755 345.642 599.372 344.701 599.372H284.837C282.661 599.372 280.558 601.313 280.131 603.71L280.94 617.089H280.955Z" fill="#4D3D38"/>
<path d="M319.35 598.931C315.674 596.005 318.468 592.976 315.674 589.168C312.38 584.669 308.718 578.48 313.747 564.586C311.483 557.441 309.88 552.221 308.909 549.001C308.468 547.546 309.821 546.208 311.086 546.855L325.732 555.573C325.732 555.573 336.879 554.971 345.275 553.427C346.216 553.25 388.229 523.86 418.786 523.86C449.328 523.86 479.959 545.296 479.959 602.445C508.34 602.445 527.986 582.023 518.104 559.22C506.516 532.505 519.781 525.713 529.692 527.36C537.235 528.624 536.294 539.533 530.353 538.916C522.957 538.136 523.692 546.34 527.574 553.103C534.839 565.762 532.78 581.758 528.648 592.315C522.663 607.576 507.59 617.382 481.165 617.382C461.254 617.382 438.829 617.382 438.829 617.382C438.829 617.382 432.726 588.801 419.007 588.801C407.448 588.801 389.949 606.988 358.863 592.976C353.628 590.624 347.599 590.786 342.819 593.961C340.422 595.549 337.996 597.299 336.173 598.945C331.526 598.945 319.35 598.945 319.35 598.945V598.931Z" fill="#F7F2EA"/>
<path d="M481.18 617.824H438.844C438.639 617.824 438.462 617.677 438.418 617.471C438.359 617.192 432.227 589.243 419.022 589.243C415.699 589.243 411.758 590.83 407.199 592.668C396.053 597.167 380.774 603.327 358.687 593.374C353.393 590.992 347.555 591.345 343.07 594.315C340.276 596.167 338.056 597.829 336.468 599.255C336.394 599.328 336.276 599.373 336.173 599.373H319.351C319.248 599.373 319.16 599.343 319.071 599.27C316.939 597.564 316.822 595.77 316.719 594.021C316.63 592.565 316.527 591.066 315.322 589.404C311.763 584.538 308.366 578.216 313.278 564.543C311.013 557.368 309.425 552.178 308.484 549.105C308.219 548.208 308.484 547.253 309.175 546.679C309.792 546.165 310.587 546.076 311.278 546.444L325.836 555.104C327.13 555.03 337.409 554.398 345.188 552.972C345.305 552.913 346.202 552.354 347.335 551.634C376.995 532.903 401.038 523.405 418.772 523.405C435.433 523.405 450.491 529.801 461.137 541.401C473.843 555.236 480.313 575.613 480.386 601.975C495.885 601.857 509.135 595.682 515.899 585.391C520.972 577.657 521.619 568.424 517.693 559.367C510.796 543.459 513.017 535.417 516.105 531.477C519.075 527.684 524.178 525.963 529.766 526.904C534.104 527.625 535.913 531.389 535.457 534.726C535.119 537.255 533.383 539.637 530.31 539.343C528.207 539.122 526.722 539.651 525.899 540.901C524.369 543.239 525.193 548.061 527.957 552.869C535.236 565.557 533.295 581.641 529.06 592.462C522.561 609.047 506.003 617.809 481.166 617.809L481.18 617.824ZM439.197 616.942H481.18C505.62 616.942 521.899 608.37 528.251 592.154C532.413 581.524 534.325 565.748 527.207 553.325C524.781 549.09 523.208 543.459 525.178 540.431C525.884 539.357 527.354 538.152 530.413 538.475C532.898 538.74 534.295 536.726 534.589 534.623C534.986 531.712 533.413 528.419 529.634 527.787C524.369 526.904 519.59 528.507 516.826 532.036C513.885 535.785 511.811 543.518 518.531 559.029C522.575 568.35 521.913 577.892 516.664 585.876C509.679 596.506 495.974 602.857 479.975 602.857C479.725 602.857 479.533 602.666 479.533 602.416C479.533 564.645 463.578 524.273 418.801 524.273C401.229 524.273 377.348 533.726 347.835 552.369C345.791 553.663 345.57 553.795 345.379 553.825C337.056 555.354 325.895 555.971 325.777 555.986C325.689 555.986 325.6 555.971 325.527 555.927L310.881 547.208C310.513 547.017 310.101 547.076 309.763 547.355C309.44 547.62 309.145 548.164 309.351 548.855C310.292 551.957 311.895 557.177 314.189 564.425C314.219 564.513 314.219 564.616 314.189 564.704C309.351 578.069 312.631 584.185 316.057 588.875C317.424 590.742 317.527 592.448 317.63 593.947C317.733 595.594 317.821 597.035 319.542 598.461H336.041C337.644 597.035 339.864 595.373 342.614 593.55C347.364 590.404 353.511 590.022 359.084 592.536C380.833 602.342 395.891 596.256 406.905 591.815C411.552 589.948 415.552 588.331 419.051 588.331C424.845 588.331 430.198 593.359 434.521 602.872C437.344 609.091 438.889 615.369 439.241 616.898L439.197 616.942Z" fill="#4D3D38"/>
<path d="M446.961 563.042C428.977 549.575 400.949 570.35 416.801 606.047C408.096 606.047 403.066 606.9 403.066 617.382C412.728 617.382 481.18 617.382 481.18 617.382" fill="#F7F2EA"/>
<path d="M481.18 617.824H403.066C402.816 617.824 402.625 617.633 402.625 617.383C402.625 606.724 407.948 605.665 416.124 605.606C407.125 584.788 413.022 570.071 421.624 563.219C429.374 557.044 439.417 556.838 447.226 562.675C447.417 562.822 447.461 563.102 447.314 563.293C447.167 563.484 446.887 563.528 446.696 563.381C439.226 557.779 429.594 557.985 422.168 563.91C413.742 570.629 408.007 585.17 417.198 605.871C417.257 606.003 417.242 606.165 417.168 606.297C417.08 606.43 416.948 606.503 416.801 606.503C407.904 606.503 403.64 607.547 403.522 616.957H481.194C481.444 616.957 481.635 617.148 481.635 617.398C481.635 617.648 481.444 617.839 481.194 617.839L481.18 617.824Z" fill="#4D3D38"/>
<path d="M366.51 575.069C368.098 588.257 377.201 591.61 377.392 599.093C377.583 606.577 375.26 607.121 368.966 607.121C362.672 607.121 361.113 612.899 361.113 617.383C371.172 617.383 383.347 617.383 383.347 617.383C389.553 612.781 400.582 597.99 402.405 584.185" fill="#F7F2EA"/>
<path d="M383.347 617.823H361.113C360.863 617.823 360.672 617.632 360.672 617.382C360.672 610.678 363.775 606.679 368.966 606.679C372.495 606.679 374.495 606.473 375.627 605.312C376.627 604.283 377.039 602.371 376.95 599.107C376.862 595.902 375.024 593.417 372.907 590.551C370.26 586.978 366.966 582.538 366.069 575.128C366.039 574.878 366.216 574.672 366.451 574.643C366.701 574.628 366.907 574.79 366.936 575.025C367.804 582.2 370.877 586.36 373.598 590.036C375.818 593.021 377.73 595.608 377.818 599.093C377.906 602.665 377.436 604.709 376.245 605.944C374.759 607.458 372.289 607.576 368.951 607.576C362.584 607.576 361.628 613.81 361.554 616.956H383.2C389.009 612.56 400.126 597.99 401.964 584.14C401.993 583.89 402.214 583.743 402.464 583.758C402.699 583.787 402.876 584.008 402.846 584.258C400.964 598.446 389.509 613.383 383.627 617.75C383.553 617.809 383.465 617.838 383.362 617.838L383.347 617.823Z" fill="#4D3D38"/>
<path d="M324.908 560.999L331.261 545.503C331.967 544.121 334.422 544.15 335.084 545.547L341.76 558.602" fill="#F7F2EA"/>
<path d="M324.909 561.44C324.909 561.44 324.792 561.44 324.748 561.41C324.527 561.322 324.409 561.058 324.512 560.837L330.865 545.341C331.277 544.517 332.159 544.062 333.218 544.047C334.247 544.062 335.115 544.561 335.497 545.355L342.158 558.396C342.276 558.617 342.188 558.882 341.967 558.985C341.747 559.087 341.482 559.014 341.379 558.793L334.703 545.738C334.424 545.135 333.747 544.929 333.203 544.914H333.174C332.497 544.914 331.909 545.223 331.659 545.694L325.321 561.16C325.248 561.337 325.086 561.44 324.909 561.44Z" fill="#4D3D38"/>
<path d="M317.602 594.917C320.072 594.859 323.484 594.329 324.998 594.432C325.586 594.476 325.484 595.741 325.131 596.255C324.484 597.196 323.263 598.519 323.263 598.519L319.366 598.931L317.602 594.917Z" fill="#4D3D38"/>
<path d="M325.35 586.772C329.114 585.434 333.349 579.671 334.496 577.024L325.35 586.772Z" fill="#F7F2EA"/>
<path d="M325.35 587.213C325.173 587.213 324.997 587.095 324.938 586.919C324.85 586.684 324.982 586.434 325.202 586.36C328.879 585.052 332.996 579.391 334.084 576.848C334.187 576.627 334.437 576.524 334.658 576.613C334.878 576.701 334.981 576.965 334.893 577.186C333.746 579.847 329.408 585.787 325.497 587.184C325.452 587.198 325.394 587.213 325.35 587.213Z" fill="#4D3D38"/>
<path d="M341.541 148.097C346.305 145.73 353.584 145.245 356.57 146.421L341.541 148.097Z" fill="#FFB695"/>
<path d="M341.541 148.539C341.38 148.539 341.218 148.45 341.144 148.289C341.041 148.068 341.13 147.803 341.35 147.7C346.247 145.275 353.644 144.789 356.732 146.01C356.952 146.098 357.07 146.348 356.982 146.583C356.894 146.804 356.629 146.921 356.408 146.833C353.541 145.716 346.365 146.201 341.747 148.494C341.688 148.524 341.615 148.539 341.556 148.539H341.541Z" fill="#4D3D38"/>
<path d="M381.951 149.126C391.156 139.319 397.48 143.127 397.818 149.861C397.95 152.419 397.23 155.389 396.274 158.124C394.539 163.123 396.833 168.607 401.612 170.871L410.67 174.017C425.346 138.599 411.288 98.6526 386.171 109.091C371.555 94.4771 340.997 101.387 326.836 115.046C316.763 124.764 318.807 138.467 333.307 140.363C344.188 141.025 354.526 133.012 362.261 129.395C365.937 137.364 369.863 149.611 381.951 149.126Z" fill="#4D3D38"/>
<path d="M410.92 174.562L401.464 171.283C396.421 168.916 394.024 163.197 395.847 157.977C396.965 154.772 397.479 152.052 397.362 149.891C397.215 146.921 395.876 144.686 393.788 143.922C390.788 142.819 386.583 144.833 382.26 149.435L382.142 149.568H381.965C370.892 150.053 366.525 140.158 363.04 132.233C362.702 131.454 362.363 130.704 362.04 129.984C360.261 130.837 358.349 131.91 356.32 133.057C349.423 136.924 341.6 141.275 333.277 140.805C326.895 139.967 322.336 136.732 320.748 131.925C318.954 126.485 321.16 119.898 326.527 114.723C339.968 101.755 370.878 93.5368 386.274 108.577C393.965 105.49 400.994 106.828 406.626 112.459C419.919 125.735 419.331 154.272 411.081 174.194L410.92 174.576V174.562ZM392.053 142.731C392.891 142.731 393.582 142.893 394.112 143.084C396.538 143.981 398.097 146.509 398.259 149.847C398.376 152.126 397.847 154.963 396.685 158.271C395.009 163.064 397.215 168.313 401.803 170.474L410.42 173.474C419.522 151.141 417.611 124.676 406.008 113.091C400.567 107.666 393.774 106.431 386.333 109.518L386.053 109.636L385.848 109.43C370.878 94.4777 340.394 102.608 327.13 115.385C322.013 120.31 319.895 126.558 321.572 131.675C323.071 136.218 327.248 139.158 333.35 139.952C341.394 140.437 349.085 136.13 355.879 132.322C358.07 131.087 360.143 129.925 362.055 129.028L362.452 128.837L362.643 129.234C363.04 130.087 363.422 130.984 363.834 131.895C367.187 139.526 371.334 149.053 381.73 148.715C386.274 143.922 389.73 142.76 392.038 142.76L392.053 142.731Z" fill="#4D3D38"/>
<path d="M343.703 160.153C343.703 160.153 343.57 160.139 343.497 160.109C343.276 159.992 343.203 159.727 343.306 159.521C344.879 156.492 347.085 154.581 349.555 154.14C351.452 153.802 353.393 154.375 354.864 155.713C355.04 155.875 355.055 156.154 354.893 156.331C354.731 156.507 354.452 156.522 354.276 156.36C352.996 155.199 351.335 154.713 349.717 154.993C347.541 155.39 345.541 157.125 344.1 159.903C344.026 160.05 343.864 160.139 343.703 160.139V160.153Z" fill="#4D3D38"/>
<path d="M416.478 335.818C416.287 335.818 416.096 335.685 416.052 335.479C415.993 335.244 416.14 335.009 416.376 334.95C431.978 331.025 464.976 320.659 469.211 319.321C462.182 300.929 454.212 271.803 454.138 271.509C454.079 271.274 454.212 271.024 454.447 270.965C454.682 270.892 454.918 271.039 454.991 271.274C455.065 271.568 463.152 301.105 470.211 319.439L470.373 319.88L469.932 320.027C469.564 320.145 433.228 331.627 416.596 335.803C416.567 335.803 416.523 335.803 416.493 335.803L416.478 335.818Z" fill="#4D3D38"/>
<path d="M338.07 335.053C337.835 335.053 337.644 334.877 337.629 334.627L335.32 284.844C335.32 284.595 335.497 284.389 335.747 284.389C335.997 284.389 336.203 284.565 336.203 284.815L338.511 334.597C338.511 334.847 338.335 335.053 338.085 335.053H338.07Z" fill="#4D3D38"/>
<path d="M161.137 445.879L141.462 451.451L136.109 477.695L139.212 491.971" fill="#FFD16D"/>
<path d="M141.228 452.466L136.258 476.578L141.228 452.466Z" fill="#FFD16D"/>
<path d="M136.257 477.034C136.257 477.034 136.198 477.034 136.169 477.034C135.933 476.99 135.772 476.755 135.83 476.519L140.801 452.407C140.845 452.172 141.08 452.025 141.315 452.069C141.551 452.113 141.713 452.349 141.654 452.584L136.683 476.696C136.639 476.902 136.463 477.049 136.257 477.049V477.034Z" fill="#4D3D38"/>
<path d="M251.075 369.104C250.766 369.162 250.443 369.206 250.119 369.236C250.443 369.192 250.751 369.148 251.075 369.104Z" fill="#ACDA72"/>
<path d="M429.772 396.553H220.65L223.033 459.141H429.139L429.772 396.553Z" fill="#B6D2E3"/>
<path d="M429.564 459.581H222.605L220.193 396.111H430.212L429.564 459.581ZM223.458 458.699H428.697L429.315 396.993H221.105L223.458 458.699Z" fill="#4D3D38"/>
<path d="M324.351 438.984C330.32 438.984 335.159 434.145 335.159 428.177C335.159 422.209 330.32 417.371 324.351 417.371C318.382 417.371 313.543 422.209 313.543 428.177C313.543 434.145 318.382 438.984 324.351 438.984Z" fill="#85A3D4"/>
<path d="M324.351 439.424C318.145 439.424 313.102 434.381 313.102 428.177C313.102 421.973 318.145 416.93 324.351 416.93C330.557 416.93 335.6 421.973 335.6 428.177C335.6 434.381 330.557 439.424 324.351 439.424ZM324.351 417.797C318.631 417.797 313.984 422.443 313.984 428.162C313.984 433.882 318.631 438.527 324.351 438.527C330.071 438.527 334.718 433.882 334.718 428.162C334.718 422.443 330.071 417.797 324.351 417.797Z" fill="#4D3D38"/>
<path d="M325.468 360.356C317.527 360.356 309.071 360.106 300.322 359.591C274.014 358.077 250.722 354.563 235.958 350.343C232.943 340.698 242.001 335.479 258.03 339.287C274.059 343.095 278.985 332.348 302.645 341.551C313.954 345.947 334.291 341.801 325.482 360.356H325.468Z" fill="#F7F2EA"/>
<path d="M325.467 360.796C317.306 360.796 308.835 360.532 300.292 360.032C274.778 358.562 251.28 355.18 235.825 350.769C235.678 350.725 235.575 350.622 235.531 350.475C234.384 346.785 234.898 343.609 237.045 341.316C240.663 337.434 248.353 336.537 258.118 338.86C264.676 340.419 269.338 339.507 274.264 338.552C281.41 337.155 288.822 335.714 302.792 341.139C305.777 342.301 309.438 342.859 312.982 343.403C319.247 344.374 325.158 345.271 327.276 349.27C328.673 351.916 328.217 355.592 325.864 360.546C325.79 360.693 325.629 360.796 325.467 360.796ZM236.31 349.99C251.706 354.357 275.014 357.709 300.351 359.164C308.777 359.649 317.144 359.899 325.188 359.914C327.305 355.371 327.732 352.019 326.496 349.681C324.585 346.079 318.879 345.197 312.85 344.271C309.262 343.712 305.542 343.153 302.483 341.948C288.748 336.611 281.484 338.022 274.455 339.404C269.426 340.389 264.661 341.316 257.926 339.713C248.618 337.493 241.06 338.316 237.707 341.918C235.825 343.933 235.354 346.711 236.31 349.99Z" fill="#4D3D38"/>
<path d="M300.631 354.166C300.631 356.121 299.499 357.929 297.572 359.429C285.911 358.694 274.882 357.562 265.001 356.15C264.736 355.504 264.604 354.842 264.604 354.151C264.604 348.932 272.677 344.697 282.617 344.697C292.558 344.697 300.631 348.932 300.631 354.151V354.166Z" fill="#FFD16D"/>
<path d="M297.573 359.885H297.544C286.103 359.165 275.133 358.062 264.943 356.607C264.781 356.592 264.663 356.489 264.59 356.342C264.295 355.636 264.148 354.916 264.148 354.181C264.148 348.726 272.427 344.286 282.603 344.286C292.779 344.286 301.058 348.726 301.058 354.181C301.058 356.21 299.941 358.15 297.838 359.797C297.764 359.856 297.661 359.885 297.573 359.885ZM265.325 355.769C275.383 357.195 286.177 358.283 297.441 358.989C299.25 357.533 300.191 355.872 300.191 354.166C300.191 349.197 292.309 345.154 282.618 345.154C272.927 345.154 265.045 349.197 265.045 354.166C265.045 354.695 265.134 355.239 265.325 355.754V355.769Z" fill="#4D3D38"/>
<path d="M375.422 363.12L421.199 359.444L411.464 341.948L382.951 350.035L375.422 363.12Z" fill="#B3CFE0"/>
<path d="M374.611 363.62L382.655 349.667L382.831 349.623L411.683 341.434L421.918 359.826L374.626 363.62H374.611ZM383.243 350.417L376.214 362.605L420.477 359.047L411.256 342.463L383.258 350.402L383.243 350.417Z" fill="#4D3D38"/>
<path d="M428.726 371.559C428.726 371.559 431.594 342.639 416.462 335.376C370.523 341.11 390.964 364.002 390.964 364.002C393.655 368.677 398.64 371.573 404.051 371.573H428.712L428.726 371.559Z" fill="#ED9062"/>
<path d="M428.728 371.999H404.068C398.524 371.999 393.362 369.015 390.598 364.207C390.377 363.972 383.863 356.547 386.716 348.931C389.407 341.756 399.391 337.052 416.42 334.935C416.508 334.935 416.596 334.935 416.67 334.979C422.993 338.022 427.155 345.329 428.713 356.135C429.875 364.236 429.184 371.544 429.169 371.617C429.14 371.838 428.963 372.014 428.728 372.014V371.999ZM416.39 335.831C399.803 337.919 390.098 342.433 387.539 349.255C384.863 356.371 391.23 363.634 391.303 363.707C393.965 368.309 398.832 371.132 404.053 371.132H428.316C428.581 367.647 429.978 342.521 416.39 335.846V335.831Z" fill="#4D3D38"/>
<path d="M548.56 617.97H1.76537C1.51539 617.97 1.32422 617.779 1.32422 617.529V196.071C1.32422 195.924 1.39774 195.791 1.51538 195.718L274.913 0.0879297C275.06 -0.014987 275.265 -0.014987 275.427 0.0879297L548.81 195.718C548.927 195.806 549.001 195.938 549.001 196.071V617.515C549.001 617.765 548.81 617.956 548.56 617.956V617.97ZM2.20652 617.088H548.118V196.306L275.163 0.984775L2.20652 196.306V617.088Z" fill="#4D3D38"/>
<path d="M147.29 124.019C159.507 112.795 161.558 95.1506 151.87 84.6097C142.182 74.0688 124.424 74.6229 112.207 85.8473C99.99 97.0717 97.9395 114.716 107.627 125.257C117.315 135.798 135.073 135.244 147.29 124.019Z" fill="#A1CF73"/>
<path d="M125.626 133.263C118.082 133.263 111.406 130.337 106.818 125.029C102.171 119.648 100.245 112.503 101.363 104.872C103.657 89.2877 118.229 76.6143 133.831 76.6143C141.375 76.6143 148.051 79.54 152.639 84.8476C157.286 90.2287 159.212 97.3887 158.095 105.005C155.801 120.589 141.228 133.263 125.626 133.263ZM133.846 77.4964C118.656 77.4964 104.48 89.8317 102.245 105.005C101.157 112.37 103.024 119.281 107.495 124.456C111.906 129.572 118.347 132.38 125.626 132.38C140.816 132.38 154.992 120.045 157.227 104.872C158.315 97.5063 156.448 90.5962 151.977 85.421C147.566 80.3046 141.125 77.4964 133.846 77.4964Z" fill="#4D3D38"/>
<path d="M145.346 92.9485L123.082 121.853L113.406 107.915C112.053 105.96 113.45 103.284 115.832 103.284H115.95C116.906 103.284 117.803 103.755 118.362 104.534L123.406 111.665L140.684 89.3464C141.258 88.6113 142.125 88.1849 143.052 88.1996C145.493 88.229 146.846 91.0224 145.36 92.9485H145.346Z" fill="#F7F2EA"/>
<path d="M123.081 122.294C122.934 122.294 122.816 122.221 122.728 122.103L113.052 108.165C112.317 107.106 112.243 105.798 112.832 104.651C113.435 103.504 114.552 102.828 115.831 102.828H115.949C117.052 102.828 118.081 103.357 118.714 104.254L123.419 110.9L140.33 89.052C140.977 88.2139 142.036 87.6993 143.051 87.7287C144.345 87.7287 145.506 88.4786 146.065 89.6401C146.624 90.8015 146.492 92.1689 145.697 93.1833L123.434 122.088C123.346 122.191 123.228 122.265 123.081 122.265V122.294ZM115.831 103.725C114.876 103.725 114.052 104.225 113.611 105.078C113.17 105.916 113.229 106.886 113.773 107.68L123.096 121.118L144.992 92.6981C145.58 91.9336 145.683 90.9486 145.256 90.0664C144.83 89.199 143.992 88.655 143.021 88.655C142.256 88.6844 141.492 89.0078 141.007 89.6253L123.728 111.944C123.64 112.061 123.507 112.105 123.375 112.12C123.243 112.12 123.11 112.046 123.022 111.929L117.978 104.798C117.508 104.137 116.743 103.74 115.934 103.74H115.817L115.831 103.725Z" fill="#4D3D38"/>
<path d="M125.904 197.159C125.728 197.159 125.566 197.056 125.493 196.88L119.096 180.443C119.008 180.222 119.125 179.958 119.346 179.869C119.581 179.781 119.831 179.899 119.919 180.119L126.316 196.557C126.404 196.777 126.287 197.042 126.066 197.13C126.007 197.145 125.963 197.159 125.904 197.159Z" fill="#4D3D38"/>
<path d="M113.921 207.01C113.789 207.01 113.657 206.951 113.583 206.848L104.245 195.204C104.098 195.013 104.128 194.733 104.319 194.586C104.51 194.439 104.789 194.469 104.936 194.66L114.274 206.304C114.421 206.495 114.392 206.774 114.201 206.921C114.112 206.98 114.024 207.024 113.921 207.024V207.01Z" fill="#4D3D38"/>
<path d="M86.3629 225.74C86.2158 225.74 86.0688 225.666 85.9806 225.519C85.8482 225.314 85.9217 225.034 86.1276 224.917C107.965 211.773 124.67 198.849 137.213 185.426C137.375 185.25 137.654 185.235 137.831 185.411C138.007 185.573 138.022 185.852 137.845 186.029C125.243 199.511 108.479 212.478 86.5688 225.666C86.4952 225.711 86.4217 225.725 86.3482 225.725L86.3629 225.74Z" fill="#4D3D38"/>
<path d="M339.967 184.442C345.996 183.883 351.084 179.546 351.084 179.546L339.967 184.442Z" fill="#0E6C48"/>
<path d="M339.968 184.883C339.747 184.883 339.556 184.707 339.526 184.486C339.497 184.236 339.688 184.03 339.923 184.001C345.747 183.457 350.746 179.252 350.805 179.208C350.996 179.046 351.276 179.075 351.423 179.252C351.585 179.443 351.555 179.722 351.379 179.869C351.173 180.046 346.114 184.295 340.012 184.868C340.012 184.868 339.982 184.868 339.968 184.868V184.883Z" fill="#4D3D38"/>
<path d="M431.991 606.708H412.125C411.875 606.708 411.684 606.517 411.684 606.267C411.684 606.017 411.875 605.826 412.125 605.826H431.991C432.241 605.826 432.433 606.017 432.433 606.267C432.433 606.517 432.241 606.708 431.991 606.708Z" fill="#4D3D38"/>
</g>
<defs>
<clipPath id="clip0_14355_201">
<rect width="549" height="618" fill="white"/>
</clipPath>
</defs>
</svg>
