<svg width="526" height="594" viewBox="0 0 526 594" fill="none" xmlns="http://www.w3.org/2000/svg">
<g clip-path="url(#clip0_14346_3408)">
<path d="M525.581 188.29L255.187 0.419922L0.419922 188.29V593.021H525.581V188.29Z" fill="#F3E6D6"/>
<path d="M219.555 520.463H139.128V592.797H219.555V520.463Z" fill="#FC8C4C"/>
<path d="M219.974 593.231H138.708V520.058H219.974V593.231ZM139.547 592.392H219.135V520.897H139.547V592.392Z" fill="#4D3D38"/>
<path d="M118.619 474.185C97.8724 376.047 67.039 273.672 55.8472 237.645C54.8959 234.554 59.0229 232.82 61.0934 235.435C84.9179 265.728 144.542 354.579 132.735 472.674" fill="#30995B"/>
<path d="M118.619 474.604C118.423 474.604 118.255 474.464 118.213 474.268C97.6762 377.123 67.4863 276.51 55.4552 237.77C54.9935 236.274 55.5671 234.847 56.9241 234.134C58.1832 233.477 60.1277 233.518 61.4288 235.169C86.8901 267.56 144.864 355.53 133.168 472.702C133.14 472.939 132.944 473.107 132.706 473.079C132.469 473.051 132.301 472.856 132.329 472.618C143.996 355.739 86.1766 267.993 60.7713 235.686C59.764 234.4 58.2811 234.372 57.3158 234.875C56.5324 235.281 55.8469 236.19 56.2666 237.518C68.2977 276.273 98.5016 376.914 119.039 474.1C119.08 474.324 118.941 474.548 118.717 474.604C118.689 474.604 118.661 474.604 118.633 474.604H118.619Z" fill="#4D3D38"/>
<path d="M142.066 448.129C106.882 364.453 187.673 330.789 187.673 330.789C187.673 330.789 161.33 365.851 162.547 439.863" fill="#0E6C48"/>
<path d="M142.065 448.549C141.898 448.549 141.744 448.451 141.674 448.298C131.028 422.984 129.922 399.697 138.372 379.082C152.166 345.447 187.154 330.552 187.504 330.398C187.672 330.328 187.882 330.384 187.994 330.524C188.106 330.678 188.106 330.888 187.994 331.028C187.728 331.377 161.763 366.845 162.952 439.836C162.952 440.074 162.77 440.256 162.546 440.256C162.323 440.256 162.127 440.074 162.127 439.85C161.05 374.159 181.922 338.692 186.469 331.769C179.894 334.888 151.243 349.852 139.142 379.39C130.776 399.781 131.895 422.858 142.443 447.948C142.527 448.158 142.443 448.409 142.219 448.493C142.163 448.521 142.107 448.521 142.051 448.521L142.065 448.549Z" fill="#4D3D38"/>
<path d="M132.273 459.612C95.34 371.726 128.426 273.924 128.426 273.924C128.426 273.924 164.659 357.013 146.486 458.199" fill="#0E6C48"/>
<path d="M132.273 460.031C132.105 460.031 131.951 459.933 131.881 459.779C112.771 414.298 112.743 366.145 116.073 333.768C119.696 298.692 127.936 274.035 128.02 273.784C128.076 273.616 128.23 273.504 128.398 273.504C128.566 273.504 128.733 273.602 128.803 273.756C129.167 274.581 164.883 358.117 146.892 458.269C146.85 458.493 146.64 458.66 146.402 458.604C146.179 458.562 146.025 458.353 146.067 458.115C162.924 364.285 132.511 285.07 128.468 275.126C126.859 280.231 120.088 303 116.912 333.866C113.583 366.145 113.61 414.13 132.651 459.444C132.734 459.653 132.651 459.905 132.427 459.989C132.371 460.017 132.315 460.017 132.259 460.017L132.273 460.031Z" fill="#4D3D38"/>
<path d="M158.937 488.324C143.94 396.242 119.094 300.188 110.015 266.399C109.232 263.504 113.485 261.868 115.387 264.329C137.435 292.748 215.288 393.165 196.584 503.96" fill="#30995B"/>
<path d="M196.584 504.366C196.584 504.366 196.542 504.366 196.514 504.366C196.29 504.324 196.136 504.114 196.164 503.876C204.096 456.87 195.591 406.256 170.885 353.418C151.005 310.916 125.81 278.441 115.052 264.567C114.114 263.35 112.604 263.336 111.596 263.84C110.813 264.232 110.085 265.071 110.407 266.273C120.172 302.636 144.486 397.068 159.343 488.24C159.385 488.464 159.231 488.688 158.994 488.716C158.756 488.758 158.546 488.604 158.518 488.366C143.675 397.221 119.361 302.832 109.61 266.483C109.232 265.085 109.876 263.756 111.233 263.085C112.534 262.441 114.492 262.469 115.723 264.05C126.495 277.938 151.733 310.468 171.654 353.055C196.444 406.046 204.964 456.828 197.004 504.002C196.976 504.212 196.794 504.352 196.584 504.352V504.366Z" fill="#4D3D38"/>
<path d="M109.777 471.877C89.674 403.892 50.3208 336.649 34.6104 311.307C32.9316 308.608 36.1912 305.825 38.8632 307.671C64.6463 325.503 126.901 378.285 124.928 471.22" fill="#AAD872"/>
<path d="M109.777 472.297C109.595 472.297 109.428 472.185 109.372 472.003C89.3244 404.228 50.1671 337.209 34.2608 311.531C33.4214 310.188 33.6032 308.636 34.7084 307.587C35.7017 306.636 37.4504 306.189 39.1012 307.335C65.6817 325.727 127.306 378.495 125.348 471.234C125.348 471.471 125.152 471.667 124.914 471.639C124.676 471.639 124.495 471.443 124.509 471.206C126.467 378.872 65.0941 326.314 38.6256 308.007C37.3665 307.14 36.0375 307.461 35.282 308.175C34.6385 308.79 34.2188 309.867 34.9742 311.07C50.8946 336.761 90.1078 403.865 110.183 471.737C110.253 471.961 110.127 472.199 109.903 472.255C109.861 472.255 109.819 472.269 109.791 472.269L109.777 472.297Z" fill="#4D3D38"/>
<path d="M60.8555 395.124C60.8555 395.124 94.8785 441.626 116.171 485.01C129.111 485.457 131.755 471.584 143.199 467.905C116.856 403.348 86.4847 380.635 86.4847 380.635" fill="#30995B"/>
<path d="M116.772 485.429C116.562 485.429 116.352 485.429 116.142 485.429C115.989 485.429 115.849 485.332 115.779 485.192C94.7521 442.354 60.841 395.837 60.5052 395.376C60.3653 395.194 60.4073 394.928 60.6032 394.788C60.785 394.648 61.0508 394.69 61.1907 394.886C61.5265 395.348 95.3537 441.752 116.436 484.604C116.548 484.604 116.66 484.604 116.772 484.604C123.515 484.604 127.32 480.534 131.349 476.227C134.511 472.842 137.785 469.36 142.639 467.654C116.688 404.285 86.5401 381.194 86.2323 380.97C86.0505 380.83 86.0085 380.565 86.1484 380.383C86.2883 380.201 86.5541 380.159 86.736 380.299C87.0438 380.523 117.499 403.823 143.59 467.752C143.632 467.863 143.632 467.975 143.59 468.087C143.534 468.199 143.45 468.269 143.338 468.311C138.442 469.877 135.154 473.402 131.979 476.8C127.824 481.248 123.879 485.443 116.8 485.443L116.772 485.429Z" fill="#4D3D38"/>
<path d="M41.5492 460.787C27.0559 422.9 36.6109 383.977 54.8535 383.977L86.3304 380.635C86.3304 380.635 86.3723 380.663 86.3584 380.663C83.6583 381.768 38.0658 401.208 41.5492 460.773V460.787Z" fill="#AAD872"/>
<path d="M41.5493 461.206C41.3814 461.206 41.2276 461.108 41.1576 460.94C30.1337 432.088 33.2114 404.145 41.955 391.446C45.5084 386.299 49.9571 383.572 54.8535 383.572L86.2885 380.229C86.4983 380.187 86.7222 380.355 86.7641 380.565C86.8201 380.775 86.7082 380.998 86.5123 381.068C84.5538 381.865 38.4856 401.278 41.969 460.773C41.969 460.982 41.8431 461.164 41.6333 461.206C41.6053 461.206 41.5773 461.206 41.5493 461.206ZM83.9382 381.32L54.8955 384.411C50.2509 384.411 46.026 387.012 42.6405 391.935C34.2747 404.089 31.1969 430.452 41.0037 458.115C39.255 406.83 74.4672 385.991 83.9382 381.334V381.32Z" fill="#4D3D38"/>
<path d="M171.99 314.091L122.243 311.657L109.582 553.218L152.265 558.477L188.358 337.517C186.176 323.195 172.774 328.566 171.99 314.105V314.091Z" fill="#B4D0E1"/>
<path d="M152.264 558.882C152.264 558.882 152.236 558.882 152.208 558.882L109.526 553.623C109.302 553.595 109.148 553.399 109.162 553.19L121.823 311.629C121.823 311.391 122.033 311.237 122.256 311.237L172.004 313.671C172.214 313.671 172.396 313.853 172.396 314.062C172.787 321.209 176.327 323.349 180.062 325.615C183.797 327.88 187.658 330.216 188.764 337.446C188.764 337.488 188.764 337.53 188.764 337.572L152.67 558.532C152.642 558.742 152.46 558.882 152.25 558.882H152.264ZM110.015 552.84L151.915 558.001L187.938 337.502C186.889 330.719 183.196 328.482 179.642 326.328C175.935 324.09 172.116 321.769 171.598 314.482L122.634 312.09L110.015 552.84Z" fill="#4D3D38"/>
<path d="M78.6221 592.797C81.6578 558.295 110.505 566.812 111.162 517.457L158.252 515.387L151.201 593.147L78.6221 592.797Z" fill="#F1ECE4"/>
<path d="M151.187 593.566L78.6082 593.216C78.4962 593.216 78.3843 593.16 78.3004 593.076C78.2165 592.993 78.1885 592.881 78.1885 592.755C79.5455 577.259 86.0507 570.378 92.9337 563.105C101.509 554.042 110.365 544.672 110.729 517.428C110.729 517.204 110.91 517.022 111.134 517.008L158.224 514.938C158.35 514.938 158.462 514.98 158.546 515.064C158.629 515.148 158.671 515.274 158.657 515.386L151.607 593.146C151.593 593.356 151.411 593.524 151.187 593.524V593.566ZM79.0698 592.391L150.795 592.727L157.776 515.834L111.554 517.861C111.106 545.12 102.181 554.56 93.5352 563.707C86.8201 570.797 80.4828 577.51 79.0558 592.391H79.0698Z" fill="#4D3D38"/>
<path d="M63.9329 552.378H91.3388C91.3388 552.378 98.4316 518.575 98.4316 490.086C98.4316 474.786 88.4289 468.842 76.104 468.842C63.779 468.842 53.7764 476.66 53.7764 490.086C53.7764 525.498 63.9329 552.378 63.9329 552.378Z" fill="#30995B"/>
<path d="M91.3392 552.798H63.9473C63.7795 552.798 63.6116 552.686 63.5556 552.532C63.4577 552.267 53.3711 525.176 53.3711 490.1C53.3711 477.345 62.7302 468.437 76.1184 468.437C90.5698 468.437 98.8657 476.324 98.8657 490.1C98.8657 518.309 91.8289 552.141 91.7589 552.477C91.7169 552.672 91.5491 552.812 91.3532 552.812L91.3392 552.798ZM64.2271 551.959H90.9895C91.717 548.365 98.0123 516.701 98.0123 490.086C98.0123 482.31 95.1724 469.262 76.1044 469.262C63.2059 469.262 54.1965 477.821 54.1965 490.086C54.1965 523.135 63.1779 549.036 64.2271 551.959Z" fill="#4D3D38"/>
<path d="M86.1065 593.133H63.8628C53.9441 593.133 45.9 585.091 45.9 575.175L45.9 545.721H104.069V575.175C104.069 585.091 96.0252 593.133 86.1065 593.133Z" fill="#FC8C4C"/>
<path d="M86.1067 593.552H63.863C53.7204 593.552 45.4805 585.301 45.4805 575.175V545.302H104.489V575.175C104.489 585.315 96.2352 593.552 86.1067 593.552ZM46.3199 546.141V575.175C46.3199 584.853 54.1961 592.713 63.863 592.713H86.1067C95.7876 592.713 103.65 584.839 103.65 575.175V546.141H46.3199Z" fill="#4D3D38"/>
<path d="M458.318 551.064C473.231 518.058 484.549 519.834 493.614 518.771C503.057 517.666 511.101 503.807 493.054 499.443C481.779 496.716 468.53 504.352 468.53 504.352C468.53 504.352 477.484 489.611 497.475 484.562C512.682 480.716 512.011 464.059 496.65 461.598C481.289 459.136 467.719 473.723 467.719 473.723C467.719 473.723 472.028 451.276 461.382 443.179C452.596 436.493 433.962 439.067 433.136 460.577C432.871 467.402 433.906 473.094 433.906 473.094C433.906 473.094 421.049 456.395 403.506 462.745C390.23 467.556 394.077 481.415 409.312 487.429C420.42 491.821 424.099 497.247 425.414 503.219C425.414 503.219 408.822 491.08 396.399 497.849C387.936 502.464 391.391 513.541 403.086 518.897C419.133 526.226 429.457 550.407 429.457 550.407L458.304 551.064H458.318Z" fill="#AAD872"/>
<path d="M458.317 551.483L429.471 550.826C429.303 550.826 429.163 550.728 429.093 550.574C428.995 550.336 418.642 526.463 402.932 519.274C396.063 516.127 391.502 510.729 391.321 505.498C391.209 502.114 392.943 499.274 396.217 497.484C407.059 491.568 421.091 499.848 424.77 502.253C423.539 497.736 420.363 492.24 409.171 487.82C400.484 484.38 394.916 478.212 395 472.114C395.07 467.751 398.036 464.282 403.366 462.352C418.265 456.954 429.932 468.044 433.276 471.709C432.982 469.569 432.534 465.317 432.716 460.562C433.08 451.178 436.913 444.311 443.516 441.192C449.308 438.451 456.765 439.15 461.633 442.856C466.082 446.241 468.614 452.688 468.95 461.485C469.131 466.212 468.628 470.478 468.334 472.534C471.678 469.345 483.597 459.094 496.705 461.191C503.882 462.338 508.68 466.772 508.932 472.492C509.184 478.268 504.735 483.177 497.573 484.981C481.61 489.009 472.657 499.414 469.859 503.19C473.692 501.274 483.975 496.827 493.152 499.051C500.468 500.813 504.511 504.505 504.232 509.162C503.938 513.959 499.097 518.561 493.655 519.19C492.914 519.274 492.159 519.344 491.389 519.414C482.883 520.183 472.293 521.134 458.695 551.231C458.625 551.385 458.471 551.483 458.317 551.483ZM429.75 550.001L458.052 550.644C471.803 520.351 482.618 519.372 491.319 518.589C492.089 518.519 492.83 518.449 493.557 518.365C498.538 517.778 503.126 513.456 503.392 509.12C503.546 506.645 502.385 502.142 492.956 499.876C481.974 497.219 468.88 504.659 468.74 504.743C468.572 504.841 468.362 504.813 468.236 504.673C468.096 504.533 468.082 504.323 468.18 504.155C468.264 504.002 477.455 489.205 497.377 484.17C504.134 482.464 508.345 477.89 508.107 472.534C507.869 467.233 503.35 463.107 496.593 462.031C481.638 459.653 468.18 473.89 468.04 474.03C467.914 474.17 467.704 474.198 467.537 474.114C467.369 474.03 467.285 473.848 467.313 473.667C467.355 473.443 471.44 451.374 461.129 443.528C456.499 440.003 449.392 439.346 443.88 441.961C437.571 444.94 433.919 451.555 433.57 460.604C433.318 467.303 434.325 472.967 434.325 473.023C434.353 473.219 434.255 473.401 434.087 473.485C433.905 473.569 433.709 473.513 433.584 473.359C433.458 473.191 420.699 456.982 403.659 463.149C398.679 464.954 395.895 468.142 395.839 472.128C395.755 477.792 401.239 483.792 409.479 487.051C419.188 490.883 424.238 495.848 425.833 503.135C425.875 503.302 425.805 503.484 425.651 503.582C425.497 503.68 425.316 503.666 425.176 503.582C425.008 503.456 408.654 491.666 396.609 498.254C393.615 499.89 392.034 502.463 392.146 505.498C392.314 510.407 396.693 515.54 403.268 518.547C418.391 525.47 428.589 547.441 429.736 550.029L429.75 550.001Z" fill="#4D3D38"/>
<path d="M443.964 593.105H451.728C463.675 593.413 466.124 588.867 467.704 573.791L470.125 550.519H417.062L421.552 576.336C423.847 589.511 423.413 592.699 433.947 593.091C434.157 593.091 443.754 593.105 443.964 593.105Z" fill="#FFB695"/>
<path d="M453.029 593.538C452.596 593.538 452.162 593.538 451.714 593.524H443.95C443.824 593.524 441.39 593.524 438.956 593.524C435.906 593.524 434.045 593.524 433.933 593.524C423.945 593.161 423.413 590 421.664 579.553C421.497 578.574 421.329 577.539 421.133 576.42L416.642 550.602C416.614 550.476 416.642 550.35 416.74 550.252C416.824 550.155 416.936 550.099 417.062 550.099H470.125C470.237 550.099 470.363 550.155 470.433 550.238C470.517 550.322 470.545 550.448 470.545 550.56L468.124 573.832C466.418 590.28 462.78 593.538 453.043 593.538H453.029ZM443.964 592.685H451.728C463.494 592.979 465.732 588.699 467.285 573.748L469.663 550.952H417.565L421.972 576.266C422.168 577.385 422.336 578.434 422.504 579.413C424.253 589.846 424.672 592.335 433.961 592.671C434.087 592.671 436.522 592.671 438.956 592.671C441.95 592.671 443.796 592.671 443.964 592.671V592.685Z" fill="#4D3D38"/>
<path d="M189.239 320.943L188.33 328.426L190.792 328.985L189.239 320.943Z" fill="#B4D0E1"/>
<path d="M190.792 329.405C190.792 329.405 190.736 329.405 190.694 329.405L188.232 328.86C188.022 328.818 187.882 328.608 187.91 328.398L188.819 320.902C188.847 320.692 189.015 320.538 189.225 320.538C189.435 320.566 189.617 320.678 189.645 320.874L191.197 328.915C191.225 329.055 191.183 329.195 191.071 329.293C190.988 329.377 190.89 329.405 190.778 329.405H190.792ZM188.791 328.104L190.26 328.426L189.337 323.629L188.791 328.09V328.104Z" fill="#4D3D38"/>
<path d="M281.838 593.119C281.838 593.119 308.39 510.352 308.894 491.639C309.537 467.822 320.169 446.815 325.933 432.312C337.279 403.809 317.273 368.537 317.273 368.537C315.371 364.202 311.706 361.474 307.061 363.335C302.416 365.195 303.368 371.194 304.445 373.894C322.016 412.005 309.076 435.347 294.904 454.004L280.956 453.696C269.023 453.43 257.09 454.563 245.422 457.095L209.021 464.982C197.13 467.556 181.713 475.402 169.01 454.997C158.098 437.473 141.898 430.718 141.898 430.718L141.716 442.605C141.716 442.605 133.029 445.976 130.608 453.57C129.503 457.025 124.411 460.647 121.935 462.241C121.109 462.773 120.634 463.724 120.746 464.689C123.376 486.227 141.52 474.213 143.857 483.611C149.844 507.765 158.518 515.723 158.518 515.723L148.04 571.567C146.809 574.169 142.29 579.567 142.29 579.567C137.715 582.378 134.917 587.357 134.917 592.728L152.908 592.896C155.818 592.924 158.42 591.077 159.371 588.322L178.859 531.666L200.123 549.036C205.146 553.26 208.405 559.204 209.245 565.707L210.532 575.749C210.938 578.868 209.86 581.987 207.622 584.196L207.16 584.658C204.894 586.896 203.817 590.084 204.264 593.245L227.11 593.119L221.374 527.163L254.725 522.506L276.605 548.155C279.445 551.498 280.369 556.057 279.012 560.239L274.479 574.239C273.709 576.63 272.241 578.728 270.268 580.281L269.051 581.246C265.735 583.861 263.819 587.959 264.252 592.154C263.987 592.154 264.336 592.965 264.252 592.154" fill="#F1ECE4"/>
<path d="M204.306 593.623C204.097 593.623 203.915 593.469 203.887 593.259C203.425 589.987 204.544 586.644 206.895 584.322L207.356 583.861C209.483 581.763 210.532 578.742 210.14 575.777L208.853 565.735C208.028 559.316 204.838 553.484 199.886 549.33L179.083 532.338L159.791 588.42C158.798 591.329 156.056 593.273 152.992 593.273H152.922L134.931 593.105C134.708 593.105 134.512 592.924 134.512 592.686C134.512 587.231 137.394 582.071 142.024 579.204C142.486 578.644 146.487 573.791 147.662 571.4L158.084 515.834C156.797 514.562 149.033 506.114 143.465 483.681C142.612 480.241 139.506 479.905 135.561 479.486C129.503 478.842 121.977 478.031 120.34 464.703C120.2 463.598 120.746 462.479 121.711 461.85C123.907 460.437 129.14 456.787 130.217 453.402C132.455 446.354 139.786 442.927 141.311 442.284L141.479 430.676C141.479 430.536 141.549 430.41 141.674 430.326C141.786 430.256 141.94 430.242 142.066 430.284C142.234 430.354 158.518 437.291 169.374 454.731C180.188 472.101 192.779 468.745 203.901 465.794C205.663 465.332 207.314 464.885 208.937 464.535L245.338 456.647C257.02 454.116 269.009 452.955 280.97 453.235L294.708 453.542C309.593 433.92 320.967 410.676 304.067 374.034C302.682 370.551 302.305 364.747 306.907 362.901C311.3 361.139 315.427 363.223 317.665 368.327C317.847 368.649 337.615 404.061 326.339 432.424C325.416 434.745 324.366 437.221 323.261 439.85C317.288 454.032 309.859 471.668 309.313 491.611C308.81 510.17 282.495 592.378 282.243 593.217C282.173 593.441 281.935 593.553 281.712 593.483C281.488 593.413 281.376 593.175 281.446 592.952C281.712 592.126 307.984 510.03 308.488 491.583C309.034 471.486 316.504 453.766 322.492 439.515C323.597 436.885 324.646 434.41 325.555 432.102C336.691 404.117 317.12 369.041 316.91 368.691C314.825 363.936 311.216 362.076 307.215 363.67C302.71 365.474 303.969 371.516 304.837 373.684C321.96 410.816 310.349 434.326 295.24 454.2C295.156 454.311 295.044 454.381 294.89 454.367L280.942 454.06C269.051 453.808 257.132 454.941 245.506 457.458L209.105 465.346C207.496 465.696 205.845 466.129 204.097 466.605C193.269 469.486 179.782 473.066 168.647 455.179C159.078 439.808 145.256 432.718 142.29 431.319L142.122 442.563C142.122 442.731 142.01 442.885 141.856 442.941C141.772 442.969 133.323 446.326 131 453.64C129.881 457.151 124.985 460.717 122.159 462.535C121.459 462.983 121.068 463.794 121.165 464.577C122.718 477.248 129.573 477.975 135.631 478.633C139.562 479.052 143.269 479.444 144.263 483.458C150.138 507.177 158.714 515.275 158.798 515.359C158.91 515.457 158.952 515.597 158.924 515.751L148.445 571.595C148.445 571.595 148.431 571.665 148.417 571.693C147.172 574.309 142.794 579.553 142.612 579.777C142.584 579.819 142.542 579.847 142.514 579.861C138.205 582.504 135.491 587.217 135.351 592.252L152.922 592.42C155.636 592.49 158.098 590.728 158.994 588.126L178.481 531.47C178.523 531.345 178.635 531.247 178.761 531.205C178.887 531.163 179.041 531.205 179.139 531.289L200.403 548.659C205.524 552.966 208.825 558.98 209.665 565.61L210.952 575.651C211.371 578.868 210.238 582.155 207.916 584.448L207.454 584.91C205.37 586.966 204.334 589.875 204.642 592.77L226.662 592.644L220.968 527.135C220.954 526.911 221.108 526.715 221.332 526.687L254.683 522.03C254.823 522.002 254.963 522.058 255.061 522.17L276.941 547.82C279.865 551.246 280.816 556.015 279.431 560.295L274.899 574.295C274.101 576.77 272.59 578.924 270.548 580.532L269.331 581.497C266.071 584.071 264.294 588.099 264.7 592.028C264.728 592.28 264.756 592.644 264.462 592.798C264.308 592.868 264.099 592.84 263.973 592.728C263.791 592.56 263.721 592.21 263.805 591.973C263.805 591.945 263.833 591.917 263.847 591.889C263.497 587.749 265.386 583.525 268.813 580.826L270.03 579.861C271.947 578.35 273.346 576.337 274.101 574.029L278.634 560.029C279.935 556.029 279.04 551.554 276.312 548.351L254.586 522.883L221.864 527.457L227.571 593.021C227.571 593.133 227.543 593.259 227.459 593.343C227.376 593.427 227.264 593.483 227.152 593.483L204.306 593.609V593.623Z" fill="#4D3D38"/>
<path d="M134.147 456.395C138.163 450.996 142.429 455.709 142.429 455.709L134.147 456.395Z" fill="#F1ECE4"/>
<path d="M134.148 456.815C134.064 456.815 133.966 456.787 133.896 456.731C133.714 456.591 133.672 456.325 133.812 456.144C135.113 454.395 136.596 453.472 138.205 453.388C140.737 453.221 142.667 455.346 142.751 455.43C142.905 455.598 142.891 455.864 142.723 456.018C142.555 456.171 142.29 456.158 142.136 455.99C142.122 455.976 140.429 454.102 138.247 454.227C136.904 454.297 135.644 455.109 134.497 456.633C134.413 456.745 134.287 456.801 134.162 456.801L134.148 456.815Z" fill="#4D3D38"/>
<path d="M123.487 465.122C126.201 475.835 134.008 468.185 134.008 468.185L123.487 465.122Z" fill="#F1ECE4"/>
<path d="M128.538 471.248C128.146 471.248 127.74 471.206 127.349 471.094C125.362 470.534 123.935 468.563 123.082 465.22C123.026 464.996 123.166 464.772 123.389 464.716C123.613 464.66 123.837 464.8 123.893 465.024C124.663 468.045 125.894 469.821 127.572 470.283C130.412 471.08 133.686 467.919 133.714 467.877C133.882 467.709 134.148 467.723 134.301 467.877C134.469 468.045 134.455 468.311 134.301 468.465C134.176 468.59 131.434 471.234 128.538 471.234V471.248Z" fill="#4D3D38"/>
<path d="M123.991 468.688L124.788 460.786L120.605 463.052L123.991 468.688Z" fill="#4D3D38"/>
<path d="M525.58 593.441H0.419692C0.181867 593.441 0 593.259 0 593.021V188.289C0 188.149 0.0699487 188.038 0.167877 187.954L254.935 0.0839141C255.075 -0.0279714 255.271 -0.0279714 255.425 0.0839141L525.818 187.954C525.93 188.038 526 188.163 526 188.303V593.035C526 593.273 525.818 593.455 525.58 593.455V593.441ZM0.839384 592.601H525.161V188.513L255.187 0.937041L0.839384 188.499V592.601Z" fill="#4D3D38"/>
<path d="M156.013 214.414L113.568 305.475L266.91 349.404L264.35 335.922" fill="#F1ECE4"/>
<path d="M266.911 349.824C266.911 349.824 266.827 349.823 266.799 349.809L113.457 305.88C113.345 305.853 113.247 305.769 113.191 305.657C113.135 305.545 113.135 305.419 113.191 305.307L155.636 214.246C155.734 214.036 155.986 213.953 156.196 214.05C156.406 214.148 156.49 214.4 156.406 214.61L114.171 305.223L266.393 348.831L263.959 336.02C263.917 335.796 264.071 335.572 264.294 335.53C264.518 335.502 264.742 335.642 264.784 335.866L267.344 349.348C267.372 349.488 267.316 349.642 267.218 349.74C267.134 349.81 267.036 349.851 266.939 349.851L266.911 349.824Z" fill="#4D3D38"/>
<path d="M153.775 253.127L104.475 255.966C83.4068 257.281 74.6632 236.945 79.3218 213.953C82.2176 199.701 93.6193 191.702 101.705 186.359C152.852 161.129 199.144 144.962 234.734 173.408L272.534 193.758C324.716 209.282 375.946 343.446 345.77 345.6C315.58 347.754 241.421 332.663 241.421 332.663" fill="#F1ECE4"/>
<path d="M339.251 346.23C306.361 346.23 242.022 333.223 241.323 333.084C241.099 333.042 240.945 332.818 241.001 332.594C241.043 332.37 241.267 332.216 241.491 332.272C242.232 332.426 315.944 347.307 345.728 345.195C350.513 344.859 353.324 341.055 354.108 333.881C355.899 317.517 346.274 285.63 330.703 256.344C312.698 222.499 291.448 199.828 272.408 194.164L234.524 173.773C218.1 160.668 198.36 156.221 174.102 160.165C149.97 164.081 124.047 175.787 101.873 186.723C92.6118 192.835 82.4552 200.527 79.7132 214.023C76.8873 227.967 79.0977 240.778 85.6449 248.288C90.2055 253.519 96.6968 256.036 104.433 255.547L153.733 252.708C153.971 252.708 154.167 252.876 154.181 253.099C154.181 253.337 154.013 253.533 153.789 253.547L104.489 256.386C96.4869 256.876 89.7579 254.274 85.0293 248.848C78.3143 241.142 76.02 228.065 78.9018 213.87C81.9376 198.905 94.6403 190.513 101.467 186.01C157.048 158.598 200.99 145.913 234.985 173.087L272.73 193.395C316.755 206.485 358.515 301.336 354.947 333.965C354.122 341.475 350.96 345.643 345.784 346.02C343.783 346.16 341.601 346.23 339.251 346.23Z" fill="#4D3D38"/>
<path d="M458.304 482.044L328.577 488.492C327.486 487.457 328.521 493.568 328.521 499.834C328.521 506.1 333.599 510.925 339.867 510.603L349.31 510.128L336.453 592.825L348.093 593.566L371.54 509.023L413.663 506.925L439.558 592.797L451.295 592.559L436.452 505.792L447.965 505.219C454.233 504.911 459.311 499.582 459.311 493.317C459.311 487.051 458.304 482.03 458.304 482.03V482.044Z" fill="#FFD16D"/>
<path d="M348.093 594H348.065L336.425 593.245C336.314 593.245 336.202 593.175 336.132 593.091C336.062 592.993 336.02 592.881 336.048 592.77L348.82 510.59L339.895 511.037C336.733 511.191 333.781 510.114 331.557 507.988C329.333 505.877 328.116 502.981 328.116 499.835C328.116 497.429 327.962 495.024 327.836 493.08C327.598 489.359 327.556 488.283 328.144 488.003C328.255 487.947 328.465 487.891 328.717 488.059L458.276 481.611C458.5 481.639 458.668 481.737 458.71 481.947C458.71 482.003 459.731 487.094 459.731 493.317C459.731 499.541 454.457 505.317 447.98 505.639L436.942 506.184L451.701 592.49C451.715 592.616 451.701 592.728 451.617 592.826C451.533 592.923 451.421 592.979 451.295 592.979L439.558 593.217C439.32 593.217 439.208 593.105 439.152 592.923L413.355 507.359L371.861 509.429L348.499 593.679C348.443 593.86 348.289 593.986 348.093 593.986V594ZM336.943 592.448L347.785 593.147L371.134 508.925C371.176 508.758 371.344 508.632 371.512 508.618L413.635 506.52C413.845 506.52 413.999 506.632 414.055 506.814L439.866 592.378L450.792 592.154L436.032 505.863C436.018 505.751 436.032 505.625 436.116 505.527C436.186 505.429 436.298 505.373 436.424 505.373L447.938 504.8C453.981 504.506 458.892 499.345 458.892 493.317C458.892 488.115 458.178 483.709 457.954 482.464L328.605 488.898C328.605 488.898 328.563 488.898 328.535 488.898C328.437 489.555 328.563 491.317 328.661 493.024C328.787 494.968 328.941 497.401 328.941 499.835C328.941 502.744 330.074 505.429 332.131 507.373C334.187 509.331 336.929 510.338 339.853 510.184L349.296 509.709C349.436 509.709 349.548 509.751 349.632 509.848C349.716 509.946 349.758 510.072 349.73 510.198L336.943 592.434V592.448Z" fill="#4D3D38"/>
<path d="M346.848 424.829L355.367 487.037L424.547 483.667L432.381 425.361" fill="#FFB695"/>
<path d="M355.367 487.457C355.157 487.457 354.975 487.303 354.947 487.093L346.413 424.885C346.385 424.661 346.539 424.437 346.777 424.41C347.001 424.382 347.225 424.535 347.253 424.773L355.731 486.604L424.168 483.275L431.961 425.305C431.989 425.081 432.198 424.913 432.436 424.941C432.66 424.969 432.828 425.179 432.8 425.416L424.952 483.737C424.924 483.933 424.756 484.086 424.56 484.1L355.381 487.471H355.367V487.457Z" fill="#4D3D38"/>
<path d="M438.452 400.48C438.452 396.592 435.305 393.445 431.416 393.445H348.554C344.665 393.445 341.518 396.592 341.518 400.48V417.011C341.518 418.214 341.839 419.319 342.371 420.312C344.316 426.158 364.964 430.745 390.202 430.745C416.726 430.745 438.229 425.668 438.229 419.417C438.229 419.263 438.159 419.123 438.131 418.969C438.313 418.34 438.438 417.696 438.438 417.011V400.48H438.452Z" fill="#FFB695"/>
<path d="M390.216 431.164C364.74 431.164 344.008 426.549 341.979 420.437C341.405 419.374 341.098 418.2 341.098 417.011V400.48C341.098 396.368 344.441 393.025 348.554 393.025H431.415C435.528 393.025 438.872 396.368 438.872 400.48V417.011C438.872 417.626 438.774 418.256 438.578 418.969C438.578 418.983 438.578 418.997 438.578 419.011C438.606 419.123 438.648 419.249 438.648 419.402C438.648 425.99 417.37 431.15 390.202 431.15L390.216 431.164ZM348.554 393.865C344.903 393.865 341.937 396.83 341.937 400.48V417.011C341.937 418.06 342.203 419.109 342.748 420.102C344.665 425.864 365.51 430.311 390.216 430.311C414.921 430.311 437.823 425.318 437.823 419.402C437.823 419.374 437.809 419.304 437.781 419.249C437.753 419.179 437.739 419.095 437.725 419.025C437.725 418.969 437.725 418.899 437.725 418.843C437.921 418.158 438.019 417.57 438.019 417.011V400.48C438.019 396.83 435.053 393.865 431.401 393.865H348.54H348.554Z" fill="#4D3D38"/>
<path d="M390.37 408.242C417.018 408.242 438.62 403.095 438.62 396.746C438.62 390.397 417.018 385.25 390.37 385.25C363.722 385.25 342.119 390.397 342.119 396.746C342.119 403.095 363.722 408.242 390.37 408.242Z" fill="#FFB695"/>
<path d="M390.37 408.662C363.076 408.662 341.699 403.431 341.699 396.746C341.699 390.061 363.076 384.83 390.37 384.83C417.663 384.83 439.04 390.061 439.04 396.746C439.04 403.431 417.663 408.662 390.37 408.662ZM390.37 385.655C364.447 385.655 342.539 390.732 342.539 396.732C342.539 402.732 364.447 407.809 390.37 407.809C416.292 407.809 438.2 402.732 438.2 396.732C438.2 390.732 416.292 385.655 390.37 385.655Z" fill="#4D3D38"/>
<path d="M381.556 407.711C398.525 308.762 302.976 293.434 302.976 293.434C302.976 293.434 340.118 324.622 357.326 404.662" fill="#30995B"/>
<path d="M381.556 408.13C381.556 408.13 381.514 408.13 381.486 408.13C381.263 408.088 381.109 407.879 381.137 407.641C386.229 377.949 381.64 352.873 367.511 333.111C346.89 304.287 311.874 295.685 304.347 294.133C310.67 300.119 342.357 333.069 357.732 404.578C357.774 404.802 357.634 405.026 357.41 405.081C357.186 405.137 356.962 404.984 356.906 404.76C339.923 325.769 303.06 294.077 302.696 293.755C302.556 293.63 302.5 293.434 302.584 293.266C302.668 293.098 302.85 293 303.032 293.028C303.452 293.098 344.889 300.077 368.182 332.622C382.466 352.579 387.096 377.865 381.962 407.795C381.92 408.004 381.752 408.144 381.542 408.144L381.556 408.13Z" fill="#4D3D38"/>
<path d="M393.392 407.683C416.684 307.419 369.665 203.953 369.665 203.953C369.665 203.953 346.358 298.888 379.206 407.683" fill="#30995B"/>
<path d="M379.205 408.102C379.024 408.102 378.856 407.99 378.8 407.808C346.288 300.147 369.021 204.806 369.259 203.855C369.301 203.687 369.455 203.548 369.622 203.534C369.804 203.52 369.972 203.617 370.042 203.771C370.154 204.037 381.919 230.12 390.663 268.119C398.735 303.196 405.842 355.894 393.797 407.767C393.741 407.99 393.517 408.13 393.293 408.074C393.069 408.018 392.929 407.794 392.985 407.571C405.003 355.852 397.91 303.293 389.852 268.301C382.157 234.889 372.141 210.722 369.79 205.268C367.244 216.764 349.169 306.748 379.611 407.543C379.681 407.767 379.555 408.004 379.331 408.06C379.289 408.06 379.247 408.074 379.205 408.074V408.102Z" fill="#4D3D38"/>
<path d="M412.697 406.494C438.522 282.861 429.429 143.927 429.429 143.927C429.429 143.927 376.17 272.273 398.512 406.494" fill="#30995B"/>
<path d="M412.697 406.913C412.697 406.913 412.641 406.913 412.613 406.913C412.39 406.871 412.236 406.648 412.292 406.41C436.186 291.979 430.073 162.863 429.135 145.829C426.253 153.157 415.048 183.045 406.01 224.974C396.427 269.518 387.404 337.153 398.931 406.424C398.973 406.648 398.819 406.871 398.582 406.899C398.358 406.941 398.134 406.788 398.092 406.55C386.536 337.153 395.574 269.392 405.185 224.764C415.593 176.429 428.911 144.066 429.051 143.745C429.121 143.563 429.317 143.465 429.513 143.493C429.709 143.521 429.849 143.689 429.863 143.885C429.947 145.269 438.662 284.287 413.117 406.564C413.075 406.76 412.907 406.899 412.711 406.899L412.697 406.913Z" fill="#4D3D38"/>
<path d="M428.981 403.767C454.806 310.216 457.94 214.75 457.94 214.75C457.94 214.75 391.88 304.93 414.222 406.494" fill="#30995B"/>
<path d="M414.208 406.914C414.012 406.914 413.845 406.774 413.803 406.578C402.247 354.006 414.768 304.58 427.303 272.371C440.887 237.477 457.423 214.708 457.59 214.485C457.702 214.331 457.898 214.275 458.066 214.331C458.234 214.387 458.36 214.555 458.346 214.736C458.318 215.687 454.918 311.322 429.373 403.851C429.317 404.075 429.079 404.214 428.856 404.145C428.632 404.089 428.506 403.851 428.562 403.627C452.386 317.335 456.919 228.344 457.451 216.121C453.953 221.156 439.893 242.316 428.072 272.679C415.579 304.776 403.1 354.02 414.614 406.382C414.67 406.606 414.516 406.83 414.292 406.886C414.264 406.886 414.236 406.886 414.208 406.886V406.914Z" fill="#4D3D38"/>
<path d="M368.154 239.309C399.967 302.93 389.125 407.053 389.125 407.053C401.52 408.214 411.187 408.032 416.811 405.851L438.942 323.405C438.942 323.405 441.195 255.812 409.074 198.247L368.154 239.295V239.309Z" fill="#B4D0E1"/>
<path d="M402.443 408.2C398.581 408.2 394.133 407.962 389.068 407.487C388.956 407.487 388.859 407.417 388.789 407.333C388.719 407.249 388.691 407.137 388.691 407.025C388.719 406.759 391.391 380.62 390.132 347.054C388.984 316.09 384.158 272.301 367.762 239.505C367.678 239.337 367.706 239.155 367.846 239.015L408.766 197.967C408.864 197.869 408.99 197.827 409.116 197.855C409.242 197.869 409.368 197.953 409.423 198.065C441.236 255.057 439.375 322.761 439.348 323.433L417.202 405.962C417.174 406.088 417.076 406.2 416.95 406.242C413.606 407.543 408.808 408.186 402.443 408.186V408.2ZM389.572 406.689C402.429 407.878 411.228 407.501 416.446 405.543L438.536 323.307C438.536 322.733 440.383 255.644 408.976 198.946L368.671 239.379C377.737 257.616 388.915 291.042 390.999 347.013C392.16 378.312 389.922 403.165 389.586 406.661L389.572 406.689Z" fill="#4D3D38"/>
<path d="M369.805 193.506C361.691 199.926 316.672 234.848 294.848 251.77C297.702 242.778 292.665 233.197 283.642 230.456L212.896 208.918V208.988C208.098 206.96 202.767 206.009 197.158 206.415C181.153 207.548 167.863 220.149 165.932 236.079C163.736 254.204 175.837 269.938 192.443 273.518L189.547 282.679C186.721 291.616 191.688 301.14 200.627 303.951L255.131 321.014C264.028 323.797 273.514 318.874 276.339 309.993L286.65 277.546L357.34 217.757C352.751 229.212 363.23 245.267 363.23 245.267L409.438 195.492C402.555 188.275 380.605 185.017 369.791 193.52L369.805 193.506ZM195.661 263.379C184.637 261.477 176.243 251.854 176.243 240.316C176.243 227.379 186.735 216.89 199.662 216.89C203.229 216.89 206.629 217.687 209.65 219.142L195.661 263.393V263.379Z" fill="#FFD16D"/>
<path d="M260.461 322.93C258.754 322.93 257.006 322.678 255.299 322.132L200.795 305.07C196.36 303.685 192.737 300.65 190.596 296.525C188.456 292.399 188.036 287.7 189.449 283.266L192.219 274.539C175.012 270.595 163.68 254.428 165.821 236.736C167.793 220.485 181.083 207.855 197.423 206.695C202.907 206.303 208.195 207.156 213.134 209.212C213.19 209.198 213.26 209.198 213.316 209.212L284.062 230.75C288.538 232.107 292.19 235.141 294.372 239.281C296.345 243.043 296.876 247.281 295.897 251.365C317.987 234.176 359.257 200.401 366.601 194.317C375.527 186.933 387.32 185.856 395.378 187.324C402.317 188.583 407.675 191.744 410.109 195.982C410.207 196.135 410.179 196.345 410.053 196.471L363.845 246.246C363.761 246.344 363.621 246.386 363.495 246.372C363.37 246.372 363.244 246.288 363.174 246.19C362.754 245.561 353.451 231.1 356.738 219.757L287.293 278.483L277.011 310.818C274.675 318.189 267.806 322.916 260.447 322.916L260.461 322.93ZM199.983 207.464C199.158 207.464 198.319 207.492 197.479 207.548C181.783 208.653 168.535 221.254 166.646 236.848C164.533 254.26 175.795 270.148 192.835 273.826C192.947 273.854 193.045 273.924 193.114 274.022C193.17 274.12 193.184 274.245 193.156 274.357L190.261 283.518C188.932 287.728 189.309 292.203 191.352 296.133C193.394 300.049 196.85 302.944 201.061 304.259L255.565 321.321C264.224 324.035 273.5 319.209 276.241 310.566L286.566 278.12C286.594 278.05 286.636 277.98 286.692 277.924L357.382 218.135C357.536 218.009 357.746 218.009 357.9 218.121C358.053 218.233 358.109 218.443 358.039 218.61C354.01 228.666 361.971 242.582 363.607 245.281L409.228 196.135C406.85 192.233 401.771 189.338 395.224 188.15C387.362 186.723 375.834 187.758 367.133 194.975C359.676 201.142 317.231 235.883 295.407 252.805C295.268 252.917 295.058 252.917 294.904 252.805C294.75 252.694 294.694 252.512 294.75 252.33C296.093 248.092 295.701 243.589 293.631 239.659C291.56 235.729 288.077 232.834 283.824 231.547L213.26 210.065C213.176 210.093 213.092 210.093 213.008 210.065C208.881 208.317 204.516 207.436 199.983 207.436V207.464ZM195.94 264.525C195.94 264.525 195.898 264.525 195.87 264.525C184.413 262.553 176.103 252.666 176.103 241.043C176.103 227.897 186.791 217.198 199.941 217.198C203.523 217.198 206.936 217.967 210.112 219.492C210.294 219.575 210.392 219.799 210.336 219.995L196.346 264.246C196.29 264.428 196.122 264.539 195.94 264.539V264.525ZM199.941 218.023C187.253 218.023 176.942 228.344 176.942 241.029C176.942 252.134 184.791 261.574 195.647 263.616L209.413 220.065C206.447 218.708 203.257 218.009 199.941 218.009V218.023Z" fill="#4D3D38"/>
<path d="M278.564 278.511C279.515 278.511 280.396 278.357 281.236 278.483C293.841 280.203 294.638 309.14 286.118 314.818C277.039 320.874 232.16 347.586 233.923 326.916C235.685 306.245 238.203 279.015 278.55 278.511H278.564Z" fill="#FFB695"/>
<path d="M241.156 335.055C239.253 335.055 237.616 334.719 236.343 333.964C234.175 332.691 233.237 330.3 233.531 326.873C235.266 306.496 237.658 278.609 278.578 278.091C278.9 278.091 279.208 278.063 279.515 278.049C280.145 278.007 280.732 277.98 281.32 278.049C286.021 278.693 289.644 283.154 291.295 290.287C293.379 299.322 291.896 311.475 286.384 315.139C286.049 315.363 255.789 335.027 241.17 335.027L241.156 335.055ZM278.578 278.931C238.414 279.434 236.063 306.902 234.357 326.943C234.091 330.062 234.874 332.132 236.763 333.237C245.982 338.691 277.865 319.811 285.895 314.454C290.539 311.349 292.68 300.161 290.455 290.483C288.902 283.7 285.517 279.476 281.194 278.875C280.677 278.805 280.131 278.833 279.543 278.875C279.222 278.889 278.9 278.917 278.578 278.917V278.931Z" fill="#4D3D38"/>
<path d="M190.47 200.289C202.501 202.555 199.941 233.743 183.657 241.519C174.13 246.078 144.92 263.798 146.626 243.785C148.333 223.771 152.082 193.031 190.47 200.275V200.289Z" fill="#FFB695"/>
<path d="M153.831 253.533C151.97 253.533 150.333 253.169 149.06 252.316C146.808 250.805 145.857 247.938 146.206 243.757C147.451 229.197 149.718 212.96 160.965 204.415C168.058 199.03 178.005 197.506 190.54 199.869C194.583 200.625 197.353 204.597 198.15 210.736C199.591 221.757 194.513 236.792 183.825 241.896C182.663 242.442 181.237 243.183 179.572 244.05C172.339 247.784 161.217 253.519 153.817 253.519L153.831 253.533ZM179.838 199.646C172.409 199.646 166.268 201.464 161.483 205.1C150.515 213.436 148.277 229.463 147.046 243.84C146.724 247.687 147.549 250.302 149.522 251.63C155.439 255.574 170.311 247.91 179.194 243.323C180.859 242.456 182.3 241.715 183.475 241.155C191.533 237.309 199.115 224.624 197.325 210.848C196.569 205.086 194.051 201.394 190.386 200.709C186.623 199.995 183.097 199.646 179.824 199.646H179.838Z" fill="#4D3D38"/>
<path d="M451.155 321.712C451.155 321.712 437.837 355.292 429.974 403.319C417.649 406.661 405.436 407.808 393.363 406.689C399.91 336.383 422.518 306.943 422.518 306.943" fill="#30995B"/>
<path d="M402.303 407.501C399.295 407.501 396.302 407.361 393.322 407.095C393.21 407.095 393.112 407.025 393.042 406.941C392.972 406.857 392.93 406.745 392.944 406.634C399.435 337.013 421.959 306.972 422.183 306.678C422.323 306.496 422.588 306.454 422.77 306.594C422.952 306.734 422.994 307 422.854 307.181C422.63 307.475 400.331 337.251 393.825 406.298C405.521 407.333 417.552 406.214 429.611 402.983C437.389 355.6 450.638 321.894 450.778 321.559C450.862 321.349 451.113 321.237 451.323 321.321C451.533 321.405 451.645 321.657 451.561 321.866C451.421 322.202 438.159 355.949 430.395 403.389C430.367 403.557 430.255 403.683 430.087 403.725C420.77 406.242 411.453 407.515 402.303 407.515V407.501Z" fill="#4D3D38"/>
<path d="M479.387 388.578C482.296 347.544 466.446 319.391 460.416 311.042C458.402 308.258 455.884 306.748 453.268 306.748H422.616C422.616 306.748 456.723 332.65 479.373 388.564L479.387 388.578Z" fill="#AAD872"/>
<path d="M479.386 388.998C479.218 388.998 479.065 388.9 478.995 388.732C456.639 333.559 422.714 307.35 422.378 307.084C422.238 306.972 422.182 306.79 422.238 306.623C422.294 306.455 422.462 306.343 422.63 306.343H453.281C456.023 306.343 458.681 307.923 460.766 310.804C463.06 313.979 483.038 343.069 479.806 388.607C479.806 388.802 479.652 388.956 479.456 388.984C479.428 388.984 479.414 388.984 479.386 388.984V388.998ZM423.819 307.182C429.415 311.797 458.751 337.615 479.079 386.732C481.639 342.538 462.319 314.385 460.08 311.294C458.164 308.636 455.744 307.182 453.281 307.182H423.819Z" fill="#4D3D38"/>
<path d="M390.859 408.662C363.285 408.662 341.699 403.431 341.699 396.746C341.699 396.508 341.881 396.326 342.119 396.326C342.357 396.326 342.539 396.508 342.539 396.746C342.539 402.746 364.67 407.822 390.859 407.822C417.048 407.822 438.2 402.857 438.2 396.746C438.2 396.508 438.382 396.326 438.62 396.326C438.858 396.326 439.04 396.508 439.04 396.746C439.04 403.431 417.873 408.662 390.859 408.662Z" fill="#4D3D38"/>
<path d="M316.882 118.123C317.007 123.536 320.673 145.815 327.919 156.22C329.137 157.968 328.675 160.444 326.968 161.717C316.098 169.758 309.299 191.996 300.08 188.835C295.351 187.213 290.805 184.024 287.209 180.975C283.544 177.856 277.892 179.548 276.633 184.192L269.666 201.324C255.718 205.674 235.545 186.108 230.201 170.681L240.036 162.416L262.084 141.172L261.944 119.774C284.439 111.228 307.914 97.2706 316.896 118.137L316.882 118.123Z" fill="#FFB695"/>
<path d="M265.497 202.331C251.661 202.331 234.51 184.443 229.781 170.793C229.725 170.625 229.781 170.443 229.907 170.331L239.742 162.066L261.636 140.961L261.496 119.745C261.496 119.577 261.608 119.409 261.762 119.353C265.092 118.095 268.491 116.682 271.779 115.326C291.154 107.34 309.439 99.7875 317.245 117.941C317.273 117.997 317.273 118.039 317.273 118.095C317.399 123.423 321.05 145.661 328.227 155.968C329.57 157.898 329.095 160.611 327.178 162.038C322.757 165.31 319.05 170.905 315.469 176.317C310.404 183.953 305.634 191.17 299.898 189.212C295.827 187.813 291.448 185.142 286.888 181.268C285.265 179.883 283.082 179.436 281.054 180.051C279.067 180.667 277.542 182.247 276.997 184.275L270.002 201.449C269.96 201.561 269.862 201.659 269.736 201.687C268.365 202.121 266.938 202.317 265.469 202.317L265.497 202.331ZM230.677 170.793C235.923 185.506 255.523 205.03 269.33 200.96L276.227 184.009C276.829 181.758 278.564 179.967 280.83 179.254C283.124 178.541 285.614 179.058 287.461 180.625C291.938 184.429 296.233 187.058 300.192 188.415C305.312 190.177 309.915 183.212 314.783 175.856C318.406 170.373 322.156 164.709 326.688 161.366C328.241 160.22 328.633 158.01 327.556 156.457C320.309 146.052 316.602 123.745 316.448 118.207C308.949 100.906 291.056 108.291 272.1 116.109C268.897 117.423 265.595 118.794 262.336 120.039L262.475 141.143C262.475 141.255 262.433 141.367 262.35 141.451L240.302 162.695L230.663 170.793H230.677Z" fill="#4D3D38"/>
<path d="M314.238 149.507C314.238 149.507 316.644 129.661 293.421 138.906C293.421 138.906 302.682 153.213 314.238 149.507Z" fill="#F3E6D6"/>
<path d="M310.405 150.542C300.57 150.542 293.155 139.269 293.071 139.143C293.001 139.032 292.987 138.906 293.029 138.794C293.071 138.668 293.155 138.584 293.267 138.528C301.171 135.381 307.033 135.213 310.698 138.039C315.539 141.773 314.7 149.241 314.658 149.563C314.644 149.731 314.532 149.857 314.364 149.912C313.007 150.346 311.678 150.542 310.405 150.542ZM294.065 139.116C295.701 141.409 303.955 152.122 313.846 149.199C313.944 147.857 314.154 141.759 310.181 138.71C306.837 136.137 301.423 136.276 294.065 139.116Z" fill="#4D3D38"/>
<path d="M303.731 160.934C309.565 172.178 319.554 170.178 319.554 170.178L303.731 160.934Z" fill="#FFB695"/>
<path d="M317.818 170.709C314.587 170.709 307.76 169.604 303.367 161.115C303.255 160.905 303.339 160.653 303.549 160.556C303.759 160.444 304.011 160.528 304.109 160.737C309.718 171.548 319.078 169.828 319.469 169.758C319.693 169.716 319.917 169.856 319.959 170.094C320.001 170.318 319.861 170.541 319.637 170.583C319.609 170.583 318.924 170.723 317.818 170.723V170.709Z" fill="#4D3D38"/>
<path d="M318.491 118.892L285.503 119.857L243.646 133.339C243.646 133.339 249.423 111.703 262.7 102.738C278.27 92.2352 316.322 89.9555 318.477 118.892H318.491Z" fill="#4D3D38"/>
<path d="M302.402 147.353C303.899 140.136 312.167 139.898 312.167 139.898C312.167 139.898 317.945 149.66 312.055 150.136C306.166 150.611 302.402 147.353 302.402 147.353Z" fill="#4D3D38"/>
<path d="M292.287 103.788C294.274 143.619 277.724 151.857 268.491 156.976C259.244 162.08 246.233 161.675 246.233 161.675C204.894 154.402 218.939 97.8022 258.292 109.452" fill="#4D3D38"/>
<path d="M161.581 204.96H161.553L112.995 202.093C112.757 202.093 112.589 201.883 112.603 201.646C112.617 201.408 112.841 201.254 113.051 201.254L161.609 204.121C161.847 204.121 162.015 204.331 162.001 204.569C162.001 204.792 161.805 204.96 161.581 204.96Z" fill="#4D3D38"/>
<path d="M365.664 593.119C358.263 571.749 349.589 570.546 336.817 567.665C310.026 561.609 304.501 510.911 304.501 510.911L255.564 512.939L272.044 593.427L365.664 593.133V593.119Z" fill="#F4F2EE"/>
<path d="M272.045 593.833C271.849 593.833 271.667 593.693 271.639 593.497L255.159 513.009C255.131 512.883 255.159 512.758 255.243 512.66C255.327 512.562 255.439 512.506 255.551 512.492L304.487 510.464C304.711 510.464 304.892 510.618 304.92 510.842C304.976 511.345 310.726 561.316 336.915 567.232L338.286 567.539C350.219 570.211 358.851 572.141 366.056 592.951C366.098 593.077 366.084 593.217 366 593.329C365.916 593.441 365.79 593.511 365.664 593.511L272.045 593.805V593.833ZM256.068 513.331L272.38 592.993L365.062 592.7C358.053 572.84 350.093 571.064 338.09 568.379L336.719 568.071C311.202 562.309 304.725 516.086 304.123 511.345L256.068 513.331Z" fill="#4D3D38"/>
<path d="M263.035 389.949C249.395 390.341 235.601 390.131 221.989 389.04C218.645 388.774 215.288 388.439 211.958 387.991L255.578 512.925L304.514 510.897L276.325 389.39C271.904 389.642 267.469 389.823 263.049 389.949H263.035Z" fill="#B4D0E1"/>
<path d="M255.564 513.345C255.382 513.345 255.229 513.233 255.173 513.065L211.553 388.131C211.511 387.991 211.525 387.837 211.623 387.725C211.72 387.613 211.86 387.557 212 387.571C215.022 387.977 218.31 388.327 222.017 388.62C234.72 389.641 248.513 389.935 263.021 389.529C267.358 389.404 271.82 389.222 276.283 388.97C276.479 388.97 276.675 389.096 276.717 389.292L304.906 510.799C304.934 510.925 304.906 511.051 304.836 511.149C304.766 511.247 304.64 511.303 304.514 511.317L255.578 513.345H255.564ZM212.56 388.495L255.858 512.492L303.983 510.506L275.975 389.837C271.625 390.075 267.274 390.257 263.035 390.383C248.499 390.802 234.678 390.494 221.947 389.474C218.491 389.194 215.414 388.886 212.56 388.509V388.495Z" fill="#4D3D38"/>
<path d="M122.746 307.363L93.0176 388.061L282.411 415.794L266.91 349.404L122.746 307.363Z" fill="#FFB695"/>
<path d="M282.411 416.214C282.411 416.214 282.369 416.214 282.355 416.214L92.9617 388.481C92.8358 388.467 92.7239 388.383 92.6679 388.285C92.598 388.173 92.598 388.047 92.64 387.921L122.382 307.224C122.452 307.014 122.676 306.902 122.9 306.972L267.05 349.013C267.19 349.055 267.302 349.167 267.344 349.321L282.844 415.711C282.872 415.851 282.844 415.99 282.746 416.088C282.663 416.172 282.551 416.228 282.439 416.228L282.411 416.214ZM93.5913 387.711L281.865 415.291L266.56 349.74L123.012 307.881L93.5913 387.725V387.711Z" fill="#4D3D38"/>
</g>
<defs>
<clipPath id="clip0_14346_3408">
<rect width="526" height="594" fill="white"/>
</clipPath>
</defs>
</svg>
