<svg width="372" height="422" viewBox="0 0 372 422" fill="none" xmlns="http://www.w3.org/2000/svg">
<g clip-path="url(#clip0_14355_3)">
<path d="M371.7 134.573V421.7H0.298828V134.573L185.999 1.28223L290.036 75.9561L296.648 80.704L371.7 134.573Z" fill="#F3E6D6"/>
<path d="M371.7 422H0.299646C0.129846 422 0 421.87 0 421.7V134.573C0 134.473 0.0499409 134.383 0.129846 134.333L185.83 1.04185C185.93 0.971729 186.07 0.971729 186.18 1.04185L371.87 134.323C371.95 134.383 372 134.473 372 134.563V421.69C372 421.86 371.87 421.99 371.7 421.99V422ZM0.599291 421.399H371.401V134.724L186 1.65286L0.599291 134.724V421.399Z" fill="#4D3D38"/>
<path d="M185.96 59.9497C184.821 59.9497 183.902 58.6075 183.902 56.9447V3.30577C183.902 1.64301 184.821 0.300781 185.96 0.300781C187.099 0.300781 188.017 1.64301 188.017 3.30577V56.9447C188.017 58.6075 187.099 59.9497 185.96 59.9497Z" fill="#FC8C4C"/>
<path d="M185.961 60.2499C184.662 60.2499 183.604 58.7675 183.604 56.9445V3.30548C183.604 1.48246 184.662 0 185.961 0C187.259 0 188.318 1.48246 188.318 3.30548V56.9445C188.318 58.7675 187.259 60.2499 185.961 60.2499ZM185.961 0.600997C184.992 0.600997 184.203 1.81301 184.203 3.30548V56.9445C184.203 58.4369 184.992 59.6489 185.961 59.6489C186.93 59.6489 187.719 58.4369 187.719 56.9445V3.30548C187.719 1.81301 186.93 0.600997 185.961 0.600997Z" fill="#4D3D38"/>
<path d="M192.372 401.126C192.242 400.495 192.092 399.853 191.902 399.212C189.006 389.296 182.573 369.183 182.613 368.552L144.179 367.47L153.617 393.643C157.383 406.434 127.408 401.376 124.941 421.58L125.011 421.71H189.695L194.889 421.469C196.806 417.493 193.73 406.364 192.372 401.136V401.126Z" fill="#F7F2EA"/>
<path d="M160.39 422H125.012C124.902 422 124.802 421.94 124.742 421.84L124.672 421.71C124.642 421.66 124.632 421.589 124.642 421.529C125.991 410.481 135.5 406.835 143.151 403.9C149.763 401.366 154.987 399.363 153.328 393.713L143.89 367.56C143.86 367.47 143.87 367.36 143.93 367.279C143.99 367.199 144.069 367.169 144.179 367.159L182.614 368.241C182.694 368.241 182.774 368.281 182.824 368.341C182.874 368.401 182.903 368.481 182.903 368.562C182.943 369.022 184.851 375.183 186.869 381.703C188.727 387.713 190.834 394.525 192.183 399.122C192.362 399.723 192.512 400.354 192.652 401.055L192.902 402.007C194.33 407.506 196.997 417.733 195.149 421.579C195.099 421.68 194.999 421.74 194.889 421.75L189.695 421.99H160.38L160.39 422ZM125.272 421.399H189.695L194.7 421.169C196.308 417.393 193.731 407.516 192.342 402.167L192.093 401.206C192.093 401.206 192.093 401.206 192.093 401.196C191.953 400.505 191.803 399.894 191.633 399.303C190.285 394.705 188.177 387.894 186.319 381.884C183.782 373.7 182.624 369.924 182.384 368.842L144.629 367.78L153.918 393.533C155.746 399.733 150.012 401.927 143.38 404.471C135.939 407.326 126.68 410.882 125.282 421.399H125.272Z" fill="#4D3D38"/>
<path d="M191.014 394.424H137.667L128.777 352.395H182.124L191.014 394.424Z" fill="#B6D2E3"/>
<path d="M191.384 394.724H137.428L128.408 352.094H182.364L191.384 394.724ZM137.907 394.123H190.645L181.885 352.695H129.147L137.907 394.123Z" fill="#4D3D38"/>
<path d="M199.843 205.782C169.599 201.415 168.151 152.884 191.373 139.782C214.606 126.681 189.436 125.709 189.436 125.709C189.436 125.709 163.726 140.363 163.296 174.32C162.927 203.678 192.092 220.827 192.092 220.827" fill="#F7F2EA"/>
<path d="M192.103 221.127C192.053 221.127 192.003 221.117 191.953 221.087C191.664 220.917 162.638 203.518 163.007 174.319C163.427 140.583 189.037 125.599 189.296 125.448C189.346 125.418 189.396 125.408 189.456 125.408C189.906 125.428 200.453 125.879 201.452 130.006C202.081 132.64 198.845 135.926 191.534 140.042C181.376 145.772 172.936 161.448 176.452 180.329C179.058 194.333 187.828 203.738 199.904 205.481C200.064 205.501 200.183 205.661 200.153 205.822C200.124 205.982 199.974 206.092 199.814 206.072C187.478 204.289 178.519 194.703 175.862 180.429C174.404 172.627 175.033 164.273 177.61 156.9C180.387 148.987 185.101 142.977 191.234 139.512C199.884 134.634 201.252 131.719 200.863 130.136C200.014 126.63 190.525 126.049 189.516 125.999C187.998 126.911 164.006 141.815 163.597 174.309C163.237 203.167 191.963 220.386 192.253 220.556C192.393 220.636 192.443 220.826 192.363 220.967C192.303 221.067 192.203 221.117 192.103 221.117V221.127Z" fill="#4D3D38"/>
<path d="M51.5897 370.795H10.0488L15.3825 401.496C18.0993 417.162 17.5899 420.958 30.0652 421.419C30.1051 421.419 30.3948 421.419 30.8542 421.419V421.449C31.004 421.449 31.1539 421.449 31.3137 421.449H40.5128C40.5128 421.449 40.8124 421.449 41.222 421.449C41.6415 421.449 41.9011 421.449 41.9311 421.449H51.1302C51.2801 421.449 51.4399 421.449 51.5897 421.449V421.419C52.0491 421.419 52.3388 421.419 52.3788 421.419C64.864 420.958 64.3446 417.162 67.0614 401.496L72.3951 370.795H51.5897Z" fill="#FFB695"/>
<path d="M30.8526 421.749C30.8526 421.749 30.7627 421.749 30.7228 421.719C30.3332 421.719 30.0835 421.719 30.0536 421.719C18.3874 421.288 17.818 417.893 15.7105 405.272C15.5207 404.11 15.311 402.868 15.0813 401.546L9.74758 370.845C9.7276 370.755 9.74758 370.664 9.81749 370.604C9.87742 370.534 9.95733 370.494 10.0472 370.494H72.3935C72.4834 370.494 72.5633 370.534 72.6232 370.604C72.6831 370.674 72.7031 370.765 72.6931 370.845L67.3594 401.546C67.1297 402.878 66.9199 404.11 66.7302 405.282C64.6227 417.903 64.0633 421.288 52.3871 421.729C52.3472 421.729 52.0975 421.729 51.698 421.729C51.658 421.749 51.628 421.759 51.5881 421.759H51.1286H41.9395C41.8995 421.759 41.6399 421.759 41.2303 421.759C40.8208 421.759 40.5611 421.759 40.5212 421.759H30.8626L30.8526 421.749ZM51.1286 421.138H51.4782C51.4782 421.138 51.5481 421.118 51.5881 421.118C52.0475 421.118 52.3372 421.118 52.3772 421.118C63.5539 420.707 64.0533 417.722 66.1409 405.172C66.3306 404.01 66.5404 402.768 66.7701 401.435L72.0339 371.095H10.4068L15.6706 401.435C15.9003 402.768 16.1101 404.01 16.2998 405.172C18.3973 417.722 18.8868 420.697 30.0735 421.118C30.1035 421.118 30.3932 421.118 30.8526 421.118C30.8926 421.118 30.9325 421.118 30.9725 421.148H31.3021H40.5112C40.5412 421.148 40.8008 421.148 41.2204 421.148C41.6399 421.148 41.9095 421.148 41.9395 421.148H51.1286V421.138Z" fill="#4D3D38"/>
<path d="M51.0202 370.795H8.39062L9.48933 382.504C9.72904 385.069 11.6767 387.012 13.994 387.012H68.4496C70.7668 387.012 72.7145 385.069 72.9543 382.504L74.053 370.795H51.0102H51.0202Z" fill="#FFB695"/>
<path d="M68.4485 387.323H13.9929C11.5158 387.323 9.44824 385.269 9.18854 382.545L8.08984 370.835C8.08984 370.755 8.10982 370.665 8.16975 370.605C8.22968 370.545 8.30958 370.505 8.38949 370.505H74.0618C74.1417 370.505 74.2316 370.545 74.2816 370.605C74.3415 370.665 74.3615 370.755 74.3615 370.835L73.2628 382.545C73.0031 385.269 70.9455 387.323 68.4584 387.323H68.4485ZM8.7191 371.106L9.78784 382.485C10.0176 384.899 11.8254 386.722 13.9929 386.722H68.4485C70.6159 386.722 72.4238 384.899 72.6535 382.485L73.7222 371.106H8.7191Z" fill="#4D3D38"/>
<path d="M65.7126 368.942C63.4153 368.732 60.7185 368.552 57.742 368.412C54.416 368.261 50.7303 368.161 46.8249 368.131C45.8761 368.131 44.9172 368.121 43.9483 368.121H43.7586C42.9096 368.121 42.0706 368.121 41.2316 368.131C40.4025 368.131 39.5535 368.121 38.7045 368.121H38.5148C37.5459 368.121 36.5771 368.121 35.6382 368.131C31.7328 368.161 28.0472 368.261 24.7211 368.412C21.7346 368.552 19.0478 368.732 16.7505 368.942C11.5766 369.423 8.40039 370.074 8.40039 370.796C8.40039 371.567 12.0261 372.258 17.8292 372.749C20.1165 372.939 22.7434 373.099 25.62 373.23C28.8262 373.37 32.3521 373.45 36.0577 373.48C36.8268 373.48 37.5959 373.48 38.3749 373.48H38.5248C39.4437 373.48 40.3426 373.48 41.2415 373.46C42.1405 373.46 43.0394 373.48 43.9583 373.48H44.1082C44.8872 373.48 45.6563 373.48 46.4254 373.48C50.131 373.45 53.6569 373.37 56.8631 373.23C59.7397 373.109 62.3666 372.949 64.6539 372.749C70.457 372.258 74.0827 371.567 74.0827 370.796C74.0827 370.074 70.9065 369.423 65.7326 368.942H65.7126Z" fill="#4D3D38"/>
<path d="M44.0873 373.79H43.9374C43.0685 373.79 42.2295 373.79 41.3805 373.78H41.2207H41.0609C40.2119 373.78 39.3728 373.79 38.5039 373.79H38.3541C37.575 373.79 36.7959 373.79 36.0368 373.79C32.3611 373.76 28.8453 373.68 25.5891 373.54C22.7325 373.419 20.1156 373.259 17.7884 373.059C8.08984 372.237 8.08984 371.236 8.08984 370.805C8.08984 370.404 8.08984 369.453 16.7096 368.651C19.0169 368.441 21.7037 368.261 24.7002 368.121C28.1261 367.96 31.8018 367.87 35.6273 367.84C36.5762 367.84 37.535 367.83 38.5139 367.83H38.7036C39.5526 367.83 40.4016 367.83 41.2306 367.84C42.0597 367.84 42.8987 367.83 43.7577 367.83H43.9474C44.9163 367.83 45.8851 367.83 46.834 367.84C50.6595 367.87 54.3352 367.97 57.7611 368.121C60.7576 368.261 63.4444 368.441 65.7517 368.651C74.3715 369.453 74.3715 370.404 74.3715 370.805C74.3715 371.236 74.3715 372.237 64.6729 373.059C62.3457 373.259 59.7188 373.419 56.8721 373.54C53.616 373.68 50.1002 373.76 46.4245 373.79C45.6554 373.79 44.8863 373.79 44.1072 373.79H44.0873ZM41.2207 373.179H41.3905C42.2395 373.179 43.0785 373.199 43.9474 373.199H44.0973C44.8763 373.199 45.6454 373.199 46.4145 373.199C50.0802 373.169 53.596 373.089 56.8422 372.949C59.6888 372.828 62.3057 372.668 64.623 372.478C73.3127 371.747 73.7622 370.845 73.7822 370.805C73.7722 370.805 73.3626 369.974 65.7017 369.262C63.4044 369.052 60.7276 368.872 57.7411 368.732C54.3252 368.571 50.6495 368.481 46.834 368.451C45.8851 368.451 44.9263 368.441 43.9574 368.441H43.7677C42.9187 368.441 42.0796 368.441 41.2406 368.451C40.4016 368.451 39.5626 368.441 38.7136 368.441H38.5238C37.555 368.441 36.5961 368.441 35.6472 368.451C31.8318 368.481 28.1561 368.581 24.7402 368.732C21.7537 368.872 19.0768 369.052 16.7796 369.262C9.12861 369.974 8.7191 370.795 8.69912 370.835C8.70911 370.835 9.15858 371.737 17.8583 372.478C20.1755 372.668 22.7925 372.828 25.6391 372.949C28.8852 373.089 32.4011 373.169 36.0668 373.199C36.8259 373.199 37.6049 373.199 38.384 373.199H38.5338C39.3928 373.199 40.2418 373.199 41.0908 373.189H41.2506L41.2207 373.179Z" fill="#4D3D38"/>
<path d="M275.004 277.881C262.029 278.252 127.249 281.898 127.249 281.898C127.249 281.657 116.691 262.085 118.669 253.1C123.962 228.99 133.901 196.456 181.844 182.503C188.206 180.65 199.803 181.181 206.685 181.181C214.176 181.181 209.252 182.683 215.564 184.476C262.099 197.768 274.604 216.049 286.86 244.876C293.412 260.302 285.981 277.561 275.004 277.871V277.881Z" fill="#85A3D4"/>
<path d="M126.95 282.208V281.957C126.9 281.847 126.77 281.587 126.571 281.186C118.34 264.549 117.571 256.706 118.37 253.05C124.753 223.991 136.848 195.294 181.755 182.232C187.079 180.679 195.809 180.78 202.81 180.87C204.199 180.89 205.507 180.9 206.676 180.9C210.771 180.9 211.3 181.341 211.95 182.182C212.379 182.733 212.908 183.424 215.635 184.205C263.968 198.008 275.754 218.021 287.121 244.776C290.886 253.641 290.337 264.058 285.702 271.3C282.936 275.627 279.14 278.081 275.005 278.191C262.18 278.552 128.588 282.178 127.25 282.208H126.94H126.95ZM197.856 181.411C192.183 181.411 185.94 181.621 181.925 182.793C137.318 195.775 125.302 224.292 118.96 253.17C118.18 256.736 118.96 264.438 127.11 280.916C127.28 281.256 127.38 281.467 127.449 281.597C133.402 281.437 262.41 277.941 275.005 277.58C278.94 277.47 282.566 275.116 285.223 270.959C289.748 263.878 290.287 253.691 286.591 244.996C280.399 230.422 274.166 218.733 263.868 209.077C252.911 198.79 237.539 191.067 215.485 184.766C212.569 183.935 211.95 183.124 211.49 182.533C211.001 181.902 210.681 181.481 206.686 181.481C205.517 181.481 204.209 181.461 202.81 181.451C201.262 181.431 199.584 181.411 197.856 181.411Z" fill="#4D3D38"/>
<path d="M244.761 168.118C240.566 169.631 243.403 176.412 237.779 180.9C231.856 185.618 227.102 182.032 223.187 180.96C223.187 180.96 219.94 184.466 219.99 185.117C221.059 185.618 222.108 186.128 223.127 186.669C224.795 189.394 214.467 201.063 199.984 199.751C185.501 198.439 180.787 182.452 181.836 182.502C189.167 177.624 200.164 153.144 200.164 153.144L201.183 148.877C213.538 139.471 237.11 127.711 246.459 139.01C244.971 143.788 241.845 154.115 246.959 162.499C249.456 166.596 248.277 166.846 244.761 168.118Z" fill="#FFB695"/>
<path d="M202.191 200.152C201.462 200.152 200.713 200.122 199.964 200.052C186.22 198.81 181.256 184.867 181.406 182.733C181.436 182.373 181.595 182.263 181.725 182.223C188.907 177.375 199.784 153.265 199.894 153.024L200.923 148.707L201.012 148.647C214.277 138.54 237.399 127.582 246.698 138.831L246.798 138.961L246.748 139.121C245.36 143.568 242.114 153.996 247.218 162.36C248.436 164.353 248.796 165.445 248.496 166.276C248.157 167.238 246.988 167.658 245.2 168.289L244.851 168.41C243.003 169.071 242.633 170.864 242.164 173.117C241.644 175.612 240.985 178.727 237.959 181.141C233.085 185.017 228.889 183.405 225.523 182.102C224.734 181.802 223.985 181.511 223.276 181.301C221.978 182.703 220.619 184.356 220.34 184.957C221.318 185.418 222.297 185.899 223.266 186.41L223.336 186.45L223.376 186.52C223.825 187.261 223.576 188.483 222.657 189.955C219.9 194.403 211.92 200.162 202.171 200.162L202.191 200.152ZM182.005 182.763C181.925 183.334 182.664 186.229 184.762 189.575C186.879 192.94 191.673 198.7 200.014 199.461C210.511 200.413 219.281 194.293 222.157 189.645C222.897 188.463 223.166 187.441 222.907 186.9C221.898 186.379 220.879 185.869 219.86 185.398L219.7 185.328V185.157C219.63 184.476 221.718 182.112 222.966 180.77L223.086 180.64L223.266 180.69C224.065 180.91 224.884 181.221 225.743 181.561C229.139 182.874 232.995 184.356 237.589 180.69C240.446 178.406 241.055 175.541 241.584 173.017C242.074 170.673 242.503 168.64 244.661 167.859L245.01 167.739C246.628 167.158 247.697 166.777 247.937 166.086C248.157 165.465 247.787 164.453 246.708 162.68C241.525 154.186 244.701 143.719 246.129 139.101C241.005 133.081 231.846 134.343 225.044 136.487C217.553 138.841 208.743 143.538 201.462 149.078L200.463 153.245C199.994 154.296 189.326 177.915 182.005 182.783V182.763Z" fill="#4D3D38"/>
<path d="M239.548 147.024C235.872 145.731 230.538 146.042 228.471 147.164L239.548 147.024Z" fill="#FFB695"/>
<path d="M228.469 147.475C228.36 147.475 228.26 147.415 228.21 147.315C228.13 147.165 228.18 146.984 228.33 146.904C230.457 145.742 235.871 145.422 239.646 146.744C239.806 146.794 239.886 146.974 239.826 147.124C239.776 147.285 239.596 147.365 239.446 147.305C235.871 146.053 230.597 146.343 228.609 147.425C228.559 147.445 228.519 147.465 228.469 147.465V147.475Z" fill="#4D3D38"/>
<path d="M243.552 141.334C236.85 144.039 223.686 142.967 218.522 139.291C221.658 143.648 216.324 150.82 216.324 150.82C212.948 153.224 210.611 151.992 210.611 151.992C200.223 146.122 200.693 154.015 201.961 159.384C202.551 161.898 201.292 164.483 198.925 165.525L191.863 168.99C178.459 153.074 174.933 137.819 187.398 132.82C187.398 132.9 187.428 132.75 187.398 132.82C186.739 119.408 201.122 112.527 212.039 115.291C227.361 107.478 236.54 110.453 238.438 120.129C252.472 121.011 260.902 134.333 243.552 141.334Z" fill="#4D3D38"/>
<path d="M239.406 155.318C237.588 155.779 235.521 155.759 233.623 155.408C231.365 154.987 229.338 154.106 228.259 153.004C228.199 152.944 230.227 150.4 232.794 149.829C233.383 149.699 234.002 149.669 234.632 149.799C236.23 150.129 237.898 151.492 239.306 154.767L239.396 155.318H239.406Z" fill="#ECEBE6"/>
<path d="M239.407 155.317C237.589 155.778 235.521 155.758 233.624 155.407C233.364 154.706 233.234 153.955 233.264 153.164C233.314 151.952 233.743 150.87 234.433 150.028C234.503 149.948 234.562 149.868 234.632 149.788C236.231 150.119 237.899 151.481 239.307 154.756L239.397 155.307L239.407 155.317Z" fill="#4D3D38"/>
<path d="M239.248 155.077C239.108 155.077 238.988 154.987 238.958 154.847C238.369 152.212 236.881 150.529 234.773 150.109C232.506 149.658 229.909 150.8 228.451 152.883C228.361 153.024 228.171 153.054 228.031 152.953C227.891 152.853 227.861 152.673 227.961 152.533C229.549 150.269 232.396 149.017 234.893 149.518C237.24 149.979 238.898 151.832 239.547 154.716C239.587 154.877 239.478 155.037 239.318 155.077C239.298 155.077 239.278 155.077 239.248 155.077Z" fill="#4D3D38"/>
<path d="M176.421 232.516C161.918 249.404 159.121 250.806 161.458 256.906C163.796 263.006 163.796 264.879 164.265 265.821C170.817 266.762 179.557 268.756 179.557 268.756L176.89 243.304L176.421 232.516Z" fill="#F7F2EA"/>
<path d="M179.559 269.047C179.559 269.047 179.519 269.047 179.489 269.047C179.399 269.027 170.679 267.043 164.217 266.112C164.117 266.102 164.037 266.042 163.987 265.951C163.807 265.601 163.697 265.14 163.527 264.439C163.218 263.147 162.688 260.983 161.17 257.007C159.163 251.778 160.791 249.925 169.79 239.668C171.638 237.564 173.735 235.18 176.192 232.316C176.272 232.225 176.402 232.185 176.522 232.225C176.642 232.266 176.722 232.376 176.722 232.496L177.191 243.284L179.858 268.716C179.868 268.816 179.828 268.906 179.758 268.976C179.698 269.027 179.628 269.057 179.559 269.057V269.047ZM164.466 265.541C170.13 266.362 177.431 267.965 179.219 268.365L176.592 243.334L176.153 233.287C173.905 235.902 171.967 238.105 170.24 240.069C161.44 250.095 159.852 251.898 161.73 256.796C163.268 260.803 163.797 262.997 164.117 264.299C164.257 264.86 164.347 265.25 164.466 265.541Z" fill="#4D3D38"/>
<path d="M136.128 292.205C107.292 303.935 125.96 343.13 132.902 357.503C139.854 371.877 165.903 303.504 165.903 303.504L136.118 292.205H136.128Z" fill="#B6D2E3"/>
<path d="M135.369 359.787C134.25 359.787 133.332 359.066 132.642 357.634C127.548 347.096 115.612 322.415 122.115 305.477C124.492 299.277 129.176 294.719 136.028 291.935L136.138 291.895L136.248 291.935L166.312 303.344L166.203 303.624C165.334 305.898 144.848 359.397 135.499 359.797C135.459 359.797 135.419 359.797 135.389 359.797L135.369 359.787ZM136.138 292.526C129.506 295.25 124.971 299.677 122.674 305.687C116.272 322.385 128.128 346.896 133.182 357.363C133.791 358.625 134.53 359.226 135.459 359.176C138.016 359.066 143.29 354.128 153.887 331.21C159.76 318.519 164.734 305.717 165.523 303.674L136.138 292.526Z" fill="#4D3D38"/>
<path d="M229.088 264.178C228.998 264.178 228.908 264.138 228.849 264.058C228.749 263.927 228.779 263.737 228.908 263.637L249.664 247.921C249.794 247.821 249.984 247.851 250.083 247.981C250.183 248.111 250.153 248.302 250.023 248.402L229.268 264.118C229.218 264.158 229.148 264.178 229.088 264.178Z" fill="#4D3D38"/>
<path d="M304.1 155.528L292.434 155.117C297.358 148.927 301.942 145.792 301.942 145.792L304.1 155.528Z" fill="#F7F2EA"/>
<path d="M304.1 155.828H304.09L292.424 155.418C292.314 155.418 292.214 155.347 292.164 155.247C292.115 155.147 292.134 155.027 292.204 154.937C297.099 148.777 301.733 145.581 301.783 145.551C301.863 145.491 301.973 145.481 302.063 145.521C302.153 145.561 302.223 145.641 302.243 145.731L304.4 155.468C304.42 155.558 304.4 155.658 304.34 155.728C304.28 155.798 304.2 155.838 304.11 155.838L304.1 155.828ZM293.043 154.847L303.721 155.217L301.753 146.302C300.614 147.144 296.959 150.029 293.043 154.837V154.847Z" fill="#4D3D38"/>
<path d="M81.8696 95.2509C91.0575 86.784 92.5965 73.4712 85.3071 65.5158C78.0176 57.5605 64.66 57.9751 55.4721 66.4419C46.2842 74.9087 44.7452 88.2216 52.0347 96.1769C59.3242 104.132 72.6817 103.718 81.8696 95.2509Z" fill="#A1CF73"/>
<path d="M65.5815 102.18C59.9182 102.18 54.9041 99.9762 51.4582 95.9795C47.9723 91.9328 46.514 86.5439 47.363 80.7943C49.091 69.0549 60.028 59.499 71.7542 59.499C77.4175 59.499 82.4315 61.7027 85.8775 65.6993C89.3633 69.746 90.8216 75.135 89.9726 80.8845C88.2447 92.624 77.3076 102.18 65.5815 102.18ZM71.7642 60.11C60.3177 60.11 49.6403 69.4355 47.9623 80.8845C47.1433 86.4537 48.5516 91.6724 51.9176 95.5889C55.2437 99.4553 60.098 101.579 65.5815 101.579C77.0279 101.579 87.7053 92.2534 89.3833 80.8044C90.2024 75.2351 88.794 70.0165 85.428 66.1C82.1019 62.2336 77.2477 60.11 71.7642 60.11Z" fill="#4D3D38"/>
<path d="M80.4147 71.7991L63.6645 93.6052L56.3931 83.0878C55.3743 81.6153 56.4231 79.592 58.221 79.592H58.3009C59.02 79.592 59.6992 79.9426 60.1087 80.5336L63.9043 85.9125L76.8989 69.0745C77.3284 68.5236 77.9876 68.2031 78.6768 68.2131C80.5046 68.2332 81.5234 70.3467 80.4147 71.7991Z" fill="#F7F2EA"/>
<path d="M63.6654 93.9061C63.5655 93.9061 63.4856 93.856 63.4257 93.7759L56.1543 83.2585C55.605 82.4671 55.545 81.4955 55.9945 80.6441C56.434 79.7927 57.273 79.2919 58.2318 79.2919H58.3118C59.1308 79.2919 59.8999 79.6925 60.3693 80.3536L63.9351 85.402L76.68 68.8846C77.1595 68.2636 77.8986 67.8729 78.6976 67.903C79.6565 67.913 80.5155 68.4639 80.935 69.3253C81.3545 70.1968 81.2546 71.2085 80.6653 71.9697L63.9151 93.7759C63.8552 93.846 63.7753 93.8961 63.6754 93.8961L63.6654 93.9061ZM58.2119 79.8929C57.4827 79.8929 56.8435 80.2835 56.5139 80.9246C56.1743 81.5757 56.2242 82.3169 56.6337 82.9179L63.6754 93.0948L80.1759 71.6091C80.6254 71.0181 80.7053 70.2669 80.3856 69.5958C80.066 68.9247 79.4268 68.514 78.6777 68.514C78.0684 68.544 77.4991 68.7844 77.1395 69.2652L64.1449 86.1032C64.0849 86.1833 64.005 86.2134 63.9051 86.2234C63.8152 86.2234 63.7253 86.1733 63.6654 86.0932L59.8699 80.7142C59.5103 80.2034 58.921 79.9029 58.3018 79.9029H58.2219L58.2119 79.8929Z" fill="#4D3D38"/>
<path d="M371.68 277.961H97.9336V292.205H371.68V277.961Z" fill="#FC8C4C"/>
<path d="M371.97 292.505H97.6348V277.66H371.98V292.505H371.97ZM98.2241 291.904H371.371V278.261H98.2341V291.904H98.2241Z" fill="#4D3D38"/>
<path d="M328.822 292.205H137.068L114.535 373.089H354.212L328.822 292.205Z" fill="#FC8C4C"/>
<path d="M354.62 373.389H114.135L136.838 291.904H329.051L354.63 373.389H354.62ZM114.924 372.788H353.801L328.601 292.505H137.287L114.924 372.788Z" fill="#4D3D38"/>
<path d="M94.418 421.7L133.981 292.205H150.382L104.286 421.7H94.418Z" fill="#FC8C4C"/>
<path d="M104.497 422H94.0098L133.753 291.904H150.803L104.497 422ZM94.8188 421.399H104.068L149.954 292.505H134.192L94.8188 421.399Z" fill="#4D3D38"/>
<path d="M371.472 421.7L331.908 292.205H315.508L361.603 421.7H371.472Z" fill="#FC8C4C"/>
<path d="M371.881 422H361.393L361.323 421.8L315.088 291.904H332.138L371.881 422ZM361.823 421.399H371.072L331.698 292.505H315.937L361.823 421.399Z" fill="#4D3D38"/>
<path d="M225.853 320.922C209.882 320.922 205.307 327.473 203.919 337.199C202.53 346.925 210.83 361.97 214.506 371.085C220.229 385.299 225.953 399.512 231.676 413.726C233.564 418.414 238.108 421.489 243.152 421.489H244.64C237.878 404.681 231.116 387.883 224.344 371.075C220.679 361.96 212.379 346.915 213.757 337.189C215.145 327.463 219.72 320.912 235.691 320.912H225.853V320.922Z" fill="#85A3D4"/>
<path d="M245.071 421.8H243.143C237.949 421.8 233.335 418.675 231.387 413.847L214.217 371.206C213.438 369.273 212.449 367.059 211.39 364.705C207.435 355.881 202.511 344.902 203.62 337.16C205.298 325.41 211.74 320.622 225.853 320.622H235.692V321.223C218.682 321.223 215.236 328.926 214.057 337.25C212.979 344.822 217.863 355.71 221.788 364.465C222.847 366.819 223.836 369.042 224.625 370.986L245.081 421.81L245.071 421.8ZM225.853 321.223C208.843 321.223 205.398 328.926 204.219 337.25C203.14 344.822 208.024 355.71 211.95 364.465C213.009 366.819 214.007 369.042 214.786 370.986L231.956 413.626C233.804 418.224 238.209 421.199 243.153 421.199H244.192L224.065 371.206C223.286 369.273 222.298 367.059 221.239 364.705C217.284 355.881 212.359 344.902 213.468 337.16C214.806 327.774 219.181 322.836 228.081 321.223H225.863H225.853Z" fill="#4D3D38"/>
<path d="M334.394 421.529H245.569L230.477 320.922H295.929C309.363 320.922 320.78 330.778 322.777 344.1L334.394 421.529Z" fill="#DCE8ED"/>
<path d="M334.395 421.83H245.57C245.42 421.83 245.3 421.72 245.27 421.57L230.178 320.963C230.168 320.872 230.188 320.792 230.248 320.722C230.308 320.652 230.388 320.622 230.478 320.622H295.93C309.624 320.622 321.041 330.478 323.078 344.051L334.695 421.479C334.705 421.57 334.685 421.65 334.625 421.72C334.565 421.79 334.485 421.82 334.395 421.82V421.83ZM245.83 421.229H334.055L322.489 344.141C320.501 330.859 309.335 321.223 295.94 321.223H230.827L245.83 421.229Z" fill="#4D3D38"/>
<path d="M268.941 421.529H245.569L230.477 320.922C243.911 320.922 255.327 330.778 257.325 344.1L268.941 421.529Z" fill="#B6D2E3"/>
<path d="M268.942 421.83H245.57C245.42 421.83 245.3 421.72 245.27 421.57L230.178 320.963C230.168 320.872 230.188 320.792 230.248 320.722C230.308 320.652 230.388 320.622 230.478 320.622C244.172 320.622 255.588 330.478 257.626 344.051L269.242 421.479C269.252 421.57 269.232 421.65 269.172 421.72C269.112 421.79 269.032 421.82 268.942 421.82V421.83ZM245.83 421.229H268.593L257.026 344.141C255.049 330.979 244.062 321.393 230.827 321.223L245.83 421.229Z" fill="#4D3D38"/>
<path d="M258.004 348.699L259.033 355.52C260.551 365.617 269.191 373.079 279.369 373.079H310.162C319.112 373.079 325.954 365.086 324.605 356.211L323.456 348.688" fill="#DCE8ED"/>
<path d="M310.163 373.39H279.37C268.962 373.39 260.282 365.897 258.734 355.57L257.705 348.749C257.685 348.589 257.795 348.428 257.955 348.408C258.115 348.388 258.275 348.498 258.295 348.659L259.324 355.48C260.832 365.507 269.262 372.779 279.37 372.779H310.163C314.338 372.779 318.294 370.956 321.021 367.78C323.737 364.605 324.946 360.408 324.307 356.261L323.158 348.739C323.138 348.578 323.248 348.418 323.408 348.398C323.568 348.368 323.727 348.488 323.747 348.649L324.896 356.171C325.555 360.488 324.307 364.855 321.47 368.171C318.633 371.486 314.508 373.38 310.163 373.38V373.39Z" fill="#4D3D38"/>
<path d="M168.231 150.7C163.977 159.615 163.577 167.288 163.477 173.809C163.157 193.311 174.884 207.374 184.103 214.676C183.833 215.207 183.563 215.738 183.274 216.259C196.558 224.022 194.99 240.629 194.99 240.629C210.981 244.326 243.083 240.459 262.16 233.057C262.16 233.057 260.003 257.537 265.976 277.871H286.532C289.168 273.083 282.666 268.365 276.034 268.365C275.644 257.758 279.23 245.548 284.204 234.67C290.826 237.304 302.583 238.907 305.649 238.917C313.51 238.927 322.889 238.937 326.804 238.907C330.25 231.825 326.914 228.089 316.936 226.887C309.664 226.005 294.292 226.957 296.29 214.105C296.29 214.085 296.29 214.055 296.29 214.035C297.638 211.721 304.63 203.628 306.038 186.68C306.818 177.334 316.816 183.435 318.174 170.633C318.304 169.391 318.324 167.989 318.194 166.386C318.124 165.575 317.575 164.874 316.806 164.573C316.266 164.363 315.577 164.082 314.838 163.742C312.431 162.65 310.613 161.017 309.484 158.994C308.436 157.121 305.699 155.638 304.141 154.597L297.289 151.782L295.131 142.046C295.131 142.046 283.006 150.34 277.023 166.587C270.061 185.498 256.118 186.88 239.347 190.747C224.015 194.283 203.6 199.912 189.446 200.353C189.376 200.633 189.526 200.072 189.446 200.353C178.719 193.201 171.977 173.568 178.599 154.987" fill="#F7F2EA"/>
<path d="M286.531 278.172H265.975C265.845 278.172 265.725 278.082 265.685 277.961C260.222 259.371 261.57 237.044 261.83 233.518C242.213 241 210.481 244.526 194.929 240.93C194.779 240.9 194.679 240.76 194.699 240.609C194.719 240.449 196.088 224.102 183.123 216.529C182.983 216.449 182.933 216.269 183.013 216.129C183.253 215.678 183.492 215.227 183.722 214.777C177.27 209.608 162.817 195.585 163.177 173.819C163.286 166.897 163.756 159.405 167.961 150.58C168.031 150.43 168.211 150.37 168.36 150.44C168.51 150.51 168.57 150.69 168.5 150.841C164.345 159.555 163.886 166.967 163.766 173.829C163.406 195.535 177.989 209.468 184.272 214.456C184.381 214.546 184.421 214.696 184.351 214.827C184.122 215.277 183.892 215.718 183.662 216.159C195.778 223.441 195.418 238.246 195.299 240.409C210.96 243.915 242.663 240.319 262.04 232.796C262.139 232.756 262.249 232.776 262.329 232.837C262.409 232.897 262.459 232.997 262.449 233.107C262.429 233.347 260.382 257.598 266.185 277.591H286.341C287.03 276.229 286.97 274.786 286.171 273.424C284.553 270.679 280.288 268.686 276.023 268.686C275.863 268.686 275.733 268.556 275.723 268.396C275.284 256.215 279.938 243.274 283.924 234.559C283.994 234.409 284.153 234.339 284.303 234.409C290.786 236.983 302.442 238.626 305.638 238.636C316.335 238.656 323.387 238.646 326.603 238.626C327.972 235.741 328.181 233.488 327.222 231.725C325.944 229.371 322.558 227.888 316.885 227.207C315.886 227.087 314.717 226.997 313.479 226.907C307.855 226.486 300.854 225.965 297.568 221.828C296.019 219.875 295.48 217.271 295.979 214.085C295.979 214.045 296.009 213.945 296.029 213.905C296.209 213.595 296.479 213.194 296.818 212.693C299.116 209.297 304.509 201.354 305.728 186.68C306.097 182.183 308.545 181.111 311.132 179.979C314.098 178.677 317.154 177.334 317.874 170.623C318.003 169.371 318.013 167.959 317.884 166.426C317.824 165.735 317.354 165.134 316.685 164.874C315.976 164.603 315.327 164.323 314.697 164.042C312.27 162.941 310.372 161.258 309.204 159.174C308.385 157.702 306.447 156.47 304.889 155.478C304.549 155.268 304.24 155.068 303.96 154.877L297.168 152.093C297.078 152.053 297.008 151.972 296.988 151.882L294.931 142.597C292.873 144.129 282.595 152.333 277.302 166.727C270.899 184.116 258.344 186.89 243.801 190.096C242.363 190.416 240.895 190.737 239.416 191.077C236.48 191.748 233.364 192.51 230.137 193.281C216.513 196.566 201.082 200.293 189.625 200.683C189.535 200.783 189.425 200.783 189.346 200.763C189.256 200.743 189.156 200.683 189.136 200.543C178.628 193.411 171.517 174.009 178.309 154.917C178.369 154.757 178.538 154.677 178.688 154.737C178.848 154.797 178.928 154.967 178.868 155.118C172.186 173.909 179.118 192.96 189.405 200.002C189.445 200.002 189.495 200.002 189.535 200.012C189.575 200.022 189.615 200.042 189.655 200.072C201.052 199.672 216.414 195.965 229.987 192.69C233.214 191.909 236.33 191.157 239.267 190.486C240.755 190.146 242.223 189.815 243.661 189.505C258.624 186.209 270.44 183.595 276.722 166.517C282.665 150.36 294.821 141.916 294.941 141.826C295.021 141.765 295.13 141.755 295.22 141.796C295.31 141.836 295.38 141.916 295.4 142.006L297.518 151.592L304.22 154.346C304.549 154.557 304.859 154.757 305.189 154.967C306.807 155.989 308.814 157.271 309.703 158.874C310.812 160.847 312.61 162.44 314.917 163.492C315.536 163.772 316.176 164.042 316.875 164.313C317.754 164.653 318.373 165.465 318.453 166.376C318.583 167.939 318.573 169.391 318.433 170.683C317.684 177.745 314.308 179.228 311.341 180.53C308.824 181.632 306.647 182.593 306.297 186.73C305.069 201.565 299.615 209.598 297.288 213.034C296.968 213.494 296.719 213.875 296.549 214.166C296.549 214.176 296.549 214.186 296.549 214.186C296.079 217.191 296.579 219.645 298.017 221.458C301.133 225.394 307.995 225.905 313.499 226.316C314.747 226.406 315.916 226.496 316.935 226.616C322.818 227.327 326.344 228.9 327.722 231.444C328.791 233.418 328.571 235.912 327.033 239.067C326.983 239.167 326.883 239.237 326.763 239.237C323.637 239.267 316.515 239.267 305.608 239.247C302.432 239.247 290.915 237.624 284.323 235.09C280.428 243.675 275.933 256.245 276.283 268.105C280.648 268.195 284.972 270.279 286.65 273.133C287.599 274.746 287.629 276.449 286.75 278.052C286.7 278.152 286.601 278.202 286.491 278.202L286.531 278.172Z" fill="#4D3D38"/>
<path d="M314.229 176.002C312.141 176.002 310.084 174.69 309.974 174.62C309.834 174.529 309.794 174.349 309.884 174.209C309.974 174.069 310.154 174.029 310.293 174.119C310.323 174.139 313.57 176.202 315.787 175.05C317.095 174.369 317.815 172.696 317.934 170.062C317.934 169.892 318.084 169.771 318.244 169.771C318.414 169.771 318.534 169.922 318.534 170.082C318.404 172.947 317.575 174.8 316.057 175.581C315.477 175.882 314.848 176.002 314.229 176.002Z" fill="#4D3D38"/>
<path d="M318.404 170.683C318.534 169.441 318.554 168.039 318.424 166.436C318.354 165.625 317.805 164.924 317.036 164.623C316.496 164.413 315.807 164.133 315.068 163.792C314.359 166.867 314.569 169.301 318.414 170.683H318.404Z" fill="#4D3D38"/>
<path d="M297.578 166.315C297.578 166.315 297.518 166.315 297.498 166.305C297.339 166.255 297.249 166.095 297.289 165.935C297.628 164.753 298.437 163.851 299.566 163.381C301.124 162.739 303.102 163.02 305.129 164.172C305.269 164.252 305.329 164.432 305.239 164.583C305.159 164.723 304.98 164.783 304.83 164.693C302.972 163.641 301.174 163.371 299.786 163.941C298.827 164.332 298.138 165.103 297.858 166.105C297.818 166.235 297.698 166.325 297.568 166.325L297.578 166.315Z" fill="#4D3D38"/>
<path d="M184.092 214.676C177.519 222.048 171.237 238.485 171.217 257.447C171.217 262.635 174.613 267.213 179.557 268.745C183.612 269.998 188.576 272.041 192.811 275.286C200.512 270.108 197.536 261.233 189.126 258.769C189.975 256.836 191.093 254.672 192.811 252.599C207.184 248.923 226.841 249.303 228.529 227.317" fill="#F7F2EA"/>
<path d="M192.822 275.587C192.762 275.587 192.692 275.567 192.642 275.527C189.126 272.832 184.691 270.649 179.478 269.036C174.364 267.453 170.928 262.796 170.928 257.457C170.938 243.734 174.993 224.442 183.872 214.485C183.982 214.365 184.172 214.355 184.292 214.465C184.412 214.576 184.422 214.766 184.312 214.886C175.532 224.722 171.527 243.854 171.517 257.457C171.517 262.535 174.783 266.962 179.647 268.465C184.841 270.078 189.276 272.241 192.822 274.916C195.868 272.792 197.346 269.867 196.877 266.842C196.328 263.296 193.331 260.311 189.046 259.059C188.966 259.039 188.896 258.979 188.857 258.899C188.817 258.819 188.817 258.729 188.857 258.649C189.556 257.056 190.704 254.682 192.582 252.408C192.622 252.358 192.682 252.328 192.742 252.308C195.109 251.707 197.566 251.216 200.163 250.706C213.278 248.121 226.842 245.437 228.24 227.287C228.25 227.116 228.4 227.006 228.56 227.006C228.729 227.016 228.849 227.166 228.839 227.327C227.411 245.928 212.998 248.772 200.283 251.286C197.726 251.787 195.309 252.268 192.992 252.859C191.324 254.892 190.285 256.946 189.556 258.579C193.891 259.951 196.917 263.056 197.486 266.752C197.996 270.068 196.358 273.273 192.992 275.537C192.942 275.567 192.882 275.587 192.822 275.587Z" fill="#4D3D38"/>
<path d="M150.303 263.938C150.303 263.938 150.253 263.938 150.223 263.928C150.063 263.888 149.963 263.718 150.013 263.557L157.494 235.04C157.534 234.88 157.704 234.79 157.864 234.83C158.023 234.87 158.123 235.04 158.073 235.2L150.592 263.718C150.552 263.848 150.432 263.938 150.303 263.938Z" fill="#4D3D38"/>
<path d="M22.6135 372.999C22.8832 372.999 23.6024 373.009 23.872 373.009C25.2604 373.019 26.6787 373.029 28.117 373.029H28.2768C28.137 371.386 28.0171 369.603 27.9073 367.65C27.5777 361.791 27.3779 354.518 27.4978 345.714C21.9343 287.187 22.9232 219.795 48.8625 185.618C48.8625 185.618 57.6221 162.73 45.3067 179.238C20.3862 212.653 17.8691 259.841 17.8691 290.502C17.8691 321.163 20.4761 342.318 22.224 367.69C22.3438 369.453 22.4737 371.216 22.6235 372.989" fill="#30995B"/>
<path d="M28.6053 373.329H28.1159C26.6776 373.329 25.2593 373.329 23.8709 373.309L22.3427 373.289L22.3227 373.018C22.1729 371.246 22.0431 369.473 21.9232 367.72C21.4638 361.059 20.9444 354.608 20.435 348.368C18.9567 330.248 17.5684 313.139 17.5684 290.512C17.5684 258.498 20.415 212.102 45.0658 179.067C49.5805 173.017 50.9389 172.686 51.6281 173.057C53.4459 174.058 50.1898 183.013 49.151 185.728L49.111 185.798C22.3028 221.116 22.7323 292.234 27.8063 345.683C27.6964 353.586 27.8362 360.958 28.2158 367.63C28.3256 369.543 28.4555 371.346 28.5853 372.998L28.6153 373.319L28.6053 373.329ZM22.8921 372.698H23.8809C25.2193 372.718 26.5777 372.728 27.9561 372.728C27.8262 371.155 27.7164 369.463 27.6065 367.67C27.2269 360.978 27.0871 353.596 27.197 345.713C22.113 292.214 21.6935 220.966 48.5917 185.477C50.6293 180.149 52.2473 174.098 51.3284 173.588C51.0887 173.457 49.97 173.487 45.5353 179.427C20.9943 212.322 18.1577 258.579 18.1577 290.512C18.1577 313.109 19.546 330.207 21.0243 348.317C21.5337 354.558 22.0531 361.019 22.5125 367.68C22.6224 369.342 22.7522 371.025 22.8921 372.698Z" fill="#4D3D38"/>
<path d="M56.1744 125.207C63.3259 123.635 70.7671 122.853 77.629 122.743C62.5368 150.91 85.0202 145.09 81.2447 122.743C86.7282 122.843 91.7123 123.394 95.7176 124.306C98.9438 125.047 102.2 126.099 102.27 129.504C102.48 138.589 102.31 146.633 101.75 153.855C84.0514 144.72 72.2254 161.187 101.361 158.232C100.692 164.663 99.6729 170.412 98.3045 175.621C60.8488 162.93 61.538 181.4 97.2458 179.357C95.8275 183.945 94.0995 188.132 92.0619 192.018C91.133 193.791 89.8845 195.494 88.3763 197.076C51.2202 170.162 58.5216 191.527 84.6107 200.372C73.0144 208.896 53.5075 210.679 43.9288 190.906C41.9811 186.89 38.6351 183.744 34.52 182.032C17.5201 174.96 9.73928 154.977 28.567 138.159C27.9178 155.848 53.3677 189.324 32.2027 135.204C37.6363 131.167 44.618 128.212 52.1192 126.209C44.4582 156.86 65.0039 169.691 56.1843 125.217L56.1744 125.207Z" fill="#30995B"/>
<path d="M66.751 206.763C64.6934 206.763 62.6658 206.522 60.7081 206.042C53.4267 204.229 47.5337 199.04 43.6583 191.037C41.7506 187.1 38.4644 184.005 34.3992 182.312C25.31 178.536 19.0374 171.254 17.6191 162.85C16.1708 154.256 19.9863 145.411 28.3564 137.939L28.8858 137.468L28.8558 138.169C28.4862 148.266 36.6066 163.05 39.4533 164.332C39.8228 164.503 39.9527 164.382 40.0026 164.332C40.4021 163.952 41.8704 160.776 31.9122 135.304L31.8323 135.094L32.0121 134.954C37.146 131.137 43.878 128.092 52.0284 125.909L52.5178 125.778L52.398 126.269C48.8921 140.303 51.3492 151.221 54.3856 153.404C54.935 153.795 55.4543 153.845 55.9238 153.534C57.7516 152.352 59.8092 145.06 55.8738 125.258L55.8139 124.967L56.1036 124.907C62.9255 123.404 70.3667 122.553 77.6181 122.433H78.1275L77.8878 122.874C72.1246 133.641 71.9149 139.341 73.493 140.954C74.0723 141.545 74.9213 141.595 75.8902 141.094C79.0065 139.501 82.6322 132.77 80.9442 122.783L80.8843 122.423H81.2438C86.6874 122.533 91.7115 123.074 95.7766 123.995C99.0228 124.737 102.489 125.829 102.569 129.485C102.778 138.67 102.609 146.653 102.039 153.865L102.009 154.316L101.61 154.105C93.6392 149.999 86.9471 151.14 84.7297 153.264C84.2403 153.735 83.7409 154.476 84.1404 155.337C85.0194 157.241 90.0434 159.054 101.32 157.922L101.69 157.882L101.65 158.252C100.971 164.703 99.9717 170.402 98.5933 175.691L98.5534 175.861L98.2937 175.922L98.2038 175.892C81.2438 170.142 72.5941 170.893 70.9161 172.806C70.5864 173.177 70.5465 173.588 70.7662 174.048C72.0447 176.683 81.094 179.968 97.215 179.037L97.7443 178.887L97.5146 179.427C96.1063 183.985 94.3983 188.152 92.3108 192.139C91.3719 193.921 90.1233 195.644 88.5752 197.267L88.5152 197.327L88.2955 197.377L88.1756 197.297C80.4148 191.678 66.4513 182.633 63.375 184.406C63.2052 184.506 62.9954 184.686 63.0354 185.177C63.2951 187.831 71.1757 195.484 84.6798 200.062L85.2291 200.242L84.7597 200.582C79.3161 204.589 72.8937 206.723 66.731 206.723L66.751 206.763ZM28.2565 138.85C20.4058 146.082 16.84 154.546 18.2184 162.75C19.5968 170.953 25.7395 178.055 34.629 181.761C38.824 183.504 42.23 186.709 44.1977 190.776C47.9932 198.609 53.7464 203.688 60.858 205.451C68.3391 207.314 76.9289 205.451 83.9606 200.472C71.2956 196.055 62.7857 188.563 62.4561 185.267C62.3762 184.496 62.7557 184.105 63.0853 183.915C65.1229 182.743 72.8238 185.487 88.3255 196.686C89.7538 195.164 90.9124 193.551 91.7814 191.888C93.789 188.052 95.447 184.045 96.8154 179.678C79.7656 180.589 71.4654 176.893 70.2269 174.329C69.8973 173.648 69.9872 172.977 70.4666 172.426C72.5841 170.012 82.1328 169.872 98.0939 175.24C99.4024 170.172 100.361 164.713 101.02 158.573C86.7673 159.955 84.0805 156.66 83.6011 155.608C83.1815 154.696 83.4412 153.685 84.3202 152.843C86.6175 150.63 93.4294 149.378 101.49 153.384C102.019 146.302 102.179 138.49 101.979 129.515C101.909 126.289 98.8131 125.318 95.6568 124.596C91.7314 123.705 86.8772 123.174 81.6034 123.054C83.1915 133.151 79.406 139.992 76.1698 141.645C74.9613 142.266 73.8326 142.166 73.0735 141.384C71.2956 139.561 71.4554 133.802 77.1287 123.054C70.1769 123.194 63.0753 124.026 56.5231 125.438C60.1887 144.049 58.6705 152.483 56.2534 154.045C55.5742 154.486 54.7951 154.426 54.046 153.895C50.8298 151.581 48.2628 140.853 51.6988 126.62C43.938 128.753 37.5056 131.668 32.5614 135.304C39.3434 152.673 42.1401 163.14 40.4221 164.773C40.2124 164.973 39.8228 165.164 39.2136 164.883C35.8875 163.381 28.2565 148.827 28.2465 138.84L28.2565 138.85Z" fill="#4D3D38"/>
<path d="M41.1504 186.759C73.8917 154.205 97.9932 125.087 100.081 125.858C100.5 126.019 100.77 126.109 100.7 126.069C94.3075 122.933 86.7265 122.843 81.243 122.743C85.0185 145.09 62.5351 150.91 77.6273 122.743C70.7654 122.853 63.3242 123.635 56.1726 125.207C65.0022 169.671 44.4565 156.85 52.1074 126.199C44.6163 128.212 37.6246 131.157 32.191 135.194C53.3659 189.324 27.9061 155.838 28.5553 138.149C9.72756 154.967 17.5084 174.95 34.5083 182.021C37.0652 183.083 39.3325 184.706 41.1504 186.749V186.759Z" fill="#30995B"/>
<path d="M41.1413 187.2L40.9315 186.96C39.1436 184.957 36.8863 183.344 34.3992 182.312C25.31 178.536 19.0374 171.254 17.6191 162.85C16.1708 154.256 19.9863 145.411 28.3564 137.939L28.8858 137.468L28.8558 138.169C28.5062 147.745 36.2471 162.88 39.4533 164.332C39.8228 164.503 39.9527 164.382 40.0026 164.332C40.4021 163.952 41.8704 160.776 31.9122 135.304L31.8323 135.094L32.0121 134.954C37.146 131.137 43.878 128.092 52.0284 125.909L52.5178 125.778L52.398 126.269C48.8921 140.303 51.3492 151.221 54.3856 153.404C54.935 153.795 55.4444 153.845 55.9238 153.534C57.7516 152.352 59.8092 145.06 55.8738 125.258L55.8139 124.967L56.1036 124.907C62.9255 123.404 70.3667 122.553 77.6181 122.433H78.1275L77.8878 122.874C72.1246 133.641 71.9149 139.341 73.493 140.954C74.0723 141.545 74.9213 141.595 75.8902 141.094C79.0065 139.501 82.6322 132.77 80.9442 122.783L80.8843 122.423H81.5135C86.9871 122.533 94.4782 122.673 100.831 125.788L101.09 125.909L100.99 126.179C100.871 126.45 100.791 126.419 99.9817 126.119C99.9817 126.119 99.9717 126.119 99.9617 126.119C98.8231 126.119 91.4318 134.132 82.0829 144.259C71.7551 155.458 57.6018 170.793 41.361 186.95L41.1413 187.17V187.2ZM28.2465 138.85C20.3958 146.082 16.83 154.546 18.2084 162.75C19.5868 170.953 25.7295 178.055 34.619 181.761C37.0961 182.793 39.3434 184.366 41.1513 186.329C57.2922 170.272 71.3555 155.027 81.6334 143.878C92.4306 132.169 97.3348 126.91 99.3325 125.788C93.4095 123.284 86.6375 123.144 81.5834 123.054C83.1716 133.151 79.386 139.992 76.1499 141.645C74.9413 142.266 73.8126 142.166 73.0535 141.384C71.2756 139.561 71.4354 133.802 77.1087 123.054C70.157 123.194 63.0554 124.026 56.5031 125.438C60.1688 144.049 58.6506 152.483 56.2334 154.045C55.5542 154.486 54.7751 154.426 54.026 153.895C50.8098 151.581 48.2429 140.853 51.6788 126.62C43.918 128.753 37.4856 131.668 32.5414 135.304C39.3234 152.673 42.1201 163.14 40.4022 164.773C40.1924 164.973 39.8029 165.164 39.1936 164.883C35.8675 163.381 28.2365 148.827 28.2266 138.84L28.2465 138.85Z" fill="#4D3D38"/>
<path d="M23.5918 372.157C23.8515 372.187 24.5806 372.257 24.8403 372.287C26.2187 372.428 27.627 372.558 29.0653 372.688H29.2251C29.2351 371.055 29.2751 369.262 29.335 367.309C29.5248 361.449 29.9842 354.187 30.9031 345.423C33.6699 318.889 40.6316 278.612 57.1521 221.778C57.1521 221.778 65.3924 197.638 55.4241 215.678C49.2714 226.816 38.1346 256.525 30.7933 296.832C26.9978 317.697 24.2111 341.396 23.6717 366.828C23.6317 368.591 23.6018 370.364 23.5918 372.137" fill="#30995B"/>
<path d="M29.5258 373.039L29.0364 372.989C27.6081 372.859 26.1998 372.729 24.8114 372.588C24.5417 372.558 23.8226 372.488 23.5529 372.458L23.2832 372.428V372.158C23.3032 370.375 23.3232 368.602 23.3631 366.839C23.8525 343.61 26.2497 320.051 30.4847 296.803C37.3166 259.31 48.0539 228.399 55.1555 215.558C58.8611 208.837 59.7301 208.516 60.2495 208.757C61.508 209.318 59.0209 217.231 57.4328 221.898C43.6291 269.387 34.7996 310.966 31.1938 345.473C30.3748 353.296 29.8554 360.649 29.6357 367.33C29.5758 369.253 29.5358 371.056 29.5258 372.709V373.039ZM23.8925 371.887C24.2221 371.917 24.6716 371.967 24.8713 371.987C26.1998 372.118 27.5581 372.248 28.9265 372.378C28.9365 370.815 28.9765 369.103 29.0364 367.31C29.2561 360.609 29.7855 353.246 30.6045 345.403C34.2103 310.856 43.0398 269.237 56.8635 221.708C58.7812 216.079 60.4692 209.898 59.9898 209.277C59.8699 209.328 58.991 209.858 55.6949 215.848C50.6209 225.044 38.9347 253.821 31.094 296.913C26.869 320.131 24.4718 343.67 23.9824 366.859C23.9424 368.532 23.9224 370.214 23.9025 371.897L23.8925 371.887Z" fill="#4D3D38"/>
<path d="M108.181 202.386C112.746 207.735 116.811 213.645 120.077 219.344C90.5821 218.032 105.634 234.489 121.745 222.369C124.202 226.997 126.07 231.384 127.189 235.1C128.088 238.095 128.747 241.24 126.06 242.673C118.899 246.489 112.386 249.574 106.353 252.008C105.464 233.538 86.8365 230.252 102.668 253.441C97.2142 255.464 92.1602 256.916 87.3559 257.868C80.1844 221.448 65.7315 229.441 83.88 258.479C79.5551 259.13 75.41 259.37 71.3648 259.22C69.517 259.15 67.5793 258.789 65.6216 258.168C69.9465 216.289 56.2527 230.973 61.2468 256.345C47.8027 249.414 36.4761 231.134 54.265 213.574C47.5929 194.042 60.1381 174.389 85.0586 184.516C70.6157 191.067 55.6334 225.785 89.1038 186.369C94.847 189.294 100.43 193.952 105.504 199.411C77.4676 205.301 76.7185 227.638 108.171 202.406L108.181 202.386Z" fill="#30995B"/>
<path d="M73.6828 259.55C72.9037 259.55 72.1346 259.54 71.3556 259.51C69.4978 259.44 67.5401 259.079 65.5324 258.438L65.4525 258.408L65.3127 258.248V258.118C67.2704 239.337 65.4825 232.976 64.1141 232.185C63.9643 232.095 63.7146 232.005 63.355 232.265C61.3574 233.697 58.9702 243.203 61.5472 256.265L61.667 256.876L61.1177 256.595C54.3457 253.11 46.5749 245.838 45.0667 235.911C43.8881 228.168 46.9544 220.415 53.9262 213.464C50.4603 203.147 52.3181 192.609 58.6806 186.579C64.9332 180.649 74.342 179.808 85.1792 184.205L85.8284 184.466L85.1892 184.756C77.0488 188.452 69.0483 200.983 69.1981 203.998C69.2181 204.449 69.4079 204.509 69.4678 204.539C69.9572 204.709 73.2034 204.609 88.8848 186.138L89.0346 185.958L89.2444 186.068C94.668 188.833 100.211 193.24 105.735 199.18L106.094 199.571L105.575 199.681C91.8913 202.556 85.329 209.157 84.8596 212.041C84.7497 212.733 84.9495 213.233 85.4489 213.524C87.2468 214.576 94.0088 213.364 107.992 202.145L108.222 201.965L108.412 202.185C112.767 207.294 116.892 213.163 120.338 219.183L120.607 219.654L120.058 219.634C109.011 219.133 104.317 221.187 103.647 223.09C103.298 224.081 104.087 224.843 104.596 225.213C107.293 227.197 114.345 227.557 121.566 222.118L121.846 221.908L122.006 222.218C124.443 226.816 126.341 231.233 127.479 235C128.388 238.025 129.117 241.37 126.211 242.923C118.959 246.779 112.507 249.844 106.474 252.268L106.084 252.428L106.065 252.008C105.655 243.484 101.46 238.305 98.7432 237.494C98.2138 237.333 97.4747 237.273 97.0252 237.884C95.9365 239.387 96.8254 244.305 102.928 253.25L103.148 253.57L102.788 253.701C97.3248 255.724 92.3008 257.176 87.4265 258.138L87.2568 258.168L87.077 257.898C83.7909 241.23 79.0565 234.278 76.8391 233.818C76.4395 233.737 76.1299 233.858 75.8902 234.208C74.402 236.342 75.9801 245.226 84.1504 258.288L84.5699 258.709L83.9407 258.749C80.4448 259.28 77.0688 259.54 73.6928 259.54L73.6828 259.55ZM65.942 257.938C67.8197 258.519 69.6476 258.849 71.3755 258.909C75.3608 259.049 79.2962 258.829 83.4013 258.238C75.7604 245.888 73.5729 236.502 75.3908 233.878C75.7703 233.337 76.3197 233.116 76.9489 233.247C79.9654 233.878 84.5799 242.412 87.5963 257.507C92.2309 256.575 97.0252 255.193 102.209 253.28C97.0352 245.627 94.9177 239.757 96.5358 237.544C97.0452 236.843 97.8942 236.622 98.913 236.923C101.74 237.774 106.094 243.003 106.634 251.567C112.537 249.173 118.849 246.168 125.921 242.402C128.188 241.2 127.979 238.746 126.9 235.18C125.801 231.534 123.983 227.267 121.636 222.819C114.265 228.218 107.043 227.778 104.227 225.704C103.148 224.913 102.718 223.881 103.068 222.889C103.438 221.838 105.715 218.482 119.529 219.013C116.203 213.273 112.277 207.684 108.122 202.796C94.9477 213.314 87.5065 215.437 85.1293 214.045C84.4101 213.624 84.1005 212.883 84.2503 211.941C84.8096 208.476 91.7614 202.085 104.916 199.2C99.6421 193.591 94.3484 189.384 89.1645 186.709C78.4572 199.3 71.3855 205.841 69.258 205.11C68.9684 205.01 68.6188 204.739 68.5788 204.038C68.409 200.512 76.4196 188.522 84.3003 184.516C73.9625 180.489 65.0231 181.371 59.0701 187.02C52.8475 192.93 51.0696 203.307 54.5355 213.454L54.5954 213.634L54.4655 213.764C47.5337 220.606 44.4873 228.228 45.646 235.821C47.0843 245.257 54.3257 252.248 60.828 255.764C58.5307 243.484 60.5084 233.547 62.9954 231.774C63.5947 231.343 64.0942 231.474 64.4038 231.664C66.3315 232.786 67.7299 240.288 65.932 257.938H65.942Z" fill="#4D3D38"/>
<path d="M53.3361 214.526C62.0158 214.846 70.6656 215.998 78.8958 218.933C88.6343 222.399 98.0032 227.076 107.532 231.063C114.274 233.888 121.086 236.602 127.978 239.056C127.948 237.814 127.598 236.442 127.189 235.1C126.06 231.384 124.192 226.996 121.745 222.369C105.634 234.489 90.582 218.021 120.077 219.344C116.811 213.644 112.746 207.734 108.181 202.385C76.7184 227.607 77.4775 205.28 105.514 199.39C100.44 193.931 94.847 189.264 89.1137 186.349C55.6433 225.774 70.6356 191.047 85.0685 184.496C60.148 174.369 47.6028 194.022 54.2749 213.554C53.9453 213.875 53.6457 214.205 53.3361 214.526Z" fill="#30995B"/>
<path d="M128.289 239.487L127.88 239.337C121.677 237.123 114.985 234.499 107.424 231.333C104.048 229.921 100.642 228.389 97.3358 226.916C91.3129 224.222 85.0803 221.437 78.7977 219.203C71.5063 216.609 63.1762 215.177 53.3278 214.816L52.6586 214.796L53.3578 214.065C53.5476 213.864 53.7374 213.664 53.9271 213.464C50.4612 203.147 52.319 192.609 58.6715 186.579C64.9141 180.649 74.333 179.808 85.1702 184.205L85.8194 184.466L85.1802 184.756C77.0398 188.452 69.0392 200.983 69.1891 203.998C69.209 204.449 69.3988 204.509 69.4588 204.539C69.9482 204.709 73.1943 204.609 88.8758 186.138L89.0256 185.958L89.2354 186.068C94.6589 188.833 100.202 193.24 105.726 199.18L106.085 199.571L105.566 199.681C92.931 202.335 85.4199 208.566 84.8505 212.041C84.7407 212.733 84.9404 213.233 85.4399 213.524C87.2377 214.576 93.9997 213.364 107.983 202.145L108.213 201.965L108.403 202.185C112.758 207.294 116.883 213.173 120.329 219.183L120.598 219.654L120.049 219.634C109.002 219.143 104.308 221.187 103.638 223.09C103.289 224.081 104.078 224.843 104.587 225.213C107.284 227.197 114.336 227.557 121.557 222.118L121.837 221.908L121.997 222.218C124.434 226.816 126.331 231.233 127.47 235C127.85 236.252 128.239 237.714 128.269 239.036V239.467L128.289 239.487ZM54.017 214.245C63.6356 214.646 71.816 216.088 79.0075 218.642C85.31 220.886 91.5526 223.671 97.5855 226.375C100.882 227.848 104.288 229.37 107.654 230.783C115.035 233.878 121.587 236.442 127.66 238.626C127.57 237.494 127.24 236.262 126.911 235.19C125.812 231.544 123.994 227.277 121.647 222.829C114.276 228.228 107.054 227.788 104.238 225.714C103.159 224.913 102.729 223.891 103.079 222.899C103.449 221.848 105.726 218.492 119.54 219.023C116.213 213.284 112.288 207.694 108.133 202.806C94.9586 213.324 87.5174 215.447 85.1402 214.055C84.4211 213.634 84.1114 212.893 84.2612 211.951C84.8206 208.486 91.7724 202.095 104.927 199.21C99.653 193.601 94.3593 189.394 89.1754 186.719C78.4681 199.31 71.3965 205.851 69.269 205.12C68.9793 205.02 68.6297 204.749 68.5898 204.048C68.42 200.522 76.4305 188.532 84.3112 184.526C73.9734 180.499 65.034 181.381 59.081 187.03C52.8584 192.94 51.0805 203.317 54.5464 213.464L54.6063 213.644L54.4765 213.774C54.3167 213.935 54.1569 214.095 54.007 214.255L54.017 214.245Z" fill="#4D3D38"/>
<path d="M109.309 226.039L103.082 231.973L142.328 273.389L148.555 267.455L109.309 226.039Z" fill="#FFD16D"/>
<path d="M142.321 273.814L102.658 231.965L109.32 225.614L148.983 267.464L142.321 273.814ZM103.507 231.985L142.341 272.963L148.134 267.444L109.3 226.466L103.507 231.985Z" fill="#4D3D38"/>
<path d="M133.422 263.366C168.86 263.366 187.638 268.996 193.102 274.485C198.455 269.116 216.484 263.316 249.535 263.316V277.961H133.412V263.366H133.422Z" fill="#F7F2EA"/>
<path d="M249.545 278.262H133.423C133.253 278.262 133.123 278.132 133.123 277.961V263.367C133.123 263.197 133.253 263.067 133.423 263.067C168.891 263.067 187.439 268.706 193.102 274.065C198.765 268.686 216.474 263.017 249.535 263.017C249.705 263.017 249.835 263.147 249.835 263.317V277.961C249.835 278.132 249.705 278.262 249.535 278.262H249.545ZM133.722 277.661H249.246V263.618C228.45 263.648 201.442 266.562 193.322 274.696C193.212 274.806 193.012 274.806 192.902 274.696C187.599 269.377 169.27 263.698 133.732 263.668V277.661H133.722Z" fill="#4D3D38"/>
<path d="M101.28 226.028L103.474 223.937C104.589 222.875 106.347 222.927 107.399 224.038L109.305 226.049L103.078 231.983L101.173 229.972C100.113 228.853 100.165 227.091 101.273 226.035L101.28 226.028Z" fill="#FF859C"/>
<path d="M103.068 232.395L100.96 230.171C99.7916 228.939 99.8416 226.976 101.07 225.804L103.258 223.711C103.857 223.14 104.626 222.839 105.455 222.859C106.274 222.879 107.043 223.22 107.612 223.821L109.72 226.045L103.058 232.395H103.068ZM105.385 223.46C104.746 223.46 104.146 223.701 103.677 224.141L101.49 226.235C100.501 227.176 100.461 228.759 101.4 229.751L103.098 231.544L108.891 226.025L107.193 224.232C106.733 223.751 106.124 223.47 105.455 223.46C105.435 223.46 105.415 223.46 105.395 223.46H105.385Z" fill="#4D3D38"/>
<path d="M59.1402 303.354C46.2754 334.345 41.8007 355.42 40.3824 368.131C40.1626 370.114 40.0128 371.907 39.9229 373.49C39.0739 373.49 38.2249 373.49 37.356 373.49H37.1962C35.7579 373.49 34.3395 373.49 32.9512 373.47C32.9512 373.33 32.9512 373.179 32.9711 373.039C33.0311 371.376 33.121 369.744 33.2408 368.131C33.3906 366.048 33.5804 364.004 33.8201 362.011C34.4694 356.382 35.4183 351.103 36.5769 346.185C41.7108 324.338 50.86 309.664 55.4645 303.945C62.1466 295.651 59.1402 303.364 59.1402 303.364V303.354Z" fill="#30995B"/>
<path d="M37.3568 373.79H37.197C35.7587 373.79 34.3404 373.79 32.952 373.77H32.6523V373.46C32.6523 373.31 32.6523 373.169 32.6723 373.019C32.7322 371.386 32.8221 369.734 32.942 368.111C33.0918 366.078 33.2816 364.014 33.5213 361.971C34.1406 356.612 35.0695 351.273 36.288 346.104C42.241 320.782 53.1181 306.369 55.2356 303.744C58.3819 299.848 59.2808 299.577 59.7803 299.868C60.5294 300.298 59.8801 302.302 59.4307 303.464C46.4161 334.836 42.0612 355.961 40.7028 368.161C40.4931 370.034 40.3432 371.827 40.2434 373.5L40.2234 373.78H39.9437C39.0947 373.78 38.2357 373.79 37.3768 373.79H37.3568ZM33.2616 373.169C34.5501 373.179 35.8586 373.189 37.197 373.189H37.3568C38.1259 373.189 38.885 373.189 39.6441 373.189C39.744 371.587 39.8938 369.884 40.0935 368.101C41.4619 355.861 45.8268 334.675 58.8713 303.243C59.3707 301.951 59.6604 300.589 59.4706 300.389C59.4207 300.369 58.7515 300.339 55.7051 304.125C53.5976 306.739 42.8003 321.053 36.8773 346.245C35.6688 351.393 34.7399 356.712 34.1206 362.041C33.8809 364.074 33.6911 366.128 33.5413 368.151C33.4214 369.764 33.3315 371.416 33.2716 373.049C33.2716 373.089 33.2716 373.129 33.2716 373.169H33.2616Z" fill="#4D3D38"/>
<path d="M109.74 315.172C111.058 321.643 111.697 328.344 111.757 334.515C87.486 320.271 92.4002 340.605 111.737 337.77C111.617 342.688 111.118 347.156 110.309 350.731C109.65 353.616 108.721 356.511 105.774 356.491C97.9236 356.451 90.9619 356.1 84.7292 355.419C92.7198 339.743 78.5565 328.705 80.9437 354.958C75.3903 354.197 70.4262 353.145 65.9215 351.793C77.0983 318.448 61.1272 318.618 62.7053 350.741C58.74 349.349 55.1442 347.696 51.7882 345.773C50.26 344.892 48.7917 343.73 47.4334 342.338C70.9056 309.613 52.3975 315.653 44.6067 338.872C36.5362 327.142 35.6373 306.959 58.9597 300.358C62.5655 281.216 82.4619 270.548 98.7027 290.051C83.4108 289.029 54.3352 311.076 101.24 293.386C104.696 298.365 107.213 304.715 108.911 311.496C82.4619 303.864 71.2552 322.014 109.74 315.172Z" fill="#30995B"/>
<path d="M105.795 356.792C105.795 356.792 105.775 356.792 105.765 356.792C97.8142 356.752 90.9223 356.401 84.6897 355.72L84.2602 355.67L84.46 355.279C88.0857 348.178 87.0569 342.017 85.2191 340.094C84.8395 339.694 84.2302 339.273 83.5311 339.593C81.893 340.335 80.3149 344.802 81.2338 354.929L81.2637 355.31L80.8942 355.259C75.3208 354.498 70.3966 353.456 65.832 352.084L65.6722 352.034L65.6123 351.784L65.6422 351.694C70.7162 336.578 70.047 328.675 68.4389 327.253C68.1393 326.993 67.8096 326.942 67.4401 327.123C65.1728 328.215 62.2962 336.258 63.0053 350.722L63.1452 351.263L62.6158 351.022C58.6805 349.64 55.0947 348.007 51.6488 346.024C50.1106 345.143 48.6223 343.971 47.234 342.538L47.1641 342.428L47.1141 342.278L47.204 342.148C57.6716 327.553 59.2098 321.473 58.4707 320.191C58.3908 320.051 58.231 319.861 57.8215 319.911C55.5342 320.141 48.892 327.073 44.9067 338.962L44.717 339.533L44.3774 339.043C40.4121 333.273 37.2957 323.968 40.452 315.183C43.029 308.021 49.3415 302.822 58.7204 300.128C60.6881 290.031 67.2503 282.138 75.4806 279.985C83.551 277.881 91.8912 281.387 98.9428 289.861L99.3923 290.402L98.6931 290.352C89.9335 289.771 77.3084 296.602 76.0699 299.176C75.9101 299.517 76.01 299.637 76.0499 299.677C76.3795 300.038 79.1263 301.41 101.14 293.106L101.36 293.026L101.49 293.217C104.766 297.924 107.363 304.055 109.201 311.427L109.331 311.938L108.831 311.797C95.7466 308.021 87.1468 310.615 85.4588 312.839C85.0792 313.33 85.0293 313.811 85.299 314.251C86.3078 315.914 92.5903 317.928 109.7 314.882L109.99 314.832L110.05 315.123C111.308 321.293 112.007 327.994 112.067 334.515V335.046L111.618 334.775C102.449 329.397 97.5345 329.026 96.1062 330.338C95.387 330.999 95.6967 331.961 95.9364 332.482C97.2848 335.316 103.068 338.742 111.708 337.47L112.057 337.42V337.78C111.927 342.679 111.438 347.176 110.619 350.802C109.96 353.707 108.991 356.802 105.815 356.802L105.795 356.792ZM85.1791 355.169C91.2819 355.82 98.0239 356.151 105.765 356.191C108.212 356.211 109.231 354.087 110.01 350.662C110.799 347.166 111.288 342.829 111.418 338.111C102.668 339.283 96.7754 335.697 95.377 332.732C94.8377 331.6 94.9476 330.558 95.6767 329.887C97.3048 328.385 102.299 328.695 111.448 333.984C111.358 327.764 110.689 321.403 109.51 315.514C93.4094 318.338 86.128 316.766 84.7796 314.552C84.3801 313.901 84.45 313.16 84.9793 312.468C87.0869 309.694 96.4058 307.701 108.492 311.066C106.694 304.085 104.227 298.265 101.13 293.747C92.3207 297.063 77.5381 302.191 75.6104 300.078C75.4206 299.868 75.2509 299.497 75.5305 298.906C76.9389 295.981 89.534 289.54 98.0339 289.711C91.2319 281.808 83.2913 278.552 75.6204 280.556C67.5599 282.659 61.1375 290.452 59.2598 300.408L59.2298 300.589L59.05 300.639C49.771 303.263 43.5284 308.362 41.0114 315.373C38.0149 323.697 40.8116 332.512 44.5272 338.191C48.3926 327.063 54.8949 319.59 57.7515 319.31C58.2909 319.26 58.7304 319.46 58.9801 319.891C60.0289 321.724 57.6517 328.565 47.8233 342.298C49.1218 343.61 50.5101 344.692 51.9284 345.503C55.2146 347.396 58.6405 348.969 62.3861 350.301C61.7868 336.649 64.3837 327.914 67.1704 326.572C67.7597 326.291 68.349 326.362 68.8285 326.792C70.9659 328.685 71.0758 337.24 66.3014 351.583C70.6463 352.875 75.3407 353.867 80.6045 354.598C79.8554 345.944 80.8542 340.144 83.2813 339.033C84.0704 338.672 84.9194 338.892 85.6486 339.664C87.6262 341.737 88.7449 347.877 85.1791 355.149V355.169Z" fill="#4D3D38"/>
<path d="M85.6694 329.817C93.2205 337.54 101.001 346.155 109.641 353.086C109.911 352.335 110.121 351.534 110.3 350.722C111.109 347.146 111.609 342.679 111.729 337.761C92.3915 340.605 87.4773 320.262 111.749 334.505C111.689 328.335 111.059 321.634 109.731 315.163C71.2465 322.005 82.4433 303.854 108.902 311.487C107.204 304.706 104.697 298.355 101.231 293.377C54.3265 311.066 83.4021 289.02 98.694 290.042C82.4533 270.549 62.5668 281.207 58.9511 300.349C58.8911 300.369 58.8412 300.389 58.7812 300.399C67.481 310.435 76.3804 320.302 85.6694 329.797V329.817Z" fill="#30995B"/>
<path d="M109.791 353.587L109.461 353.326C102.559 347.787 96.2368 341.206 90.114 334.836C88.5559 333.213 87.0077 331.6 85.4695 330.028C77.0595 321.434 68.5196 312.088 58.5714 300.609L58.2617 300.248L58.7112 300.118C60.6789 290.021 67.2411 282.118 75.4714 279.975C83.5418 277.871 91.882 281.377 98.9336 289.851L99.3831 290.392L98.6839 290.342C89.9243 289.761 77.2992 296.592 76.0607 299.167C75.9009 299.507 76.0007 299.627 76.0407 299.667C76.3703 300.028 79.117 301.4 101.131 293.097L101.351 293.016L101.481 293.207C104.757 297.915 107.354 304.045 109.191 311.417L109.321 311.928L108.822 311.788C95.7374 308.011 87.1376 310.606 85.4496 312.829C85.07 313.32 85.0201 313.801 85.2897 314.242C86.2986 315.904 92.5811 317.918 109.691 314.873L109.981 314.823L110.04 315.113C111.299 321.283 111.998 327.984 112.058 334.505V335.036L111.609 334.766C102.449 329.387 97.5253 329.016 96.097 330.328C95.3778 330.989 95.6875 331.951 95.9272 332.472C97.2756 335.307 103.059 338.732 111.699 337.46L112.048 337.41V337.771C111.918 342.669 111.429 347.166 110.61 350.792C110.39 351.774 110.17 352.535 109.941 353.186L109.801 353.587H109.791ZM59.2406 300.479C69.0789 311.828 77.5489 321.083 85.889 329.597C87.4272 331.17 88.9754 332.782 90.5435 334.405C96.5564 340.655 102.769 347.116 109.501 352.575C109.671 352.034 109.841 351.413 110.011 350.652C110.8 347.156 111.289 342.819 111.419 338.101C102.669 339.273 96.7762 335.687 95.3778 332.722C94.8385 331.59 94.9483 330.549 95.6775 329.878C97.3055 328.375 102.3 328.686 111.449 333.974C111.359 327.754 110.69 321.394 109.511 315.504C93.4101 318.328 86.1288 316.756 84.7803 314.542C84.3808 313.891 84.4507 313.15 84.9801 312.459C87.0976 309.684 96.4066 307.691 108.502 311.056C106.704 304.075 104.227 298.255 101.141 293.738C92.3314 297.053 77.5489 302.182 75.6212 300.068C75.4314 299.858 75.2616 299.487 75.5413 298.896C76.9496 295.971 89.5447 289.531 98.0447 289.701C91.2427 281.798 83.3021 278.542 75.6312 280.546C67.5707 282.649 61.1483 290.442 59.2705 300.399V300.469L59.2406 300.479Z" fill="#4D3D38"/>
<path d="M120.996 277.961H113.355C109.24 277.961 105.874 274.665 105.774 270.539L105.315 251.607C105.215 247.41 108.521 243.924 112.706 243.814L124.822 243.504C129.716 243.374 133.441 247.861 132.443 252.669L128.427 271.911C127.688 275.437 124.592 277.961 120.996 277.961Z" fill="#FFB695"/>
<path d="M120.997 278.262H113.356C109.041 278.262 105.576 274.876 105.476 270.549L105.016 251.617C104.906 247.26 108.352 243.634 112.697 243.514L124.813 243.204C127.25 243.133 129.517 244.175 131.075 246.048C132.634 247.921 133.233 250.355 132.743 252.729L128.728 271.971C127.969 275.617 124.723 278.262 121.007 278.262H120.997ZM125.013 243.805C124.953 243.805 124.883 243.805 124.823 243.805L112.707 244.115C108.692 244.215 105.516 247.581 105.606 251.597L106.065 270.529C106.165 274.525 109.361 277.661 113.346 277.661H120.987C124.413 277.661 127.42 275.217 128.119 271.851L132.134 252.609C132.594 250.405 132.034 248.162 130.596 246.429C129.198 244.756 127.17 243.805 125.003 243.805H125.013Z" fill="#4D3D38"/>
<path d="M371.471 260.031H297.428C295.241 260.031 293.603 262.045 294.042 264.198L296.869 277.961H371.471V260.031Z" fill="#30995B"/>
<path d="M371.77 278.262H296.629L293.752 264.259C293.523 263.147 293.802 262.005 294.521 261.124C295.241 260.242 296.299 259.741 297.428 259.741H371.77V278.272V278.262ZM297.118 277.661H371.171V260.332H297.428C296.479 260.332 295.58 260.753 294.981 261.494C294.382 262.235 294.142 263.197 294.332 264.128L297.108 277.651L297.118 277.661Z" fill="#4D3D38"/>
<path d="M371.47 239.097H302.022L300.334 249.875H371.47V239.097Z" fill="#ACDA72"/>
<path d="M371.471 250.175H300.335C300.245 250.175 300.165 250.135 300.106 250.075C300.046 250.005 300.026 249.924 300.036 249.834L301.734 239.046C301.754 238.896 301.883 238.796 302.033 238.796H371.481C371.651 238.796 371.781 238.926 371.781 239.096V249.884C371.781 250.055 371.651 250.185 371.481 250.185L371.471 250.175ZM300.685 249.574H371.171V239.387H302.283L300.685 249.574Z" fill="#4D3D38"/>
<path d="M371.47 249.914H298.596C297.548 249.914 296.768 250.866 296.958 251.897L298.257 258.689C298.407 259.48 299.096 260.041 299.895 260.041H371.47V249.914Z" fill="#B3CFE0"/>
<path d="M371.471 260.342H299.896C298.957 260.342 298.148 259.671 297.968 258.739L296.67 251.948C296.56 251.367 296.71 250.776 297.089 250.325C297.469 249.875 298.018 249.614 298.608 249.614H371.481C371.651 249.614 371.781 249.744 371.781 249.915V260.042C371.781 260.212 371.651 260.342 371.481 260.342H371.471ZM298.598 250.215C298.188 250.215 297.809 250.396 297.549 250.716C297.289 251.027 297.179 251.447 297.259 251.848L298.558 258.639C298.678 259.28 299.247 259.751 299.896 259.751H371.172V250.225H298.598V250.215Z" fill="#4D3D38"/>
<path d="M216.814 95.5282L156.455 94.7269C156.645 80.1827 170.319 68.5835 186.989 68.8039C203.659 69.0242 217.013 80.9941 216.824 95.5282H216.814Z" fill="#FC8C4C"/>
<path d="M217.114 95.8293H216.815L156.156 95.018V94.7175C156.256 87.5957 159.522 80.9446 165.355 75.9964C171.178 71.0582 178.869 68.3537 187 68.504C195.13 68.6142 202.741 71.4789 208.434 76.5774C214.138 81.6859 217.224 88.417 217.124 95.5388V95.8393L217.114 95.8293ZM156.766 94.427L216.525 95.2283C216.525 88.397 213.518 81.9363 208.035 77.0281C202.451 72.0298 194.98 69.2152 186.99 69.105C179.009 69.0048 171.458 71.6091 165.745 76.4572C160.132 81.2251 156.945 87.5957 156.776 94.427H156.766Z" fill="#4D3D38"/>
<path d="M217.044 94.9972C217.054 97.8419 207.446 100.266 194.431 100.997C192.024 101.127 189.487 101.208 186.89 101.218C184.283 101.228 181.756 101.167 179.349 101.057C166.324 100.436 156.696 98.0823 156.686 95.2376C156.676 92.7034 164.287 90.4998 175.144 89.5382C178.739 89.2176 182.695 89.0273 186.84 89.0173C190.985 88.9973 194.94 89.1575 198.546 89.448C209.413 90.3295 217.044 92.473 217.054 94.9972H217.044Z" fill="#F7F2EA"/>
<path d="M186.269 101.529C183.922 101.529 181.595 101.468 179.328 101.368C167.911 100.817 156.395 98.7139 156.385 95.2482C156.375 92.0529 166.053 90.0596 175.123 89.2482C178.828 88.9177 182.774 88.7374 186.849 88.7274C190.924 88.7073 194.869 88.8576 198.575 89.1581C207.644 89.8893 217.343 91.8125 217.353 95.0078C217.363 98.4735 205.866 100.667 194.46 101.308C191.993 101.448 189.446 101.519 186.899 101.529C186.689 101.529 186.489 101.529 186.279 101.529H186.269ZM187.468 89.3183C187.258 89.3183 187.048 89.3183 186.839 89.3183C182.784 89.3384 178.858 89.5087 175.163 89.8392C164.445 90.7908 156.964 93.0145 156.974 95.2382C156.974 97.4518 164.675 100.056 179.348 100.757C181.805 100.878 184.332 100.928 186.879 100.918C189.416 100.908 191.953 100.837 194.41 100.697C209.082 99.8758 216.743 97.2014 216.743 94.9978C216.743 92.7741 209.242 90.6105 198.515 89.749C195.009 89.4686 191.303 89.3183 187.468 89.3183Z" fill="#4D3D38"/>
<path d="M198.775 91.7318C198.795 95.458 197.097 98.8035 194.44 100.997C192.393 102.69 189.766 103.722 186.909 103.732C184.043 103.742 181.416 102.74 179.358 101.057C176.681 98.8736 174.963 95.5481 174.943 91.822C174.943 91.0407 175.013 90.2794 175.153 89.5382C178.749 89.2176 182.704 89.0273 186.849 89.0173C190.994 88.9973 194.95 89.1575 198.555 89.448C198.705 90.1892 198.785 90.9505 198.785 91.7318H198.775Z" fill="#FFD16D"/>
<path d="M186.849 104.033C184.052 104.033 181.315 103.061 179.148 101.298C176.291 98.9744 174.643 95.5186 174.623 91.8325C174.623 91.0412 174.693 90.2499 174.843 89.4886L174.883 89.2683L175.112 89.2482C178.818 88.9177 182.763 88.7374 186.839 88.7274C190.914 88.7073 194.859 88.8576 198.565 89.1581L198.794 89.1781L198.834 89.3985C198.984 90.1597 199.064 90.951 199.064 91.7424C199.074 95.4285 197.456 98.8942 194.619 101.248C192.452 103.041 189.705 104.043 186.899 104.053C186.879 104.053 186.869 104.053 186.849 104.053V104.033ZM175.392 89.8192C175.282 90.4702 175.222 91.1514 175.232 91.8225C175.242 95.3283 176.81 98.6138 179.527 100.827C181.595 102.52 184.242 103.432 186.889 103.432C189.565 103.422 192.172 102.47 194.23 100.767C196.927 98.5336 198.475 95.2382 198.455 91.7323C198.455 91.0512 198.395 90.3801 198.275 89.729C194.649 89.4385 190.794 89.2983 186.829 89.3183C182.853 89.3384 179.008 89.4986 175.382 89.8192H175.392Z" fill="#4D3D38"/>
<path d="M186.5 55.3418C194.231 55.3418 200.503 61.6322 200.503 69.3851V71.8993H172.486V69.3851C172.486 61.6322 178.759 55.3418 186.49 55.3418H186.5Z" fill="#FC8C4C"/>
<path d="M200.802 72.1995H172.186V69.3848C172.186 61.4717 178.608 55.041 186.489 55.041C194.369 55.041 200.792 61.4817 200.792 69.3848V72.1995H200.802ZM172.785 71.5985H200.202V69.3848C200.202 61.8022 194.05 55.642 186.499 55.642C178.948 55.642 172.795 61.8122 172.795 69.3848V71.5985H172.785Z" fill="#4D3D38"/>
<path d="M234.443 169.021C236.061 171.755 241.675 172.657 241.675 172.657L234.443 169.021Z" fill="#FFB695"/>
<path d="M241.674 172.957C241.674 172.957 241.644 172.957 241.625 172.957C241.385 172.917 235.851 172.005 234.183 169.181C234.103 169.04 234.143 168.85 234.283 168.77C234.423 168.68 234.613 168.73 234.693 168.87C236.221 171.454 241.654 172.356 241.714 172.356C241.874 172.386 241.994 172.536 241.964 172.696C241.944 172.847 241.814 172.947 241.664 172.947L241.674 172.957Z" fill="#4D3D38"/>
<path d="M32.7114 372.879H32.252L35.4082 373.389C35.4082 373.389 34.2196 370.685 33.8501 368.201C33.6403 366.768 33.3706 364.965 33.051 362.842C31.2731 350.962 27.9071 329.136 23.9118 306.589C20.8155 289.059 17.3396 271.08 13.9336 256.996C13.7838 256.355 12.7051 256.345 12.7051 256.996C12.745 267.343 13.1046 280.515 14.2532 296.452L22.6533 368.511L23.2226 372.828C25.7297 372.909 29.4653 372.848 32.242 372.879" fill="#ACDA72"/>
<path d="M35.4088 373.69C35.4088 373.69 35.3789 373.69 35.3589 373.69L32.2226 373.179C31.1139 373.169 29.8454 373.169 28.5669 373.169C26.6791 373.169 24.7215 373.169 23.2232 373.129C23.0734 373.129 22.9536 373.019 22.9336 372.869L22.3642 368.552L13.9642 296.492C12.9853 282.769 12.466 269.487 12.416 257.006C12.416 256.596 12.7057 256.285 13.1352 256.235C13.5746 256.185 14.104 256.415 14.2239 256.946C17.2303 269.397 20.5864 286.085 24.2021 306.559C28.2373 329.346 31.6533 351.593 33.3413 362.822C33.6609 364.946 33.9306 366.749 34.1403 368.181C34.4899 370.585 35.6585 373.259 35.6685 373.289C35.7085 373.39 35.6985 373.51 35.6286 373.59C35.5686 373.66 35.4787 373.71 35.3888 373.71L35.4088 373.69ZM32.9417 372.688L34.9294 373.009C34.5698 372.107 33.8407 370.134 33.561 368.251C33.3513 366.819 33.0816 365.016 32.7619 362.892C31.0839 351.653 27.658 329.417 23.6228 306.639C20.007 286.185 16.651 269.507 13.6546 257.067C13.6046 256.856 13.3649 256.796 13.2151 256.816C13.0153 256.836 13.0153 256.956 13.0153 256.986C13.0553 269.457 13.5746 282.729 14.5535 296.422L22.9536 368.471L23.4929 372.528C24.9412 372.568 26.779 372.568 28.5569 372.568C29.8454 372.568 31.1239 372.568 32.2426 372.578H32.702C32.7919 372.578 32.8718 372.618 32.9317 372.688H32.9417Z" fill="#4D3D38"/>
<path d="M212.039 115.291C227.361 107.478 239.427 111.004 238.438 120.129C253.021 119.578 260.901 134.333 243.552 141.334" fill="#4D3D38"/>
</g>
<defs>
<clipPath id="clip0_14355_3">
<rect width="372" height="422" fill="white"/>
</clipPath>
</defs>
</svg>
